<svg width="163" height="94" viewBox="0 0 163 94" fill="none" xmlns="http://www.w3.org/2000/svg">
<path d="M30.3672 9.95508C30.7578 10.0853 30.9531 10.3132 30.9531 10.6387C30.6602 11.2246 30.1882 11.5176 29.5371 11.5176C29.0163 11.4199 28.707 11.3711 28.6094 11.3711C27.2422 11.9896 26.2493 12.7057 25.6309 13.5195C25.6309 13.5846 25.3542 13.7799 24.8008 14.1055L24.6543 14.3008V14.4961C24.6868 15.1471 24.8333 15.4727 25.0938 15.4727H25.3867C25.582 15.4727 25.8424 15.2611 26.168 14.8379C26.2982 14.8379 26.64 14.5938 27.1934 14.1055C27.1934 14.1706 27.2096 14.2031 27.2422 14.2031C26.7539 15.5378 26.0703 16.8236 25.1914 18.0605C24.9961 18.2559 24.8984 18.5 24.8984 18.793V19.1836C25.1263 20.4531 25.2402 21.2507 25.2402 21.5762C25.2402 22.5527 24.8659 23.7246 24.1172 25.0918C23.9544 25.6126 23.873 26.3125 23.873 27.1914V28.168C23.873 28.6562 23.4987 29.877 22.75 31.8301C22.7174 32.0905 22.7012 32.2858 22.7012 32.416C22.7012 32.8717 22.6849 34.0273 22.6523 35.8828C23.043 37.543 23.2383 38.487 23.2383 38.7148V39.0078C23.1406 39.5938 23.0918 39.9518 23.0918 40.082C23.2546 41.4818 23.3359 42.2956 23.3359 42.5234C23.3359 44.8346 22.7012 45.9902 21.4316 45.9902C21.0736 45.9902 20.6992 46.2995 20.3086 46.918C20.1133 46.918 19.8366 47.6504 19.4785 49.1152V49.75C19.4785 51.3451 18.1764 54.2585 15.5723 58.4902C14.791 60.0527 14.4004 60.9967 14.4004 61.3223V61.4199C14.4004 61.8431 14.3841 62.4779 14.3516 63.3242H14.2539C14.2539 63.3893 14.2865 63.4219 14.3516 63.4219L14.2539 63.7148V66.3516C14.2539 66.3841 14.2376 66.4004 14.2051 66.4004C14.2051 66.4329 14.2214 66.4492 14.2539 66.4492L14.2051 66.791V67.377C14.2051 67.4095 14.1888 67.4258 14.1562 67.4258L14.2051 67.5723V68.3535C14.3678 69.0371 14.8398 69.8509 15.6211 70.7949C17.151 71.9342 17.9486 72.5039 18.0137 72.5039C18.1113 72.5365 18.1764 72.5527 18.209 72.5527C19.8366 72.1621 20.6504 71.5111 20.6504 70.5996C20.8457 70.209 21.2363 69.6719 21.8223 68.9883V68.8418C21.8223 68.8092 21.6921 68.6953 21.4316 68.5L20.9434 68.5488H20.8457L20.3574 68.5C20.097 68.9232 19.8854 69.1348 19.7227 69.1348C19.3646 69.1348 19.1855 68.9232 19.1855 68.5C19.1855 68.0768 19.5599 67.7188 20.3086 67.4258C20.3086 67.3281 20.7155 67.1165 21.5293 66.791C21.8874 66.6283 22.1966 66.3678 22.457 66.0098C23.5312 65.6191 24.1335 65.4238 24.2637 65.4238L25.0449 65.7656C25.6634 64.9518 25.9727 64.3984 25.9727 64.1055C26.168 63.6497 26.7214 63.2917 27.6328 63.0312C28.4466 62.7383 29.1628 62.071 29.7812 61.0293C30.1068 60.4759 30.888 60.0527 32.125 59.7598C32.4831 59.7598 33.4596 59.3366 35.0547 58.4902C35.4779 58.2949 35.9661 58.1973 36.5195 58.1973H38.0332C38.5215 58.1973 39.319 57.6764 40.4258 56.6348C40.7188 56.4395 41.2233 56 41.9395 55.3164C42.1348 55.1862 42.4115 55.1211 42.7695 55.1211C43.2904 55.1211 43.6322 55.5443 43.7949 56.3906C43.7949 56.4883 43.8275 56.5697 43.8926 56.6348C43.8926 57.7741 42.5905 59.3691 39.9863 61.4199C39.498 62.1361 38.8633 62.6406 38.082 62.9336C37.3984 63.7799 36.7311 64.4147 36.0801 64.8379C36.0801 64.9355 35.3314 65.7005 33.834 67.1328C33.541 67.1979 33.2806 67.3607 33.0527 67.6211V67.9141C33.1178 67.9141 33.2155 67.9466 33.3457 68.0117C37.0892 67.9141 38.9609 67.7188 38.9609 67.4258C40.0026 67.2305 40.7513 67.0352 41.207 66.8398V66.7422H41.1582C40.7025 66.7422 39.9212 66.8398 38.8145 67.0352C40.0514 66.2214 41.8418 65.8145 44.1855 65.8145C45.9434 64.7728 47.2617 64.252 48.1406 64.252C48.2708 64.252 48.4499 64.2357 48.6777 64.2031C49.9798 64.3984 50.6309 64.7891 50.6309 65.375V65.6191C50.6309 66.2702 49.7682 66.6445 48.043 66.7422C42.5091 67.7839 39.319 68.5488 38.4727 69.0371C35.2826 70.6322 33.3783 71.5111 32.7598 71.6738C31.8809 72.3249 31.3438 72.9759 31.1484 73.627C31.2461 74.0827 31.2949 74.4245 31.2949 74.6523C31.1322 75.2383 30.9694 75.5638 30.8066 75.6289C30.6764 75.5312 30.5137 75.4824 30.3184 75.4824C29.6999 75.6452 29.3906 75.9056 29.3906 76.2637C29.3906 76.3939 29.7161 76.5404 30.3672 76.7031C30.3997 76.8008 30.4486 76.8496 30.5137 76.8496C31.002 76.8171 31.2786 76.7682 31.3438 76.7031C31.4089 76.7682 31.5228 76.8008 31.6855 76.8008C32.0111 76.8008 32.1738 76.752 32.1738 76.6543L32.5156 76.7031H33.1016C34.0781 76.4753 35.4453 76.2148 37.2031 75.9219C37.724 75.9544 37.9844 76.1497 37.9844 76.5078C37.8216 77.4193 37.3171 77.875 36.4707 77.875H36.2266C35.4779 77.6797 34.6803 77.5332 33.834 77.4355C33.834 77.3379 33.7689 77.2891 33.6387 77.2891C32.597 77.6146 31.2624 77.9076 29.6348 78.168C28.7884 78.8516 27.3398 79.3398 25.2891 79.6328C23.6615 79.8607 22.1966 80.235 20.8945 80.7559C18.4857 81.8626 15.6536 82.9206 12.3984 83.9297C11.9427 84.0924 11.2591 84.418 10.3477 84.9062C9.14323 85.4596 8.06901 85.7363 7.125 85.7363C6.70182 85.6712 6.49023 85.5085 6.49023 85.248C6.49023 84.6621 7.22266 84.3691 8.6875 84.3691C8.98047 84.3691 9.28971 84.4342 9.61523 84.5645C10.5267 84.4017 12.0566 83.5228 14.2051 81.9277H12.9844C11.8125 81.9277 10.5267 81.7324 9.12695 81.3418C7.01107 81.0488 5.43229 80.5931 4.39062 79.9746C4.13021 79.8118 3.39779 79.5352 2.19336 79.1445C1.63997 78.7539 1.36328 78.1842 1.36328 77.4355V77.2891H1.41211C2.19336 77.8099 2.69792 78.0703 2.92578 78.0703H3.36523C3.56055 78.0703 3.70703 78.0052 3.80469 77.875C3.80469 77.7773 3.39779 77.4518 2.58398 76.8984C2.38867 76.638 2.20964 76.166 2.04688 75.4824C1.75391 75.0918 1.33073 74.8965 0.777344 74.8965C0.549479 74.8965 0.435547 74.8314 0.435547 74.7012V74.2617C0.435547 74.0339 1.00521 73.8874 2.14453 73.8223L3.85352 73.041C5.54622 72.097 6.39258 71.332 6.39258 70.7461C6.49023 70.4531 6.55534 70.3066 6.58789 70.3066L6.53906 70.1602C6.50651 69.4115 6.49023 68.9557 6.49023 68.793C6.7832 66.8073 7.01107 65.4401 7.17383 64.6914C7.30404 64.3659 7.41797 63.7148 7.51562 62.7383C7.80859 61.8268 8.08529 61.2083 8.3457 60.8828H8.10156C7.8737 60.8828 7.54818 61.0944 7.125 61.5176H6.97852V61.3223C8.18294 60.248 8.81771 59.6296 8.88281 59.4668V58.9785C8.88281 58.5879 8.86654 58.2298 8.83398 57.9043C8.83398 56.5697 9.53385 55.2025 10.9336 53.8027C11.5846 53.0866 11.9102 52.5169 11.9102 52.0938C11.8776 52.0286 11.8613 51.9635 11.8613 51.8984L11.9102 51.6543C11.9102 51.6217 11.8939 51.6055 11.8613 51.6055L11.9102 51.2637C11.9102 50.3197 11.959 49.6686 12.0566 49.3105C12.0566 49.278 12.0404 49.2617 12.0078 49.2617C12.0078 48.0573 12.5449 46.0553 13.6191 43.2559L13.668 42.9141V42.8164H13.6191C13.0658 44.1836 12.2357 45.4694 11.1289 46.6738L9.9082 49.3105C9.9082 50.3522 9.58268 50.9544 8.93164 51.1172C8.70378 51.1172 8.54102 50.9056 8.44336 50.4824C8.44336 50.2546 8.88281 49.3431 9.76172 47.748C9.76172 47.6504 10.0872 46.918 10.7383 45.5508C11.5846 43.9557 12.0078 42.6862 12.0078 41.7422C12.0404 41.2539 12.4635 40.2936 13.2773 38.8613L13.4727 38.1289H13.375C11.3568 41.9701 10.1198 44.2487 9.66406 44.9648H9.51758V44.916C9.81055 44.0046 10.543 42.4909 11.7148 40.375C12.0729 39.8542 12.4961 38.8288 12.9844 37.2988C13.2448 37.2988 13.4564 36.8431 13.6191 35.9316C14.1074 34.89 14.5469 33.5716 14.9375 31.9766C13.5378 34.0924 12.8379 35.4596 12.8379 36.0781C12.2194 37.5755 11.7474 38.5033 11.4219 38.8613C11.3568 38.7637 11.3242 38.6986 11.3242 38.666C12.1706 36.5176 13.0007 34.1087 13.8145 31.4395C13.9121 30.4629 14.0586 29.763 14.2539 29.3398C14.3841 29.3398 14.5469 28.6562 14.7422 27.2891C14.8724 27.2891 15.0026 25.7591 15.1328 22.6992C15.1328 22.3411 15.4909 21.2344 16.207 19.3789V18.9395C16.207 18.8743 16.2233 18.8418 16.2559 18.8418C16.2559 18.8092 16.2396 18.793 16.207 18.793C16.207 18.2721 16.4512 17.7839 16.9395 17.3281C17.1022 17.0026 17.1836 16.8073 17.1836 16.7422C17.151 16.3516 17.1348 16.1074 17.1348 16.0098C17.1348 15.8796 17.3952 15.3424 17.916 14.3984C17.916 13.7474 18.3392 13.3079 19.1855 13.0801C19.2832 13.0801 19.9017 12.8359 21.041 12.3477L22.0176 12.25C22.4082 12.3151 22.8151 12.4128 23.2383 12.543H24.0684C25.9238 12.1523 26.8516 11.7943 26.8516 11.4688C26.9492 11.4688 27.5189 11.0781 28.5605 10.2969C29.0488 10.069 29.651 9.95508 30.3672 9.95508ZM20.6504 13.0312V13.0801C21.6921 13.0801 22.5059 13.4219 23.0918 14.1055H23.2871C23.6452 13.9102 23.8242 13.7799 23.8242 13.7148V13.666C22.3268 13.1777 21.4642 12.9336 21.2363 12.9336L20.6504 13.0312ZM18.1113 15.8145V15.9609C18.1113 16.1562 18.1439 16.4167 18.209 16.7422C18.1439 16.8724 18.1113 17.0026 18.1113 17.1328V17.3281L18.1602 17.7188C17.8672 18.2721 17.6882 18.7604 17.623 19.1836C16.8418 19.8021 16.4512 20.3392 16.4512 20.7949C16.5163 21.1855 16.5488 21.4297 16.5488 21.5273H16.5977C16.5977 20.8112 17.1673 20.0137 18.3066 19.1348C18.6322 18.972 18.7949 18.6628 18.7949 18.207C18.7624 17.8164 18.7461 17.5885 18.7461 17.5234C18.974 16.6445 19.4297 16.2051 20.1133 16.2051H20.6504L20.6992 15.7656V15.668C20.6016 14.9844 20.2598 14.6426 19.6738 14.6426H19.5762C18.5996 14.903 18.1113 15.2936 18.1113 15.8145ZM21.2852 16.9375V17.0352C21.2852 17.1003 21.3503 17.1654 21.4805 17.2305H21.627C21.6595 17.2305 21.7246 17.1654 21.8223 17.0352V16.9863C21.8223 16.9212 21.7572 16.8561 21.627 16.791H21.4316C21.334 16.791 21.2852 16.8398 21.2852 16.9375ZM16.3535 22.1133C16.3535 22.1458 16.321 22.2109 16.2559 22.3086V22.4551H16.3535C16.3535 22.3574 16.3698 22.2598 16.4023 22.1621V22.1133H16.3535ZM20.5527 39.0566V39.3984C20.5527 39.7891 20.7969 39.9844 21.2852 39.9844C21.6107 39.9844 21.806 39.724 21.8711 39.2031C21.7083 38.8125 21.4642 38.6172 21.1387 38.6172C20.8457 38.6823 20.6504 38.8288 20.5527 39.0566ZM19.7715 42.9629C19.7715 43.0931 19.8854 43.3047 20.1133 43.5977V43.8418C19.9831 44.4277 19.918 44.7533 19.918 44.8184L20.1133 45.4043C20.1133 45.4694 20.0319 45.5996 19.8691 45.7949V45.9902C19.8691 46.0553 19.9342 46.1204 20.0645 46.1855H20.1133C20.276 46.153 20.4876 45.9577 20.748 45.5996C20.748 45.3717 20.6829 45.0788 20.5527 44.7207C20.5527 44.0046 20.8783 43.5651 21.5293 43.4023C21.8548 43.207 22.0176 42.9303 22.0176 42.5723C22.0176 42.0189 21.7083 41.6771 21.0898 41.5469H20.9434C20.3249 41.5469 19.9342 42.0189 19.7715 42.9629ZM19.0879 46.8691V46.9668L19.1367 47.3086H19.1855C19.1855 47.2109 19.4297 46.9017 19.918 46.3809V46.2832C19.7227 46.1855 19.6087 46.1367 19.5762 46.1367C19.2507 46.2995 19.0879 46.5436 19.0879 46.8691ZM10.4941 55.9512C10.5918 55.9512 10.7708 55.6257 11.0312 54.9746C10.7383 55.235 10.5592 55.5605 10.4941 55.9512ZM37.9844 62.0059H38.0332C39.7259 60.9967 40.9954 59.597 41.8418 57.8066C42.4928 57.0254 42.8184 56.5371 42.8184 56.3418C42.7858 56.1139 42.7207 56 42.623 56H42.5742C42.2161 56 41.8581 56.3092 41.5 56.9277C40.2305 58.0671 39.5957 58.7507 39.5957 58.9785C39.5957 59.3366 39.2865 59.8411 38.668 60.4922C38.668 60.6549 38.4401 61.1595 37.9844 62.0059ZM10.3477 56.0488V56.1953H10.4453V56.0488H10.3477ZM9.95703 57.7578V58.002C10.0221 58.002 10.2012 57.7415 10.4941 57.2207C10.3965 56.8301 10.3477 56.5371 10.3477 56.3418C10.0872 56.6999 9.95703 57.1719 9.95703 57.7578ZM23.5312 67.8164H23.6289C23.987 67.6862 24.638 67.5885 25.582 67.5234C25.6471 67.556 25.7285 67.5723 25.8262 67.5723H26.2656C26.5911 67.377 26.9655 66.7096 27.3887 65.5703C27.7142 64.9193 28.2513 64.4798 29 64.252C29.3255 64.252 30.1556 63.6497 31.4902 62.4453C32.6947 62.0547 33.2969 61.6803 33.2969 61.3223C33.6549 60.9316 33.834 60.7201 33.834 60.6875H33.7363C33.3132 60.9154 32.776 61.2572 32.125 61.7129C30.7904 62.0059 30.123 62.2663 30.123 62.4941C29.0163 63.2428 28.4303 63.6823 28.3652 63.8125C27.6165 64.1055 26.9492 64.8542 26.3633 66.0586C26.168 66.7096 25.8424 67.0352 25.3867 67.0352C24.5078 67.0352 23.8893 67.2956 23.5312 67.8164ZM8.88281 61.2734C8.16667 61.6966 7.77604 63.0964 7.71094 65.4727C7.74349 66.1888 7.75977 66.7422 7.75977 67.1328L7.51562 68.8418V69.4277H7.56445L8.3457 65.4238V65.082C8.3457 64.9193 8.24805 64.5124 8.05273 63.8613C8.47591 62.5918 8.80143 61.8594 9.0293 61.6641V61.4199C9.0293 61.3223 8.98047 61.2734 8.88281 61.2734ZM11.666 65.4238C11.7962 66.2702 11.8613 66.7422 11.8613 66.8398L11.6172 67.7188C11.6823 68.5651 11.7148 69.0046 11.7148 69.0371L11.666 69.4277V70.9414C11.666 71.2669 11.7311 71.446 11.8613 71.4785C11.8613 71.2507 11.9915 70.681 12.252 69.7695L12.2031 68.9883C12.2031 68.4349 12.4961 66.3353 13.082 62.6895H13.0332C12.1217 63.7962 11.666 64.7077 11.666 65.4238ZM31.9785 68.9883L31.9297 69.1348V69.1836C32.2227 69.2812 32.4831 69.3301 32.7109 69.3301H33.0527C33.1829 69.3301 33.3783 69.2975 33.6387 69.2324C33.7689 69.3301 33.8991 69.3789 34.0293 69.3789C34.3874 69.3789 34.957 69.2975 35.7383 69.1348V69.0371H32.3203L31.9785 68.9883ZM14.0586 70.502V70.5508C14.3841 72.0156 14.6771 72.7806 14.9375 72.8457H16.2559L17.0371 72.748C17.0046 72.6829 16.3372 72.3249 15.0352 71.6738C14.4492 71.153 14.1562 70.7624 14.1562 70.502H14.0586ZM21.8223 71.0879C21.4642 72.1296 21.0736 72.7318 20.6504 72.8945V72.9434C20.8457 72.9434 20.9434 72.9759 20.9434 73.041C21.4316 73.041 22.0176 72.5853 22.7012 71.6738V71.5273C22.4408 71.2344 22.1478 71.0879 21.8223 71.0879ZM9.22461 73.627C9.0944 74.6361 9.0293 75.401 9.0293 75.9219V76.2148L9.07812 76.6543H9.12695C10.6569 76.6543 12.1706 76.1823 13.668 75.2383V75.0918C13.668 74.3757 12.1868 73.8548 9.22461 73.5293V73.627ZM8.29688 74.1152C8.29688 74.1803 8.05273 74.75 7.56445 75.8242C7.56445 76.0846 7.72721 76.3125 8.05273 76.5078H8.10156V76.459C8.10156 75.8079 8.18294 75.0592 8.3457 74.2129V74.1152H8.29688ZM6.34375 75.1406L6.49023 75.2383C6.49023 75.2057 6.50651 75.0267 6.53906 74.7012C6.47396 74.7012 6.40885 74.8477 6.34375 75.1406ZM13.5703 82.9043H13.668C16.1094 82.0905 17.4603 81.5859 17.7207 81.3906H17.623C16.0605 81.3906 14.7096 81.8952 13.5703 82.9043ZM77.1699 9.80859C77.2676 9.84115 77.3164 9.88997 77.3164 9.95508V10.0039C77.3164 10.1016 77.2513 10.1504 77.1211 10.1504C77.2839 10.4108 77.6419 10.6549 78.1953 10.8828C78.3581 11.013 78.4395 11.1432 78.4395 11.2734V11.4688L78.1465 11.9082C78.179 11.9082 78.2441 11.9733 78.3418 12.1035L78.293 12.4453V12.4941C78.4557 12.722 78.8626 13.0801 79.5137 13.5684C79.123 13.8288 78.9277 13.9753 78.9277 14.0078C79.5137 14.8867 80.653 15.2773 82.3457 15.1797C83.3223 15.2773 83.8105 15.375 83.8105 15.4727L82.6875 16.1562C82.6224 16.3841 82.5898 16.5632 82.5898 16.6934C82.6224 16.9538 83.0944 17.4095 84.0059 18.0605C84.0059 18.1582 84.071 18.2721 84.2012 18.4023L84.1523 18.5488C84.3477 19.3626 84.6895 19.7695 85.1777 19.7695C85.8613 20.0299 86.4798 20.1439 87.0332 20.1113V20.1602C85.666 21.5273 84.9987 22.3249 85.0312 22.5527C84.9987 22.7155 84.9824 22.9108 84.9824 23.1387L85.0801 24.6035C85.2754 26.6217 85.5684 28.2168 85.959 29.3887C86.3171 30.3001 87.0169 31.9766 88.0586 34.418C88.0911 34.8086 87.7331 35.3132 86.9844 35.9316H86.6426C86.1543 35.9642 85.8451 35.4922 85.7148 34.5156C84.9336 31 84.3802 28.8027 84.0547 27.9238C83.9245 27.9238 83.7943 28.6888 83.6641 30.2188C83.4362 33.4089 83.1595 36.3385 82.834 39.0078C82.8665 39.2682 82.8665 39.431 82.834 39.4961C82.8665 39.5612 82.8828 39.6426 82.8828 39.7402L82.9316 40.0332C82.9316 40.3913 82.5085 41.4655 81.6621 43.2559C81.4342 44.0046 81.1413 45.4531 80.7832 47.6016C80.0345 48.7083 79.709 50.0918 79.8066 51.752C79.8717 51.9473 80.0996 52.6634 80.4902 53.9004C81.1413 53.8678 81.4831 54.0957 81.5156 54.584C81.3854 55.0397 81.1576 55.2839 80.832 55.3164L80.4414 55.3652C79.6276 55.2676 79.2044 54.9909 79.1719 54.5352C79.1719 54.4375 79.1882 54.0143 79.2207 53.2656C79.1556 53.2005 79.123 53.1354 79.123 53.0703H79.0742C79.0742 53.7539 78.7975 54.877 78.2441 56.4395C77.8861 57.0254 77.4141 57.4974 76.8281 57.8555C74.7448 60.1341 73.7357 61.7617 73.8008 62.7383C73.8008 62.9336 73.6217 63.7962 73.2637 65.3262C73.2637 65.5866 73.1335 66.6608 72.873 68.5488C72.9056 69.2324 72.8405 71.153 72.6777 74.3105H72.5312C72.3359 72.3249 72.0918 70.4043 71.7988 68.5488L71.75 68.5977C71.3268 70.1602 71.1478 71.6413 71.2129 73.041C70.8874 73.8548 70.7897 75.2383 70.9199 77.1914C70.9199 77.3867 71.1803 78.7376 71.7012 81.2441H71.75C71.9128 79.9421 72.1406 78.8678 72.4336 78.0215H72.4824C72.5801 78.0215 72.6289 78.0866 72.6289 78.2168C72.6615 78.7702 72.6126 79.6816 72.4824 80.9512L72.5312 81.2441C72.5312 81.3743 72.5312 81.5534 72.5312 81.7812C72.7266 83.7018 72.9707 84.9388 73.2637 85.4922C73.6217 85.9805 73.9147 86.9896 74.1426 88.5195C74.6309 89.8542 75.2331 90.4889 75.9492 90.4238C76.0794 90.554 76.5189 90.7331 77.2676 90.9609C77.7559 91.3516 78 91.6934 78 91.9863C78.0651 92.8001 77.707 93.3372 76.9258 93.5977L76.5352 93.7441H76.3887C75.6074 93.5163 74.9889 93.0605 74.5332 92.377C74.2402 91.8887 73.7682 90.8958 73.1172 89.3984C72.8242 89.0078 72.5801 88.1126 72.3848 86.7129C72.1895 86.4199 71.929 85.4922 71.6035 83.9297C71.1478 83.2135 70.7409 82.2858 70.3828 81.1465C69.8945 80.4954 69.6178 79.7793 69.5527 78.998L69.6016 78.8027C69.2435 77.0775 68.7878 75.6452 68.2344 74.5059L68.1855 73.9199H68.1367C66.9648 76.1986 66.3952 77.4681 66.4277 77.7285C66.3952 78.0215 66.3789 78.2493 66.3789 78.4121L66.4277 78.7051C66.4603 79.2585 67.0299 79.8932 68.1367 80.6094C68.2669 80.7721 68.3809 81.0977 68.4785 81.5859C68.153 82.2695 67.681 82.6276 67.0625 82.6602C67.0951 82.6927 66.916 82.7253 66.5254 82.7578C65.028 82.6927 64.2467 82.123 64.1816 81.0488C64.1491 80.9512 64.1328 80.8535 64.1328 80.7559C64.0352 78.9655 64.4909 77.403 65.5 76.0684C65.8581 75.0267 66.0208 74.2454 65.9883 73.7246H66.0859C66.2161 73.6921 66.3301 74.0176 66.4277 74.7012C66.3952 74.7988 66.3789 74.9128 66.3789 75.043C67.3555 73.3503 67.8112 71.9993 67.7461 70.9902C67.8112 69.8835 67.8438 69.2161 67.8438 68.9883V68.8906H67.7949C67.5996 70.0299 67.2415 70.8112 66.7207 71.2344C66.265 71.5599 65.9557 71.7389 65.793 71.7715H65.5488C65.2559 71.804 65.0117 71.6087 64.8164 71.1855C64.7839 70.7949 65.1582 70.5345 65.9395 70.4043C66.3301 70.3717 66.5742 70.0788 66.6719 69.5254C66.6393 69.2324 66.9648 68.4023 67.6484 67.0352C67.8438 66.6771 67.9902 65.4889 68.0879 63.4707C68.1855 63.4382 68.2507 63.2917 68.2832 63.0312C67.2741 64.0729 66.7533 64.5938 66.7207 64.5938L66.623 64.5449C67.209 63.7311 67.8438 62.722 68.5273 61.5176C68.7227 61.5176 68.8366 61.0781 68.8691 60.1992C68.7715 60.1992 68.446 60.4434 67.8926 60.9316C67.5671 60.9316 66.7695 61.3711 65.5 62.25L65.1094 62.3477L65.0117 62.2988C63.0911 63.3405 61.9518 64.0241 61.5938 64.3496C61.431 64.5775 61.3496 64.7728 61.3496 64.9355L62.5703 66.2539C63.2214 66.7096 63.5794 67.3118 63.6445 68.0605C63.5794 68.5163 63.4818 68.7604 63.3516 68.793C62.7656 68.2721 62.4076 68.0117 62.2773 68.0117C61.1706 68.0768 60.2917 68.6302 59.6406 69.6719C59.6081 69.6719 58.8594 70.502 57.3945 72.1621H57.3457C57.8665 70.9251 58.4525 69.8509 59.1035 68.9395V68.8418H59.0059C58.7129 68.9395 58.3874 69.2487 58.0293 69.7695C57.9642 69.7044 57.8828 69.6719 57.7852 69.6719C57.7852 69.737 56.776 71.6413 54.7578 75.3848C54.3346 76.2311 53.9766 77.0449 53.6836 77.8262H53.5371V77.7773C53.5046 77.1914 54.0417 75.4336 55.1484 72.5039C55.5391 71.5924 55.7344 70.9902 55.7344 70.6973C54.6927 72.1296 53.7812 73.5293 53 74.8965C50.6888 77.2402 49.5332 78.6074 49.5332 78.998L48.8008 80.6094C48.2474 81.0977 47.987 81.6348 48.0195 82.2207L48.0684 82.4648C48.0684 82.5625 48.2148 82.9531 48.5078 83.6367V83.9297C48.3776 84.6133 48.1497 84.9714 47.8242 85.0039H47.6289H47.2383C47.1406 85.0365 47.043 85.0527 46.9453 85.0527C46.099 84.9876 45.6595 84.6133 45.627 83.9297C45.5944 83.9297 45.5293 83.6855 45.4316 83.1973C45.5618 82.0905 46.3268 80.5931 47.7266 78.7051C48.0521 77.9889 48.1986 77.3704 48.166 76.8496L48.1172 76.5078C48.1172 76.1823 47.7591 75.8242 47.043 75.4336C46.75 75.043 46.5059 74.7826 46.3105 74.6523L45.5781 75.6777C45.5781 75.6452 45.5618 75.6289 45.5293 75.6289L45.5781 75.2871C45.4805 74.5384 45.4316 74.0827 45.4316 73.9199H45.3828C44.4062 74.8639 43.6087 76.166 42.9902 77.8262C42.7624 78.1191 42.6159 78.2656 42.5508 78.2656L42.502 78.168V77.9727C42.502 76.3776 42.7461 75.4499 43.2344 75.1895C44.6992 73.5293 45.4316 72.6829 45.4316 72.6504C45.5618 71.8366 45.627 71.2832 45.627 70.9902L45.5781 70.5996C44.7969 70.0462 44.39 69.5254 44.3574 69.0371C44.3574 68.6465 44.9596 67.4909 46.1641 65.5703C46.2617 65.1471 46.3105 64.8867 46.3105 64.7891V64.7402C46.3105 64.5449 46.1966 63.9915 45.9688 63.0801C46.0339 62.2663 46.0501 61.6803 46.0176 61.3223V61.127C45.5293 59.5319 44.9922 57.9206 44.4062 56.293C44.276 55.707 44.1947 55.3001 44.1621 55.0723C44.2272 54.0306 44.2435 53.3633 44.2109 53.0703L44.1621 52.6309C44.2272 52.1426 44.3086 51.8984 44.4062 51.8984C44.6016 52.1589 44.7155 52.5332 44.748 53.0215V53.2656C44.8783 53.3307 45.1224 53.7865 45.4805 54.6328C46.1641 55.6094 46.7174 56.0814 47.1406 56.0488L47.7754 56C48.3939 55.2513 48.6868 54.584 48.6543 53.998C48.5241 53.4772 48.3613 52.1751 48.166 50.0918C47.8405 49.0827 47.4987 48.1712 47.1406 47.3574H47.1895C48.0033 47.9434 48.6543 48.9036 49.1426 50.2383H49.1914V50.1895C49.1589 49.929 49.0286 48.8385 48.8008 46.918C48.7682 46.5599 49.0938 45.681 49.7773 44.2812C49.9727 43.4023 50.1191 42.8001 50.2168 42.4746H50.1191C49.4681 43.2233 48.7682 43.6139 48.0195 43.6465C46.6198 43.4837 45.9036 43.0443 45.8711 42.3281C45.8385 41.7422 46.571 40.5378 48.0684 38.7148H48.1172C48.1497 38.9427 48.3451 39.0404 48.7031 39.0078C49.0286 39.0078 49.5169 38.3242 50.168 36.957C50.7865 36.4688 51.2259 35.8503 51.4863 35.1016L51.7305 34.418H51.7793C51.877 34.418 51.9258 34.4993 51.9258 34.6621H52.0234C52.707 33.3926 53.9603 31.1628 55.7832 27.9727C56.1413 27.4193 56.4993 27.1263 56.8574 27.0938C57.0527 27.0938 57.5898 27.3216 58.4688 27.7773H58.6152C59.0384 27.2565 59.6569 26.9798 60.4707 26.9473C61.5775 26.8822 62.2448 27.2728 62.4727 28.1191C62.5703 28.5749 62.6354 28.998 62.668 29.3887C62.7005 29.877 62.2773 30.4792 61.3984 31.1953C60.8776 31.2279 60.3242 31.765 59.7383 32.8066L59.7871 33.2461C60.3079 34.7109 60.5846 35.5085 60.6172 35.6387C61.1055 35.6387 61.3496 35.6712 61.3496 35.7363L64.9141 32.7578C64.9141 32.6927 64.9792 32.6276 65.1094 32.5625H65.207V32.6602L63.6934 35.248L62.2285 37.0547H62.3262C62.7819 36.7617 63.1237 36.599 63.3516 36.5664L63.4004 36.6152C62.847 37.2337 62.0983 38.8613 61.1543 41.498C60.6986 42.2467 60.4382 43.028 60.373 43.8418C60.5684 44.1348 60.6986 44.4603 60.7637 44.8184C60.1452 46.9342 59.901 48.8548 60.0312 50.5801C59.8034 51.4915 59.6732 52.3379 59.6406 53.1191C59.7057 53.1517 59.7383 53.2331 59.7383 53.3633C59.7383 53.4284 59.7057 53.4772 59.6406 53.5098L59.7383 53.7539L59.8359 55.1211C59.8359 55.349 59.8685 55.6745 59.9336 56.0977C59.9336 55.9349 60.7311 55.7721 62.3262 55.6094C62.9772 55.4466 63.8398 54.9258 64.9141 54.0469C67.388 52.7122 68.9505 51.7682 69.6016 51.2148C70.5781 48.9688 71.0339 47.4551 70.9688 46.6738L70.7246 45.6484C70.7246 45.4857 71.0176 44.4928 71.6035 42.6699C71.7012 42.0514 71.8965 41.2539 72.1895 40.2773C72.1569 39.8216 72.2383 38.959 72.4336 37.6895C70.4805 39.8379 69.4876 40.9121 69.4551 40.9121C68.3158 40.6517 67.681 40.4564 67.5508 40.3262L67.502 39.252C67.4694 38.7637 67.4206 38.3405 67.3555 37.9824C67.3229 37.5592 67.6973 37.071 68.4785 36.5176C69.1947 35.9967 69.5527 35.6549 69.5527 35.4922C69.5527 34.8411 69.5365 34.3691 69.5039 34.0762C69.4714 33.5553 69.3737 33.0345 69.2109 32.5137C69.4714 32.5137 69.6667 32.6439 69.7969 32.9043C69.7318 33.1973 69.6992 33.4414 69.6992 33.6367C69.8294 34.3203 70.0573 34.6458 70.3828 34.6133C72.3034 32.4648 73.2474 31.1628 73.2148 30.707C74.0286 28.7539 74.403 27.2728 74.3379 26.2637C74.3704 26.0033 74.4193 25.1732 74.4844 23.7734C74.4844 23.7409 74.4681 23.7246 74.4355 23.7246L74.5332 22.1621L74.4844 22.0156V21.918C74.4518 21.8203 74.4355 21.7552 74.4355 21.7227H74.4844L74.4355 21.5762L74.2891 19.4277C74.2891 19.0046 74.2728 18.3535 74.2402 17.4746L74.4355 17.3281C74.8913 18.1745 75.3145 20.1276 75.7051 23.1875H75.6074L75.7051 23.2852V23.3828L75.6074 23.4805H75.7539C75.9167 20.7786 76.0632 18.9069 76.1934 17.8652C76.1934 17.8327 76.1608 17.8164 76.0957 17.8164L76.1445 17.4746L76.0469 15.668C76.0143 14.8867 75.7865 14.1217 75.3633 13.373V13.0312C75.3307 12.5104 75.5098 12.0384 75.9004 11.6152V11.5664C75.7376 11.599 75.6562 11.5664 75.6562 11.4688C75.9492 10.3945 76.2259 9.85742 76.4863 9.85742L77.1699 9.80859ZM81.9551 11.7617L82.1992 12.0059V12.0547H82.1504C81.9551 11.9896 81.8411 11.9082 81.8086 11.8105L81.9551 11.7617ZM70.1875 38.2754H70.2852C71.0013 37.9499 71.6523 37.3965 72.2383 36.6152C72.7266 36.127 72.9544 35.4596 72.9219 34.6133C72.9544 34.6133 73.0033 34.2715 73.0684 33.5879H73.0195C71.5221 34.6947 70.7734 35.3457 70.7734 35.541C70.7734 35.7363 70.6107 36.5176 70.2852 37.8848L70.1875 38.2754ZM54.0742 35.3457L52.1699 38.4707C51.6165 39.3496 51.3724 40.2773 51.4375 41.2539L51.4863 41.8887L51.9746 41.9375C52.1048 41.9375 52.2188 41.3516 52.3164 40.1797C52.6094 39.1055 53.2279 37.5104 54.1719 35.3945V35.3457H54.0742ZM64.6211 35.1016H64.6699C64.5072 35.3945 64.377 35.541 64.2793 35.541V35.4922C64.2467 35.4271 64.3607 35.2969 64.6211 35.1016ZM67.9902 38.4707C68.0228 38.7311 68.2344 38.8939 68.625 38.959H68.6738C69.0319 38.959 69.1947 38.7637 69.1621 38.373C69.097 38.015 68.918 37.8359 68.625 37.8359L68.3809 37.8848C68.1204 38.0475 67.9902 38.2428 67.9902 38.4707ZM46.2129 43.7441C46.8314 43.972 47.2383 44.0859 47.4336 44.0859V44.1836C47.4661 44.2812 47.2708 44.3789 46.8477 44.4766H46.457C46.3268 44.4766 46.2292 44.265 46.1641 43.8418C46.1966 43.8418 46.2129 43.8092 46.2129 43.7441ZM55.4414 49.6035V49.7012C55.9948 48.985 56.5807 48.4967 57.1992 48.2363C57.1667 47.6829 57.5085 47.3249 58.2246 47.1621L58.3711 46.918C58.2409 46.2669 58.1595 45.7624 58.127 45.4043C57.0202 46.5762 56.3854 47.5202 56.2227 48.2363L55.4414 49.6035ZM56.5156 53.9492L56.7109 55.1211C56.7109 55.3815 56.4831 55.8535 56.0273 56.5371C55.832 56.8626 55.4414 57.9531 54.8555 59.8086C54.7904 59.9388 54.6764 60.2155 54.5137 60.6387H54.5625C55.0508 60.2806 56.1901 59.4668 57.9805 58.1973C58.306 57.5462 58.5013 55.4792 58.5664 51.9961V51.8496C58.5013 51.8496 58.3223 51.5892 58.0293 51.0684C57.834 50.873 57.7201 50.7754 57.6875 50.7754C57.362 51.0033 56.9551 51.9798 56.4668 53.7051L56.5156 53.9492ZM64.9141 56.2441C64.9466 56.5371 64.9792 56.8301 65.0117 57.123C65.0443 57.123 66.0208 56.1628 67.9414 54.2422H67.8926C66.1999 55.5768 65.207 56.2441 64.9141 56.2441ZM74.5332 56.4883C74.6634 56.8138 74.7611 56.9603 74.8262 56.9277C75.5749 55.6908 75.9329 55.0397 75.9004 54.9746C76.0306 54.7467 76.0957 54.5514 76.0957 54.3887C75.1842 54.877 74.7285 55.349 74.7285 55.8047C74.5983 56.1302 74.5332 56.3581 74.5332 56.4883ZM61.0566 57.5625L61.9844 57.5137L62.082 57.5625C62.082 57.5299 62.1146 57.5137 62.1797 57.5137L62.082 57.3672L62.3262 56.9277L62.2285 56.9766C61.4473 57.1393 61.0566 57.3346 61.0566 57.5625ZM69.1133 57.8555C69.1133 58.0833 69.2598 58.2461 69.5527 58.3438C70.0085 58.3112 70.2526 58.1322 70.2852 57.8066L70.2363 57.6602C70.041 57.3997 69.8132 57.2858 69.5527 57.3184H69.3574C69.1621 57.416 69.0807 57.5951 69.1133 57.8555ZM61.8379 63.6172L65.8906 60.4922C67.1276 59.8086 67.9577 59.2227 68.3809 58.7344C68.3483 58.6367 68.2181 58.5716 67.9902 58.5391C65.1582 60.0039 63.7585 60.9642 63.791 61.4199C63.0423 62.1686 62.3913 62.901 61.8379 63.6172ZM55.7832 64.0078H55.8809C58.4199 62.1523 59.8685 61.0456 60.2266 60.6875C60.2266 60.6224 60.3405 60.4596 60.5684 60.1992H60.5195C59.7708 60.5247 58.8268 61.0944 57.6875 61.9082C57.362 61.9408 56.7272 62.6406 55.7832 64.0078ZM70.4805 66.6934V66.7422H70.5781C70.9688 65.7656 71.3105 64.4635 71.6035 62.8359C71.7012 62.8359 71.7337 62.7383 71.7012 62.543C71.4082 62.5755 71.1641 63.5521 70.9688 65.4727C70.9362 65.4727 70.7734 65.8796 70.4805 66.6934ZM46.457 66.9863C46.099 67.8652 45.9362 68.5163 45.9688 68.9395V69.1836C46.0013 69.4766 46.1966 69.7207 46.5547 69.916L46.8965 69.8672C46.9616 69.8672 47.0267 69.8021 47.0918 69.6719C46.7337 68.793 46.5384 68.1419 46.5059 67.7188C46.5384 67.3281 46.5547 67.1165 46.5547 67.084V66.9863H46.457ZM70.4316 66.8887C69.6504 68.972 69.2923 70.4857 69.3574 71.4297C69.3574 71.4948 69.3574 71.7389 69.3574 72.1621L69.4062 72.2598C69.276 72.6504 69.2272 73.2526 69.2598 74.0664C69.2923 74.457 69.5365 74.9128 69.9922 75.4336C70.1224 73.5781 70.1875 72.5365 70.1875 72.3086L69.7969 71.1367L69.748 70.3555C69.6829 69.5417 69.9271 68.4186 70.4805 66.9863V66.8887H70.4316ZM49.9727 75.9707C50.0703 75.9382 50.7051 75.1569 51.877 73.627C52.1699 73.1387 53.293 71.918 55.2461 69.9648C55.2461 69.8672 55.3112 69.7207 55.4414 69.5254V69.4277C54.1393 70.7949 52.6908 71.9831 51.0957 72.9922C50.9004 73.3828 50.819 73.8711 50.8516 74.457C50.2331 75.2708 49.9401 75.7754 49.9727 75.9707ZM48.0195 73.7734C48.0521 74.457 48.2799 74.9779 48.7031 75.3359L49.0449 75.2871C48.752 75.1243 48.5241 74.2292 48.3613 72.6016V72.5039C48.2311 72.5039 48.1172 72.9271 48.0195 73.7734ZM115.086 0.140625C115.704 0.205729 115.965 0.954427 115.867 2.38672L115.77 2.77734C115.802 2.90755 115.835 3.00521 115.867 3.07031C115.802 3.03776 115.59 4.29102 115.232 6.83008L115.184 6.97656C115.184 7.00911 115.216 7.02539 115.281 7.02539L115.184 7.36719L115.086 8.7832C115.053 8.91341 115.053 9.01107 115.086 9.07617C115.053 9.14128 115.021 9.22266 114.988 9.32031L114.939 10.0039C114.972 10.1016 114.988 10.1992 114.988 10.2969C114.988 10.3294 114.972 10.3457 114.939 10.3457C114.907 12.6895 115.021 13.8776 115.281 13.9102C115.802 14.8867 115.965 16.3678 115.77 18.3535C115.9 18.8092 115.997 19.0371 116.062 19.0371H116.111C116.372 18.2884 116.876 16.3678 117.625 13.2754C117.983 12.7871 118.39 10.8503 118.846 7.46484C119.594 5.34896 120.359 4.30729 121.141 4.33984C121.596 4.3724 121.889 4.60026 122.02 5.02344V5.12109C121.694 7.04167 121.434 8.00195 121.238 8.00195C120.555 8.68555 120.18 9.40169 120.115 10.1504C119.92 10.541 119.562 12.0059 119.041 14.5449C118.585 15.4889 118.195 16.7747 117.869 18.4023C117.739 18.7279 117.674 19.0534 117.674 19.3789L117.576 20.209C117.511 21.0228 117.381 22.0645 117.186 23.334C117.348 24.1152 117.397 24.8314 117.332 25.4824L117.283 25.7266C117.088 26.8333 116.99 27.4518 116.99 27.582V27.6309C116.925 28.1517 117.007 28.5423 117.234 28.8027C117.332 27.8913 117.853 26.9798 118.797 26.0684H118.895H118.992C119.057 26.0684 119.09 26.1009 119.09 26.166C118.374 28.7702 117.999 30.3001 117.967 30.7559C117.934 30.9512 117.934 31.3743 117.967 32.0254H118.064C118.13 31.6999 118.162 31.5208 118.162 31.4883H118.357L118.26 31.8789L118.211 32.6113C118.048 34.5319 118.178 36.2734 118.602 37.8359L118.504 38.3242L117.967 40.7168L117.918 41.2051L117.967 42.9629H117.918V43.0605C117.527 44.1022 117.202 45.681 116.941 47.7969C116.909 47.8945 116.86 48.0898 116.795 48.3828C116.893 49.6523 116.974 52.0124 117.039 55.4629C117.202 55.7233 117.381 56.2116 117.576 56.9277C117.511 57.709 116.925 58.8809 115.818 60.4434C115.753 60.5736 115.672 60.7526 115.574 60.9805C115.9 62.0872 116.062 62.722 116.062 62.8848L116.014 63.0801C115.916 63.8613 115.835 64.3822 115.77 64.6426C115.9 65.3913 115.949 65.8796 115.916 66.1074L115.867 66.6934C115.737 67.8652 115.216 68.4023 114.305 68.3047C113.361 68.8581 112.872 69.3301 112.84 69.7207V69.916C112.807 69.9811 113.019 70.4368 113.475 71.2832C113.442 71.7064 113.719 72.2923 114.305 73.041C114.891 74.4408 115.151 75.4336 115.086 76.0195L114.988 76.5566C114.728 77.8913 114.354 78.5423 113.865 78.5098L113.621 78.4609C113.263 78.4284 113.051 78.2982 112.986 78.0703V77.582C113.247 77.1589 113.654 76.7031 114.207 76.2148L114.256 75.8242C114.288 75.3034 113.995 74.3431 113.377 72.9434C112.986 72.7155 112.547 72.2435 112.059 71.5273C111.375 73.7734 110.936 76.0358 110.74 78.3145C110.577 80.1699 110.903 82.1719 111.717 84.3203C111.717 84.5482 111.717 84.6784 111.717 84.7109L111.668 84.6621C110.626 83.8158 109.959 82.8066 109.666 81.6348C109.503 81.1139 109.324 79.9095 109.129 78.0215C108.836 77.5332 108.38 76.931 107.762 76.2148C107.534 75.4336 106.883 74.9941 105.809 74.8965C105.809 74.8639 105.792 74.8477 105.76 74.8477C105.304 75.0755 105.092 75.2546 105.125 75.3848C105.288 76.7194 105.385 78.1029 105.418 79.5352C105.743 80.0234 106.053 81.2441 106.346 83.1973C106.378 83.2949 106.46 84.3203 106.59 86.2734C106.59 86.6315 106.997 87.1523 107.811 87.8359C108.006 88.0638 108.136 88.2428 108.201 88.373C108.038 89.8379 107.452 90.5215 106.443 90.4238H106.395C105.743 90.3587 105.206 89.8053 104.783 88.7637C104.425 86.3874 103.953 84.9062 103.367 84.3203C102.977 83.8971 102.814 83.3763 102.879 82.7578C102.911 82.3021 103.139 81.5046 103.562 80.3652C103.107 78.347 102.798 76.8984 102.635 76.0195C102.179 75.5638 101.886 74.6849 101.756 73.3828C101.528 71.3646 101.235 70.0137 100.877 69.3301C100.454 68.6465 100.096 68.1908 99.8027 67.9629C99.2819 68.1257 98.9889 68.7441 98.9238 69.8184C98.9238 69.8509 98.9238 69.8672 98.9238 69.8672C98.7936 70.7461 98.5658 71.7227 98.2402 72.7969L98.0938 72.748C97.931 72.2923 97.8333 71.4134 97.8008 70.1113V70.0137C97.8008 69.9811 97.7845 69.9486 97.752 69.916L97.8496 69.5742L98.0938 67.377C98.0938 67.2793 98.0938 67.1816 98.0938 67.084L98.1426 66.9375C98.1426 66.8724 98.11 66.8398 98.0449 66.8398L98.1426 66.5469L98.1914 65.9121C98.1914 65.8145 98.1914 65.7005 98.1914 65.5703C98.1914 65.5378 98.2077 65.5378 98.2402 65.5703L98.1914 65.1797V65.082C98.3542 63.3242 98.0612 61.5013 97.3125 59.6133C97.0195 57.5951 96.7266 56.1953 96.4336 55.4141L96.5801 54.0469C96.5801 53.7214 96.3685 53.0052 95.9453 51.8984V51.8496C96.1406 51.5241 96.222 51.3125 96.1895 51.2148H96.1406C94.806 51.9961 94.1061 52.8587 94.041 53.8027L93.9434 55.1699C93.9108 55.3978 93.6341 56.1139 93.1133 57.3184C92.9831 58.653 92.5762 59.89 91.8926 61.0293C91.3717 62.2337 91.0788 63.0312 91.0137 63.4219V63.666L91.0625 67.9629C90.8997 69.3952 90.4277 70.5182 89.6465 71.332C89.1908 71.8529 88.6374 73.4154 87.9863 76.0195C87.9538 76.2799 87.9538 76.5078 87.9863 76.7031C87.8887 77.0938 87.8398 77.5007 87.8398 77.9238C87.7422 78.64 88.0677 79.7793 88.8164 81.3418C88.7839 81.472 88.7839 81.6673 88.8164 81.9277C88.7839 82.416 88.6048 82.7578 88.2793 82.9531L87.5957 82.9043C87.2051 82.7415 86.6029 81.8464 85.7891 80.2188C85.6589 80.1862 85.61 80.056 85.6426 79.8281C85.6751 79.6654 86.0495 78.4772 86.7656 76.2637C86.8958 75.6452 87.0423 75.1081 87.2051 74.6523C87.2051 73.9688 87.2214 73.4967 87.2539 73.2363C87.319 72.5853 87.6608 71.8203 88.2793 70.9414L88.377 69.4277C87.791 70.0137 87.4655 70.6322 87.4004 71.2832C87.2376 71.5436 86.9447 71.6576 86.5215 71.625C86.0658 71.4297 85.8379 71.2832 85.8379 71.1855C86.0983 70.4043 86.6842 69.623 87.5957 68.8418C87.7585 68.8418 87.9538 68.5814 88.1816 68.0605C88.1816 67.6048 88.1979 67.2305 88.2305 66.9375V66.7422C88.1328 66.1562 88.1003 65.5215 88.1328 64.8379L88.1816 64.0078C88.2142 63.9102 88.1979 63.8288 88.1328 63.7637L88.2305 63.6172C88.2956 63.0638 88.1816 62.2012 87.8887 61.0293C87.9538 60.248 88.0189 59.6784 88.084 59.3203L87.791 59.125L87.1562 60.1016C87.0911 60.4596 86.847 61.013 86.4238 61.7617L86.3262 61.7129C86.4564 59.8574 86.8958 58.474 87.6445 57.5625C87.9049 57.1719 88.1979 56.3906 88.5234 55.2188C89.1419 54.1445 89.5163 52.8262 89.6465 51.2637C89.679 50.7754 89.7116 50.1243 89.7441 49.3105C89.8092 48.8874 89.8743 48.3828 89.9395 47.7969H89.9883L89.9395 47.6992L89.9883 47.1621C89.6628 45.86 89.5163 45.0788 89.5488 44.8184L90.0859 41.791L90.4277 37.7383L91.3066 34.0762C91.3066 33.4577 91.2253 33.1322 91.0625 33.0996H91.0137C90.5254 33.3926 90.0534 33.9785 89.5977 34.8574C89.4674 35.1829 89.1582 35.541 88.6699 35.9316V35.7852V35.6875C88.6699 35.4271 88.849 34.9062 89.207 34.125C89.2721 33.3438 89.7279 32.4811 90.5742 31.5371V31.1465C90.8672 29.7142 90.9974 28.9329 90.9648 28.8027H91.0137V28.6562L91.0625 27.9727C91.0951 27.7122 91.0625 27.2891 90.9648 26.7031C90.9974 26.3451 91.1764 25.7103 91.502 24.7988C91.4694 24.0501 91.4531 23.6595 91.4531 23.627C92.1693 21.6738 92.5599 20.5182 92.625 20.1602C92.5273 19.9323 92.446 19.8346 92.3809 19.8672L91.9902 19.8184C91.8275 19.7858 91.6484 20.1764 91.4531 20.9902L91.3066 21.0391L91.4043 20.0625C91.5996 17.7188 91.1927 15.8958 90.1836 14.5938C89.9883 14.2031 89.9069 13.9427 89.9395 13.8125L89.9883 13.4219C90.2161 12.8685 90.6393 12.6243 91.2578 12.6895C92.1042 12.7871 92.9505 13.2754 93.7969 14.1543C93.7643 14.1543 93.748 14.1706 93.748 14.2031C93.2923 14.0729 92.9993 14.0078 92.8691 14.0078C92.7715 14.0404 92.7064 14.0404 92.6738 14.0078L92.625 14.1055C92.9831 14.7891 93.7318 15.1797 94.8711 15.2773L97.752 16.791L98.5332 16.8887C98.7936 16.6608 99.0378 16.5794 99.2656 16.6445H99.4121L99.7051 16.7422V16.8398C99.7051 16.9701 99.4447 17.1328 98.9238 17.3281C98.9238 17.3932 98.8099 17.4746 98.582 17.5723L98.6797 17.7188C98.3867 18.0443 98.2565 18.2559 98.2891 18.3535V18.5C98.3542 18.5977 98.7285 18.793 99.4121 19.0859C99.4121 19.151 99.6237 19.3301 100.047 19.623C100.958 19.1999 101.528 18.9883 101.756 18.9883C102.146 19.0534 102.342 19.3138 102.342 19.7695C102.016 20.5182 101.43 21.5924 100.584 22.9922V23.3828C100.519 23.806 100.747 24.3105 101.268 24.8965C101.463 25.1569 101.593 25.6452 101.658 26.3613C102.277 26.8822 103.774 28.4284 106.15 31C106.411 31.2604 106.818 31.6836 107.371 32.2695H107.469C106.915 31.2279 106.655 30.5605 106.688 30.2676L106.834 30.2188C108.429 32.237 109.308 33.2624 109.471 33.2949C109.601 33.4577 110.04 33.6367 110.789 33.832C110.952 33.474 111.049 33.1159 111.082 32.7578C111.147 32.2695 111.049 30.8698 110.789 28.5586C110.757 28.0052 110.74 27.7122 110.74 27.6797C111.196 25.7917 111.44 24.7012 111.473 24.4082C111.57 23.1387 111.538 21.5762 111.375 19.7207C111.44 19.1999 111.31 18.3861 110.984 17.2793V17.1816C111.017 16.8236 111.375 16.026 112.059 14.7891C112.091 14.6589 112.449 13.8288 113.133 12.2988C113.816 9.07617 114.142 7.41602 114.109 7.31836L114.061 6.87891V6.53711C114.093 6.37435 114.142 6.26042 114.207 6.19531C114.305 5.1862 114.158 4.35612 113.768 3.70508C113.702 3.44466 113.702 2.97266 113.768 2.28906L113.816 2.24023C113.816 2.20768 113.8 2.19141 113.768 2.19141C113.833 0.954427 114.126 0.287109 114.646 0.189453C114.907 0.156901 115.053 0.140625 115.086 0.140625ZM95.75 19.0371C95.9453 19.2975 96.3685 19.5579 97.0195 19.8184L96.9707 20.0137C96.9707 20.0462 96.9219 20.2253 96.8242 20.5508L96.7754 20.9414C96.7428 21.2669 97.1172 21.625 97.8984 22.0156C97.8659 22.7969 98.0612 24.6523 98.4844 27.582H98.5332L98.582 27.4355C98.6797 24.1152 98.7122 22.0156 98.6797 21.1367C97.9635 20.9414 97.5566 20.8112 97.459 20.7461L97.5566 20.3555L97.6055 20.1113C97.638 19.623 97.0195 19.265 95.75 19.0371ZM101.658 26.8496C101.658 27.0124 101.87 27.8424 102.293 29.3398C102.26 29.8607 102.586 30.7559 103.27 32.0254C103.27 32.2207 103.628 32.6927 104.344 33.4414C104.344 33.8646 104.604 34.5319 105.125 35.4434L105.174 35.5898L104.832 35.7363H104.686C104.295 35.7038 103.986 35.3294 103.758 34.6133C103.628 34.3203 103.221 33.9622 102.537 33.5391C102.342 33.5065 102.179 32.9043 102.049 31.7324C102.114 31.4069 101.886 30.821 101.365 29.9746H101.268V30.1699C101.658 32.3835 102.228 34.0924 102.977 35.2969C103.27 36.1432 103.79 37.6243 104.539 39.7402C105.092 40.3587 105.662 41.8398 106.248 44.1836C107.29 45.2904 107.811 45.9414 107.811 46.1367H107.908C108.136 45.1602 108.283 44.1185 108.348 43.0117C108.087 41.6445 107.632 38.8939 106.98 34.7598C106.72 33.5879 105.857 31.9928 104.393 29.9746C103.416 29.0957 102.505 28.054 101.658 26.8496ZM116.111 32.416L116.062 32.5625C116.03 33.6693 115.949 34.8086 115.818 35.9805L115.867 36.0781L115.916 36.4688C115.656 38.0964 115.346 38.9102 114.988 38.9102C114.695 38.8125 114.516 38.7637 114.451 38.7637L114.256 39.0078C115.395 42.8164 115.916 45.2741 115.818 46.3809H115.867L115.965 44.8184C116.095 43.3861 116.014 41.7747 115.721 39.9844C115.688 39.8542 115.883 39.724 116.307 39.5938C116.339 39.5612 116.355 39.4798 116.355 39.3496L116.453 37.9824C116.551 36.5827 116.453 34.7272 116.16 32.416H116.111ZM107.518 34.2227C107.908 35.1341 108.25 36.6152 108.543 38.666C108.543 38.9264 108.576 39.0566 108.641 39.0566V38.8613C108.673 38.4056 108.82 37.5755 109.08 36.3711L107.518 34.2227ZM113.719 42.6699L113.67 42.9141C113.637 43.0768 113.963 44.2161 114.646 46.332C115.037 48.6107 115.184 50.1732 115.086 51.0195L115.135 51.0684L115.232 50.4336C114.907 46.2344 114.516 43.6628 114.061 42.7188L113.719 42.6699ZM103.514 43.9395V44.0371C104.067 45.5345 104.767 46.5111 105.613 46.9668C107.143 48.3014 108.38 49.5547 109.324 50.7266C109.715 51.2474 109.943 51.6706 110.008 51.9961L110.057 52.0449L110.105 51.8984C109.878 50.6615 107.957 48.3503 104.344 44.9648C104.344 44.8997 104.067 44.5579 103.514 43.9395ZM96.9219 47.6992L96.9707 47.9434C96.873 48.6595 97.1009 49.5059 97.6543 50.4824C97.9473 50.5801 98.0612 51.1497 97.9961 52.1914L99.0215 58.3438C99.347 60.3294 99.9492 62.4616 100.828 64.7402C100.958 65.4564 101.137 66.026 101.365 66.4492C101.756 68.1419 102.439 69.8346 103.416 71.5273C104.035 72.4388 104.474 72.9596 104.734 73.0898H104.783C103.188 70.1602 102.212 67.6536 101.854 65.5703C101.658 65.2773 101.349 64.138 100.926 62.1523C100.796 61.7617 100.405 60.1178 99.7539 57.2207C99.7539 56.2767 99.7376 55.8047 99.7051 55.8047L99.8027 55.5117L99.8516 55.4141C99.8516 55.0885 99.8678 54.5677 99.9004 53.8516H99.9492C99.9492 53.819 99.9329 53.8027 99.9004 53.8027C99.9004 53.6074 100.047 52.8099 100.34 51.4102C100.275 51.4102 100.193 51.4264 100.096 51.459C98.8587 50.9056 97.9635 49.9453 97.4102 48.5781C97.2148 48.0247 97.0521 47.7318 96.9219 47.6992ZM94.2852 51.2637L94.2363 51.3125C95.0501 50.8568 95.6361 50.6452 95.9941 50.6777H96.1895L96.1406 50.6289C96.043 50.043 95.929 49.7663 95.7988 49.7988L95.6523 49.75C95.1641 50.043 94.7083 50.5475 94.2852 51.2637ZM115.428 56.8789C115.493 57.4974 115.542 57.888 115.574 58.0508L115.477 58.8809C115.444 59.1087 115.395 59.4017 115.33 59.7598L115.281 59.8574H115.379C115.932 58.8809 116.225 58.0182 116.258 57.2695C116.323 56.8464 116.16 56.6185 115.77 56.5859C115.542 56.7161 115.428 56.8138 115.428 56.8789ZM111.375 58.002C111.961 60.1829 112.173 62.1686 112.01 63.959L111.863 65.9609L111.912 66.0098C112.27 64.5124 112.498 63.1615 112.596 61.957L112.645 61.3223C112.417 59.7272 112.01 58.6204 111.424 58.002H111.375ZM112.693 67.6699V67.8164C112.758 68.0117 112.856 68.1094 112.986 68.1094C113.54 68.0443 114.305 67.6048 115.281 66.791L115.33 66.498C115.363 65.9772 115.167 65.6842 114.744 65.6191H114.695C114.402 65.554 113.963 65.9121 113.377 66.6934C113.117 66.6608 112.889 66.9863 112.693 67.6699ZM112.449 68.3047L112.156 69.3301C112.612 68.9069 112.84 68.6302 112.84 68.5C112.677 68.4023 112.547 68.3372 112.449 68.3047ZM97.8008 74.5547H97.9961C98.4193 74.5872 98.6146 74.7826 98.582 75.1406C98.2891 75.987 97.9798 76.5729 97.6543 76.8984C97.2311 76.4753 97.0358 75.987 97.0684 75.4336L97.1172 75.1406C97.1823 74.7174 97.4102 74.5221 97.8008 74.5547ZM112.156 85.7852C112.482 85.8177 112.677 86.0944 112.742 86.6152L112.791 86.7129C112.726 87.0059 112.596 87.1849 112.4 87.25C112.205 87.1198 111.912 86.7617 111.521 86.1758L111.57 85.9805C111.603 85.8828 111.798 85.8177 112.156 85.7852ZM149.096 11.8594H149.779C150.365 11.8594 151.081 11.957 151.928 12.1523C152.286 12.1198 152.579 12.1035 152.807 12.1035H153.002C153.588 12.1035 154.63 12.5592 156.127 13.4707C157.038 14.0241 157.836 14.6751 158.52 15.4238C159.724 16.6934 160.326 17.5723 160.326 18.0605C160.977 19.3952 161.303 20.5345 161.303 21.4785C162.149 24.278 162.572 27.3867 162.572 30.8047C162.247 32.6927 161.677 34.2715 160.863 35.541C160.375 36.127 160.131 36.8594 160.131 37.7383C159.968 38.0964 159.805 39.138 159.643 40.8633C159.382 41.9049 158.878 42.4258 158.129 42.4258H157.885C157.494 42.1979 157.299 41.8398 157.299 41.3516C157.299 40.8633 157.689 39.9518 158.471 38.6172C158.471 38.3568 158.536 37.9824 158.666 37.4941C158.471 36.5501 158.194 36.0781 157.836 36.0781C157.608 36.1432 157.494 36.2897 157.494 36.5176V37.0547H157.348C156.664 35.8177 156.322 35.1178 156.322 34.9551C156.322 34.9225 156.306 34.7109 156.273 34.3203C156.273 33.9948 156.355 33.1647 156.518 31.8301C156.518 31.472 156.306 30.9837 155.883 30.3652L155.346 28.8027C155.313 28.7376 155.297 28.5911 155.297 28.3633V26.2148H155.395C155.492 26.9961 155.655 27.8099 155.883 28.6562L155.98 28.6074C156.111 28.9655 156.176 29.2096 156.176 29.3398H156.273C156.436 29.2747 156.534 28.9167 156.566 28.2656V25.4336C156.566 24.1966 156.225 23.3014 155.541 22.748C154.988 21.9017 154.353 21.3646 153.637 21.1367H153.393C152.481 21.2018 151.749 21.4622 151.195 21.918C150.577 22.9922 150.268 23.7897 150.268 24.3105V26.7031C150.268 26.8659 150.3 26.9798 150.365 27.0449L150.268 27.4355V28.998H150.17C149.975 28.3796 149.747 27.9889 149.486 27.8262H149.389C148.9 28.2168 148.656 28.7539 148.656 29.4375C148.754 29.8607 148.803 30.1862 148.803 30.4141V31.2441C148.021 33.7181 147.37 34.9551 146.85 34.9551C145.548 36.3548 144.685 37.6406 144.262 38.8125H144.115C144.376 37.6732 144.571 36.5827 144.701 35.541H144.555C144.099 36.2897 143.367 38.2266 142.357 41.3516C142.618 41.8724 142.813 42.1491 142.943 42.1816C143.92 42.084 144.441 42.0352 144.506 42.0352H145.824C148.298 42.0352 150.17 42.4421 151.439 43.2559C152.611 43.5163 153.458 43.9069 153.979 44.4277C154.271 44.8509 155.069 45.6159 156.371 46.7227C157.12 47.7969 157.901 49.4408 158.715 51.6543L158.861 52.6309L158.812 52.7773C158.812 52.8099 158.829 52.8262 158.861 52.8262C158.796 54.0957 158.731 54.7305 158.666 54.7305C158.796 55.1211 158.878 55.5931 158.91 56.1465C158.91 56.2767 158.699 57.5462 158.275 59.9551C158.275 62.2012 157.868 63.6172 157.055 64.2031C157.055 64.3008 156.371 65.554 155.004 67.9629C154.711 68.7441 154.19 69.8021 153.441 71.1367C152.888 72.7969 152.449 73.627 152.123 73.627C151.472 74.278 150.984 74.6849 150.658 74.8477C149.519 76.4427 148.526 77.2402 147.68 77.2402C146.671 77.8913 145.824 78.2168 145.141 78.2168H144.555C144.49 78.2168 144.408 78.1354 144.311 77.9727V77.8262C144.311 77.2077 144.701 76.8333 145.482 76.7031C145.645 76.7031 145.889 76.7357 146.215 76.8008C146.475 76.6706 146.817 76.6055 147.24 76.6055H147.729C148.9 76.1823 149.812 75.3848 150.463 74.2129L150.658 73.8711H150.609C149.438 74.4896 148.07 75.0104 146.508 75.4336C144.359 75.5312 143.285 75.7266 143.285 76.0195C142.927 76.3125 142.406 76.459 141.723 76.459C139.835 76.459 138.386 75.7754 137.377 74.4082C136.726 73.2689 136.368 72.6829 136.303 72.6504H136.205L136.84 74.9941V75.043L136.693 75.0918C136.335 74.7663 135.977 74.1641 135.619 73.2852C134.187 71.9831 133.161 69.2324 132.543 65.0332H132.494C132.494 65.6517 132.478 65.9609 132.445 65.9609L132.494 66.2539V66.4004C132.494 68.321 132.95 70.7949 133.861 73.8223C134.415 74.8639 134.838 75.4661 135.131 75.6289C135.131 75.7591 135.57 75.987 136.449 76.3125C136.71 76.5729 136.84 76.8659 136.84 77.1914V77.2891C136.84 77.6146 136.563 77.8424 136.01 77.9727H135.912C135.066 77.8099 134.415 77.4518 133.959 76.8984C133.178 75.6289 132.608 74.0827 132.25 72.2598C132.087 71.7389 131.827 70.6973 131.469 69.1348C131.371 69.1348 130.85 67.4421 129.906 64.0566H129.809V64.5938C129.809 65.5703 129.857 66.3027 129.955 66.791H129.906C129.939 66.8887 129.955 66.9538 129.955 66.9863C129.955 67.5072 130.281 69.7533 130.932 73.7246L130.785 73.8223C130.395 73.1712 130.004 71.6087 129.613 69.1348C129.158 67.2467 128.93 65.8633 128.93 64.9844H128.979L128.93 64.8379C128.93 64.8053 128.946 64.7891 128.979 64.7891C128.979 64.724 128.962 64.6914 128.93 64.6914L128.979 64.3008C129.206 60.6224 129.32 57.9694 129.32 56.3418C129.516 55.0397 130.069 52.5658 130.98 48.9199C130.98 48.6921 131.176 48.0736 131.566 47.0645C131.566 46.153 131.729 45.1276 132.055 43.9883L132.299 42.4258L132.25 42.3281V42.1816C132.25 42.1491 132.266 42.1328 132.299 42.1328L132.25 41.9863V40.9609L132.152 40.1797H132.104C132.104 40.4401 131.632 41.8236 130.688 44.3301C130.688 44.3952 130.378 45.7624 129.76 48.4316H129.613C130.069 44.1348 130.622 40.4727 131.273 37.4453C131.957 36.1758 132.689 34.6296 133.471 32.8066C134.577 31.2441 135.375 30.2188 135.863 29.7305C136.352 28.819 137.735 26.7845 140.014 23.627C140.958 21.8691 141.43 20.3717 141.43 19.1348C141.43 18.1257 141.234 17.6211 140.844 17.6211H140.453C139.932 17.6211 139.558 17.9954 139.33 18.7441C139.33 19.1999 139.542 19.8184 139.965 20.5996V20.7949C139.965 21.153 139.656 21.4785 139.037 21.7715H138.939C138.484 21.7715 138.256 21.4134 138.256 20.6973V20.3066C138.256 19.8509 138.679 18.6953 139.525 16.8398C141.12 14.8542 142.113 13.8613 142.504 13.8613C144.424 12.7871 145.759 12.25 146.508 12.25C146.508 12.1523 147.37 12.0221 149.096 11.8594ZM147.045 12.8359V12.8848C147.956 12.8848 148.673 13.015 149.193 13.2754H149.633C149.633 13.2103 149.438 13.015 149.047 12.6895H148.412C148.021 12.6895 147.566 12.7383 147.045 12.8359ZM142.602 15.6191V15.668H142.699C143.578 14.9518 144.864 14.5938 146.557 14.5938C147.403 14.3008 147.826 14.0729 147.826 13.9102V13.666L147.045 13.4707C146.296 13.4707 145.238 13.7799 143.871 14.3984C143.22 14.8867 142.797 15.2936 142.602 15.6191ZM153.539 17.8164V17.8652C154.125 19.2324 154.581 19.916 154.906 19.916C154.906 19.9486 154.923 19.9648 154.955 19.9648H155.004C154.581 19.151 154.092 18.4349 153.539 17.8164ZM149.242 21.1855C149.242 21.2832 149.291 21.5273 149.389 21.918H149.486C150.626 20.974 151.732 20.502 152.807 20.502C152.839 20.502 152.921 20.5182 153.051 20.5508V20.502C152.758 20.209 152.416 19.5091 152.025 18.4023C151.798 18.1745 151.602 18.0605 151.439 18.0605H151.342C150.593 18.0605 149.91 18.8906 149.291 20.5508C149.258 20.7135 149.242 20.9251 149.242 21.1855ZM142.016 18.4023V18.4512L142.113 19.2324C142.113 21.2507 140.762 24.0501 138.061 27.6309C137.702 28.1842 137.475 28.5586 137.377 28.7539H137.426C139.151 26.6055 140.014 25.4987 140.014 25.4336C140.437 24.2943 141.088 23.1712 141.967 22.0645C142.195 21.5762 142.309 21.153 142.309 20.7949L142.211 20.5508C142.406 20.2578 142.504 19.8672 142.504 19.3789C142.504 19.151 142.341 18.8255 142.016 18.4023ZM135.912 32.7578V32.8066H136.01C136.465 32.0254 137.149 30.9349 138.061 29.5352C138.288 29.3073 138.484 28.998 138.646 28.6074V28.5586C136.824 30.5768 135.912 31.9766 135.912 32.7578ZM147.533 30.1211C147.37 30.5443 147.289 31.1465 147.289 31.9277V32.8066C147.289 32.8717 147.273 32.9043 147.24 32.9043C147.24 32.9368 147.257 32.9531 147.289 32.9531C147.289 33.0182 147.24 33.1973 147.143 33.4902H147.289C147.647 32.709 147.826 32.0579 147.826 31.5371V31.4395C147.826 31.2116 147.777 30.7721 147.68 30.1211H147.533ZM133.471 49.6523V50.2871C133.471 50.3848 133.52 50.4336 133.617 50.4336C134.236 45.4206 134.789 42.3607 135.277 41.2539C135.766 39.5286 136.335 37.9824 136.986 36.6152C137.019 36.3548 137.035 36.1758 137.035 36.0781L136.986 35.4922C137.312 34.1901 137.54 33.1484 137.67 32.3672C136.726 33.5391 135.717 36.1758 134.643 40.2773C134.024 43.0443 133.715 44.8021 133.715 45.5508L133.471 49.6523ZM157.25 33.3926V33.6855C157.25 33.9134 157.283 34.2389 157.348 34.6621H157.494L157.445 34.5156C157.445 34.4831 157.462 34.4668 157.494 34.4668C157.494 34.4017 157.478 34.3691 157.445 34.3691C157.478 33.946 157.543 33.5553 157.641 33.1973H157.445C157.38 33.1973 157.315 33.2624 157.25 33.3926ZM140.844 49.457C140.909 49.6523 140.941 49.929 140.941 50.2871C142.667 48.2038 144.734 47.1621 147.143 47.1621C149.519 47.1621 151.391 47.748 152.758 48.9199V47.4551C152.335 46.1204 151.667 45.1764 150.756 44.623C150.007 44.2324 149.389 44.0371 148.9 44.0371H148.852C146.996 44.0371 146.068 44.1999 146.068 44.5254C145.45 44.9486 144.604 45.4368 143.529 45.9902C143.464 46.446 142.699 47.4225 141.234 48.9199C141.039 49.278 140.909 49.457 140.844 49.457ZM153.002 45.502C153.523 46.5111 153.783 47.0645 153.783 47.1621C153.751 48.1387 153.734 48.7734 153.734 49.0664C153.832 49.5872 154.092 49.8477 154.516 49.8477V49.75C154.516 47.8945 154.06 46.4948 153.148 45.5508L153.002 45.502ZM140.014 53.3633C140.014 54.3724 140.583 55.4303 141.723 56.5371C142.276 56.9277 143.855 57.5951 146.459 58.5391C147.403 59.0273 148.266 59.7598 149.047 60.7363C149.047 60.834 149.096 60.8828 149.193 60.8828C149.193 60.7852 149.21 60.7363 149.242 60.7363C149.21 60.1504 149.193 59.7272 149.193 59.4668V58.5391C149.193 58.2135 149.486 57.9043 150.072 57.6113C150.854 56.8626 151.244 55.8047 151.244 54.4375C152.416 52.8424 153.002 51.5078 153.002 50.4336C151.863 48.5781 149.828 47.6504 146.898 47.6504C144.717 47.6504 142.797 48.7246 141.137 50.873C140.909 50.873 140.714 51.3125 140.551 52.1914C140.193 52.4518 140.014 52.8424 140.014 53.3633ZM152.416 53.998C152.416 54.4538 152.058 55.6582 151.342 57.6113L150.805 58.2949H150.854C151.57 57.7415 152.074 57.0905 152.367 56.3418L152.562 55.3164C152.562 55.2513 152.546 55.2188 152.514 55.2188L152.562 54.9258V54.7793L152.514 54.4375H152.562C152.53 54.4049 152.514 54.2585 152.514 53.998H152.416ZM131.078 55.4141C130.688 57.2695 130.362 59.5319 130.102 62.2012C130.232 63.0801 130.688 64.9844 131.469 67.9141H131.518V67.7676C131.518 66.1074 131.404 64.3659 131.176 62.543L131.127 61.6641H131.176C131.176 61.6315 131.16 61.6152 131.127 61.6152L131.176 61.2734V59.7109C131.176 59.6133 131.16 59.5319 131.127 59.4668C131.127 59.4017 131.143 59.3691 131.176 59.3691L131.127 59.0762V57.8066L131.078 57.416L131.127 57.3184L131.078 57.1719C131.111 57.0091 131.127 56.9277 131.127 56.9277C131.127 56.8626 131.111 56.8301 131.078 56.8301L131.127 56.3906V55.4141H131.078ZM141.381 57.1719C141.609 59.3529 142.471 61.7129 143.969 64.252C144.132 64.903 144.457 65.4401 144.945 65.8633C145.727 66.2214 146.459 66.4655 147.143 66.5957C148.51 65.847 149.193 64.5286 149.193 62.6406C148.445 61.0456 147.322 59.8574 145.824 59.0762C143.611 58.2624 142.146 57.6276 141.43 57.1719H141.381ZM138.744 60.8828L138.793 61.4688C138.695 61.8594 138.646 62.1849 138.646 62.4453V62.6406C138.646 63.0638 138.956 63.4056 139.574 63.666C139.607 63.666 139.883 63.6497 140.404 63.6172C140.697 63.6172 140.844 63.8125 140.844 64.2031V64.252C140.844 64.4147 140.616 64.5449 140.16 64.6426C139.835 64.6426 139.493 64.5124 139.135 64.252V64.3008C139.623 65.1146 140.502 66.6608 141.771 68.9395C141.804 68.9395 141.885 69.1999 142.016 69.7207C142.374 69.7207 142.732 69.1836 143.09 68.1094C143.09 67.9466 143.122 67.6374 143.188 67.1816C143.188 66.2051 142.715 64.61 141.771 62.3965C141.771 62.1361 141.267 61.1107 140.258 59.3203C139.965 58.9297 139.721 58.7344 139.525 58.7344C139.2 58.9948 138.939 59.7109 138.744 60.8828ZM155.59 63.0801H155.688C155.948 63.0801 156.241 62.3965 156.566 61.0293C156.013 61.8757 155.688 62.5592 155.59 63.0801ZM143.969 68.4023C143.969 69.3789 143.708 70.1764 143.188 70.7949V70.8926L143.676 70.9414H143.773C143.936 70.9414 144.099 70.681 144.262 70.1602V69.1348C144.132 68.7116 144.066 68.4674 144.066 68.4023H143.969ZM142.113 70.0137C142.341 70.3717 142.602 70.5508 142.895 70.5508C143.155 69.8997 143.285 69.444 143.285 69.1836C142.797 69.737 142.406 70.0137 142.113 70.0137ZM149.828 69.5742C149.828 71.1042 148.982 72.4876 147.289 73.7246V73.8223H147.338C148.77 73.2038 149.486 72.6504 149.486 72.1621C149.779 71.7715 149.942 71.3809 149.975 70.9902V69.7207C149.975 69.623 149.926 69.5742 149.828 69.5742ZM137.963 77.2402C138.386 77.3053 138.598 77.5007 138.598 77.8262C138.467 78.1191 138.272 78.2656 138.012 78.2656H137.816C137.589 78.2656 137.393 78.1354 137.23 77.875V77.6309C137.361 77.3704 137.605 77.2402 137.963 77.2402Z" fill="white"/>
</svg>
