<svg width="244" height="111" viewBox="0 0 244 111" fill="none" xmlns="http://www.w3.org/2000/svg">
<path d="M33.543 0.201172H33.6406C34.7474 0.103516 35.5286 0.445312 35.9844 1.22656C36.4401 2.20312 37.4655 3.7819 39.0605 5.96289C39.3535 6.74414 40.2324 7.86719 41.6973 9.33203C42.5436 10.4714 43.1458 13.2057 43.5039 17.5352C43.8945 19.3255 44.1224 20.5625 44.1875 21.2461C44.2526 22.0273 44.334 22.5319 44.4316 22.7598C44.4316 22.8574 44.4154 22.9551 44.3828 23.0527L44.7734 25.5918L44.7246 26.0312C44.8223 26.3893 44.8874 26.6009 44.9199 26.666C44.9199 26.7637 44.9036 26.8451 44.8711 26.9102C44.9688 27.724 45.0339 28.2611 45.0664 28.5215C45.099 29.0423 45.1152 30.263 45.1152 32.1836L45.2617 33.9902C45.2943 34.2832 45.1803 36.0736 44.9199 39.3613C45.0176 40.7611 44.7734 43.0885 44.1875 46.3438V46.3926H44.2363C45.3757 42.6816 46.4661 39.9798 47.5078 38.2871H47.5566L47.6055 38.3848C47.1823 40.3379 46.1732 44.0326 44.5781 49.4688V49.7617C44.8711 49.9245 45.0176 50.1035 45.0176 50.2988C44.7246 51.666 44.5944 52.5286 44.627 52.8867L44.6758 53.3262C44.7083 53.7168 44.7897 54.0911 44.9199 54.4492C45.3757 53.9935 45.9941 52.7728 46.7754 50.7871C47.1009 50.071 47.6706 49.6803 48.4844 49.6152H48.6797C49.0703 49.5827 49.3307 49.6966 49.4609 49.957L49.5098 50.2988C49.4772 50.5918 49.0215 52.0566 48.1426 54.6934C47.8496 56.8743 47.2799 58.388 46.4336 59.2344C44.6758 61.7409 43.8457 63.5801 43.9434 64.752C43.8132 65.4681 43.4388 66.4121 42.8203 67.584C42.7227 67.9095 42.6901 68.2676 42.7227 68.6582L42.7715 69.4395C42.8366 70.0905 41.974 70.8392 40.1836 71.6855C39.5 72.1738 39.1745 72.7435 39.207 73.3945C39.2396 73.4271 39.321 73.6387 39.4512 74.0293C41.5996 73.3783 43.2923 72.2389 44.5293 70.6113C44.8223 70.4811 45.0501 70.3997 45.2129 70.3672C45.8965 70.4648 46.2546 70.709 46.2871 71.0996V71.3438C46.3197 71.8646 45.7012 72.3529 44.4316 72.8086C43.5527 73.2969 41.7786 74.1107 39.1094 75.25C39.1419 75.4128 38.6536 75.6569 37.6445 75.9824C37.3841 76.4382 37.1888 76.9915 37.0586 77.6426C36.0495 78.4238 35.4798 79.2214 35.3496 80.0352H35.4473C36.4889 79.4492 38.5234 78.5703 41.5508 77.3984C42.4948 76.3242 43.0482 75.7708 43.2109 75.7383C43.5039 75.6406 43.6992 75.5755 43.7969 75.543H43.9922C44.7083 75.4779 45.1641 75.7057 45.3594 76.2266C45.457 77.1055 45.2129 77.5775 44.627 77.6426H44.4316L43.9434 77.5938C43.097 77.6589 41.1764 78.3262 38.1816 79.5957C36.7493 80.5397 35.61 81.0443 34.7637 81.1094C34.5033 81.2396 33.9661 81.7767 33.1523 82.7207C32.4688 83.1764 32.1595 83.7624 32.2246 84.4785C32.0293 85.0645 31.4271 85.7806 30.418 86.627L28.4648 89.5566C28.3672 89.9473 28.3184 90.1589 28.3184 90.1914C29.3926 89.1172 30.2389 88.3685 30.8574 87.9453C31.3457 87.2617 31.9479 86.6595 32.6641 86.1387C32.6641 84.153 33.0547 83.1276 33.8359 83.0625C33.8359 82.9974 33.901 82.9648 34.0312 82.9648C34.8776 83.1927 35.3171 83.4043 35.3496 83.5996V83.7949C34.7962 85.3249 34.5358 86.1387 34.5684 86.2363C34.5684 86.3991 34.0312 86.7409 32.957 87.2617C32.5339 87.7826 31.7526 88.3359 30.6133 88.9219C29.8971 89.4102 29.5553 89.7845 29.5879 90.0449C29.3275 91.64 28.6439 92.4863 27.5371 92.584C27.2441 92.6816 26.8535 92.7467 26.3652 92.7793C26.1048 92.8118 25.4212 92.8118 24.3145 92.7793C22.9798 93.0072 22.166 93.1374 21.873 93.1699C21.5801 93.2025 20.7012 93.0885 19.2363 92.8281C18.6504 92.8932 17.5599 92.6491 15.9648 92.0957C15.737 91.9004 15.2161 91.5586 14.4023 91.0703C13.6862 90.0938 13.0189 89.4753 12.4004 89.2148C12.2376 89.0195 12.0423 88.4173 11.8145 87.4082C10.7728 85.7155 9.92643 83.9089 9.27539 81.9883H9.22656L9.08008 82.0859C9.69857 84.9505 10.431 87.1641 11.2773 88.7266L12.9863 92.7305C13.7676 93.3164 14.1745 93.7721 14.207 94.0977L14.2559 94.3906C14.2884 94.8138 13.9141 95.1393 13.1328 95.3672C12.026 95.4648 10.9681 93.6582 9.95898 89.9473C9.4707 89.166 9.16146 88.0104 9.03125 86.4805L8.68945 85.2109V84.8691C8.55924 83.2415 8.23372 82.2161 7.71289 81.793C6.89909 81.0768 6.10156 80.6374 5.32031 80.4746C4.92969 80.4095 4.66927 80.3932 4.53906 80.4258V80.3281C4.57161 80.1654 4.75065 80.0677 5.07617 80.0352H5.51562C6.00391 79.9701 6.70378 80.1165 7.61523 80.4746V80.3281L6.93164 76.666C6.99674 75.3314 6.99674 74.4199 6.93164 73.9316C6.83398 72.5645 6.60612 71.8809 6.24805 71.8809C5.4668 71.3926 5.0599 71.002 5.02734 70.709C5.0599 70.709 5.07617 70.6764 5.07617 70.6113C6.11784 71.002 6.67122 71.1973 6.73633 71.1973C6.70378 71.0671 6.63867 70.4811 6.54102 69.4395C6.54102 68.4954 6.52474 67.8281 6.49219 67.4375C6.49219 67.2422 6.18294 66.9167 5.56445 66.4609L5.41797 66.1191C5.67839 65.0124 5.79232 64.2637 5.75977 63.873C5.59701 63.0918 5.51562 62.5547 5.51562 62.2617C5.74349 60.7318 5.84115 59.7389 5.80859 59.2832V59.1367C5.80859 59.0391 5.49935 58.4857 4.88086 57.4766C4.84831 57.0859 5.25521 56.8092 6.10156 56.6465H6.63867C7.15951 56.5814 7.38737 55.8164 7.32227 54.3516C6.89909 49.957 6.49219 47.776 6.10156 47.8086C5.8737 47.4831 5.30404 47.3529 4.39258 47.418C4.36003 47.3854 4.01823 47.3854 3.36719 47.418L3.2207 47.4668L3.12305 47.418C2.37435 47.4831 1.51172 47.7109 0.535156 48.1016V48.0527C1.08854 47.3366 2.22786 46.7507 3.95312 46.2949C4.70182 46.0345 5.51562 45.6276 6.39453 45.0742C7.53385 44 8.08724 43.2676 8.05469 42.877C8.21745 42.5514 8.5918 41.2331 9.17773 38.9219C9.50326 37.9128 9.97526 36.0736 10.5938 33.4043C11.4727 31.2233 12.0911 29.0911 12.4492 27.0078C13.9466 23.1667 14.6465 20.6602 14.5488 19.4883C14.8092 18.0234 15.1673 17.2747 15.623 17.2422C16.4694 16.7214 16.8763 16.4121 16.8438 16.3145C16.9089 13.5801 17.0391 11.8874 17.2344 11.2363V11.041L17.3809 10.9922C17.8366 14.5404 18.2272 16.2982 18.5527 16.2656C18.5527 16.3958 18.7643 16.7214 19.1875 17.2422C19.5456 16.9492 20.1152 16.4609 20.8965 15.7773C21.0267 15.6471 21.1895 15.582 21.3848 15.582L21.5801 15.5332C21.9382 15.5007 22.5241 15.9076 23.3379 16.7539C23.6634 16.9492 23.9076 17.0306 24.0703 16.998L26.4141 15.6797V15.5332V15.3867C26.349 14.7357 25.7142 14.1172 24.5098 13.5312C23.696 13.043 22.7682 12.1478 21.7266 10.8457C20.1641 9.05534 19.2363 7.80208 18.9434 7.08594H19.041C19.041 7.15104 20.2292 8.19271 22.6055 10.2109L24.2168 11.7246C25.2259 12.4733 26.4303 12.7826 27.8301 12.6523C28.6439 12.6849 29.8971 13.0592 31.5898 13.7754C33.6732 14.166 34.7311 14.3613 34.7637 14.3613C36.4889 14.6868 37.7585 15.3704 38.5723 16.4121C39.1582 17.2259 39.5651 18.9674 39.793 21.6367C41.3555 25.3802 42.3483 29.7422 42.7715 34.7227C42.9993 35.3737 43.1296 35.8783 43.1621 36.2363L43.2109 36.4805C43.4388 36.4805 43.4062 34.332 43.1133 30.0352C43.1784 29.3516 43.1458 28.082 43.0156 26.2266C42.8854 24.4036 42.1693 22.5482 40.8672 20.6602C40.7044 20.3672 40.623 20.0579 40.623 19.7324C40.5579 19.1465 40.8346 18.6745 41.4531 18.3164C40.9648 15.5169 40.5905 14.1335 40.3301 14.166C40.1348 13.6126 39.6139 12.5384 38.7676 10.9434C38.084 9.25065 37.1237 7.85091 35.8867 6.74414C33.0872 4.79102 31.6549 3.32617 31.5898 2.34961V2.20312C31.4922 1.25911 32.1432 0.591797 33.543 0.201172ZM27.3418 23.0527C27.3418 23.1829 27.8138 23.8991 28.7578 25.2012C29.3438 25.5592 29.8483 27.724 30.2715 31.6953C30.3366 32.0534 30.3854 32.3301 30.418 32.5254C30.3203 35.7806 30.3203 38.043 30.418 39.3125C31.1992 42.2096 32.0944 44.7161 33.1035 46.832C33.6243 48.1016 34.5521 49.306 35.8867 50.4453L36.3262 50.7383H36.375C36.9935 49.5013 36.9121 44.3418 36.1309 35.2598C35.8379 33.4694 35.6751 32.4603 35.6426 32.2324C35.6426 32.0046 35.6426 31.8092 35.6426 31.6465C35.0892 28.6517 34.7637 26.5521 34.666 25.3477L34.5195 23.9805C34.4544 23.1016 33.9824 22.4017 33.1035 21.8809C32.6152 21.2949 32.0293 21.0345 31.3457 21.0996C30.4668 21.1647 29.7507 21.6855 29.1973 22.6621L28.9043 22.9062L28.8066 22.9551L28.7578 22.5645C28.7904 21.002 29.1973 20.1882 29.9785 20.123H30.0273C30.5482 20.0905 31.3294 20.237 32.3711 20.5625C32.013 19.8789 31.362 19.5697 30.418 19.6348L29.8809 19.6836C29.1973 19.7487 28.4486 20.4974 27.6348 21.9297C27.4069 22.418 27.3092 22.7923 27.3418 23.0527ZM14.1094 34.2832H14.0605C14.028 34.153 14.1257 33.5833 14.3535 32.5742V32.4766H14.3047L13.2793 34.1855C12.3678 37.4082 11.9121 39.7357 11.9121 41.168C11.8145 41.5911 11.7819 42.0306 11.8145 42.4863C12.9863 40.5658 13.8652 38.694 14.4512 36.8711C15.1999 35.5365 15.8835 33.2253 16.502 29.9375C16.5996 29.0911 17.0879 28.1634 17.9668 27.1543C18.1947 26.8613 18.3411 26.5195 18.4062 26.1289C18.3737 25.8359 18.0319 25.4941 17.3809 25.1035C17.3809 24.9733 17.4948 24.6152 17.7227 24.0293C17.625 23.7363 17.5762 23.5573 17.5762 23.4922C17.1855 23.9479 16.4857 26.2266 15.4766 30.3281C14.9557 32.0859 14.5 33.4043 14.1094 34.2832ZM26.5605 36.8223L27.2441 38.4336C27.3092 39.0195 26.5931 40.2728 25.0957 42.1934C23.9238 44.1139 23.1426 46.5228 22.752 49.4199C22.2311 50.4616 22.0521 51.9264 22.2148 53.8145L22.3125 54.791C22.3451 55.0514 22.1823 55.8815 21.8242 57.2812C21.8242 59.1693 21.7917 60.9434 21.7266 62.6035C21.7591 62.8965 22.1172 63.4336 22.8008 64.2148L22.8496 64.8496C22.459 66.1517 21.8893 66.8353 21.1406 66.9004H21.0918C20.5059 66.9655 20.1641 66.6237 20.0664 65.875C19.9362 64.2474 20.0827 61.7572 20.5059 58.4043C20.5059 58.1113 20.5872 57.1999 20.75 55.6699C20.8802 54.5306 20.8965 53.1634 20.7988 51.5684C21.5475 48.0853 21.8242 45.2207 21.6289 42.9746C21.5638 42.6165 21.4824 42.4375 21.3848 42.4375H21.1406C20.3594 43.5443 19.8548 45.1393 19.627 47.2227L19.6758 47.6133C19.7083 48.1341 19.7572 48.541 19.8223 48.834C20.0827 51.7962 19.806 55.2467 18.9922 59.1855C18.9596 60.7806 18.862 61.5944 18.6992 61.627C17.6901 62.6361 17.1042 63.3359 16.9414 63.7266V63.8242C18.6667 68.9349 20.2617 72.418 21.7266 74.2734C21.7266 74.5339 23.1914 76.5358 26.1211 80.2793C26.2513 80.3444 26.5931 80.4095 27.1465 80.4746C28.9694 78.9447 29.7669 76.8451 29.5391 74.1758C29.3763 72.0273 30.0273 70.416 31.4922 69.3418L31.248 67.5352C31.1504 66.2982 31.2969 64.7845 31.6875 62.9941L31.7363 62.9453C32.0293 63.8893 32.2897 65.6471 32.5176 68.2188C32.5501 68.2188 32.5827 68.349 32.6152 68.6094C33.6243 67.2747 33.9173 64.166 33.4941 59.2832C33.4941 59.2507 33.5104 59.2344 33.543 59.2344L33.4941 59.0879L33.3477 57.7695L32.2246 54.1074C30.7272 47.9876 29.8483 43.3652 29.5879 40.2402C29.4902 39.3613 29.4251 38.7103 29.3926 38.2871C29.36 38.1243 29.36 37.9128 29.3926 37.6523C29.0671 35.5365 28.8392 34.4948 28.709 34.5273L28.0254 33.8926H27.9766C27.4232 33.9577 26.9349 34.7878 26.5117 36.3828L26.5605 36.8223ZM10.3008 51.8613V51.9102H10.3496C11.0332 48.8828 12.0098 46.3275 13.2793 44.2441C13.5723 43.3327 13.7025 42.6979 13.6699 42.3398C13.2793 42.6328 12.6445 43.5443 11.7656 45.0742C11.0495 47.5156 10.5612 49.778 10.3008 51.8613ZM30.9551 44.5371L31.0039 44.7324C31.1016 46.0996 32.1432 49.9408 34.1289 56.2559C34.8125 57.4277 35.3659 58.1439 35.7891 58.4043L35.7402 57.5742L35.6914 57.1348C35.2031 52.9681 34.8613 50.8848 34.666 50.8848C33.3639 49.8431 32.1595 47.776 31.0527 44.6836L31.0039 44.5371H30.9551ZM16.1602 65.9727C16.0625 66.3958 15.9811 66.6888 15.916 66.8516C16.1764 67.3073 16.4368 67.5677 16.6973 67.6328V67.5352C16.4043 66.5586 16.2578 66.0378 16.2578 65.9727H16.1602ZM18.4062 75.8359C18.7643 80.0677 20.0664 82.6882 22.3125 83.6973C22.3125 82.4603 22.2962 81.6302 22.2637 81.207C22.1009 79.4167 21.4499 77.2194 20.3105 74.6152C19.5944 73.6387 19.2201 73.1016 19.1875 73.0039C18.5365 73.069 18.276 74.013 18.4062 75.8359ZM22.9961 79.4492L23.0449 79.5957H23.1426V79.4492H22.9961ZM23.1426 79.6445V79.7422C23.2402 80.3932 23.3053 80.8815 23.3379 81.207C23.403 82.1836 23.3542 83.3392 23.1914 84.6738C23.2565 85.0645 23.3542 85.4062 23.4844 85.6992C24.4284 84.918 24.8841 84.3809 24.8516 84.0879C24.7539 83.0462 24.2005 81.5651 23.1914 79.6445H23.1426ZM21.4336 84.332C21.5638 84.5599 21.8242 84.8529 22.2148 85.2109H22.3125L22.2637 84.4785C22.0684 84.4785 21.7917 84.4297 21.4336 84.332ZM71.8965 15.3867H72.1406C72.8893 15.4844 73.2637 15.8262 73.2637 16.4121V16.6562C73.2637 17.6654 71.9616 19.3418 69.3574 21.6855C66.4928 24.2246 64.7025 25.6895 63.9863 26.0801V26.1289H64.0352C64.3932 25.9661 65.2396 25.4128 66.5742 24.4688H66.623V24.5176C66.3952 24.8757 66.2487 25.0547 66.1836 25.0547L66.2324 25.1523C66.2324 25.2174 65.4512 25.8685 63.8887 27.1055C62.5866 28.3424 61.9355 29.1562 61.9355 29.5469V29.791C61.9355 29.8561 62.0007 29.9212 62.1309 29.9863H62.2285C62.5866 29.9212 63.0423 29.6608 63.5957 29.2051H63.6445C63.4492 30.0514 62.8145 31.2233 61.7402 32.7207C62.196 32.9486 62.5215 33.4857 62.7168 34.332C62.7168 34.4622 62.4238 35.1296 61.8379 36.334C61.8379 37.1152 61.5286 38.0755 60.9102 39.2148C60.7474 39.2148 60.6009 40.582 60.4707 43.3164C59.7871 44.9766 59.4453 45.9857 59.4453 46.3438C60.2266 48.6549 60.8288 49.8105 61.252 49.8105C61.8053 50.2663 62.4889 50.4941 63.3027 50.4941L63.8887 50.4453C63.8887 50.6081 64.2142 50.7057 64.8652 50.7383C65.2559 50.6081 65.5814 50.4453 65.8418 50.25C66.2975 50.25 66.6556 50.0547 66.916 49.6641C68.2507 48.9154 68.918 48.2643 68.918 47.7109C69.0807 47.1901 69.2272 46.9134 69.3574 46.8809C69.4876 46.7507 69.6016 46.6855 69.6992 46.6855L69.6016 46.002C69.5365 46.002 69.4388 46.2298 69.3086 46.6855H69.1621V46.5879C69.1621 46.4902 69.1133 46.1647 69.0156 45.6113C69.6667 43.7884 69.9922 42.4538 69.9922 41.6074C70.3503 41.347 70.5293 40.7448 70.5293 39.8008C70.7572 39.8008 70.9362 38.0918 71.0664 34.6738C71.3268 33.7298 71.6686 32.7207 72.0918 31.6465C72.1243 30.9629 72.1732 30.6048 72.2383 30.5723C72.5638 30.6699 72.9219 30.7188 73.3125 30.7188C73.5078 30.4583 73.6055 30.263 73.6055 30.1328V29.6445C73.6055 29.612 73.6217 29.5957 73.6543 29.5957C73.6543 29.0749 73.5078 28.6354 73.2148 28.2773C72.9219 28.5378 72.694 28.668 72.5312 28.668C71.9453 28.668 71.5221 28.4076 71.2617 27.8867C71.2617 27.2031 71.6035 26.7799 72.2871 26.6172H72.4336C72.694 26.6172 73.0195 26.6335 73.4102 26.666C74.224 26.4056 74.7611 26.2754 75.0215 26.2754H75.2656C75.7865 26.2754 76.291 26.3242 76.7793 26.4219L78.3418 26.2266C78.3418 26.2917 78.4232 26.373 78.5859 26.4707C79.4648 26.1126 80.5065 25.4128 81.7109 24.3711V24.3223C81.5156 24.1595 81.418 23.9967 81.418 23.834V23.7363C81.7109 23.2155 82.1341 22.9551 82.6875 22.9551C83.2083 23.1178 83.4688 23.2806 83.4688 23.4434V23.7363C83.4688 24.1595 82.9805 24.485 82.0039 24.7129C81.8737 24.9082 81.0762 25.5104 79.6113 26.5195L79.416 26.8125C79.2858 26.7148 79.1556 26.666 79.0254 26.666C78.9928 26.666 78.8464 26.7148 78.5859 26.8125V26.9102L79.0254 27.0078H79.416C79.5462 27.724 79.8717 28.082 80.3926 28.082C81.304 27.9193 81.7598 27.6589 81.7598 27.3008C82.1178 26.9102 82.3132 26.7148 82.3457 26.7148H82.541C82.6387 26.7474 82.6875 26.7962 82.6875 26.8613C82.3294 27.9355 81.6296 29.1888 80.5879 30.6211C80.5553 30.6862 80.5228 30.9466 80.4902 31.4023C80.6855 32.4115 80.7832 33.1439 80.7832 33.5996V33.7461C80.7832 34.7878 80.4414 35.9271 79.7578 37.1641C79.5951 37.6523 79.5137 38.3522 79.5137 39.2637V40.1914C79.5137 40.6797 79.1556 41.819 78.4395 43.6094C78.4069 43.9674 78.3743 44.1465 78.3418 44.1465L78.3906 44.2441L78.3418 44.3906C78.3743 44.4883 78.3906 44.5534 78.3906 44.5859H78.3418C78.3418 44.6185 78.3581 44.6348 78.3906 44.6348C78.3581 45.7415 78.3418 46.5553 78.3418 47.0762V47.2715C78.3418 47.6296 78.5046 48.5736 78.8301 50.1035C78.8301 50.2988 78.8626 50.429 78.9277 50.4941C78.8626 50.5267 78.7975 50.9824 78.7324 51.8613C78.7975 52.1868 78.8952 52.8542 79.0254 53.8633C78.9277 55.5885 78.7161 56.5488 78.3906 56.7441H78.3418C77.9512 56.4512 77.7559 56.207 77.7559 56.0117V55.7676C77.4303 55.7676 77.1374 55.9629 76.877 56.3535C76.5189 56.3535 76.3073 56.9069 76.2422 58.0137C76.0469 58.502 75.5749 58.9414 74.8262 59.332L73.8008 62.6035V62.9453C73.8008 63.6615 73.6706 65.0124 73.4102 66.998C73.4427 67.3887 73.459 67.6328 73.459 67.7305L72.9219 69.7812V70.3184C72.9219 70.709 73.2799 71.2298 73.9961 71.8809L74.0938 72.3203C74.0938 73.1667 73.7357 73.6712 73.0195 73.834C72.1081 73.5736 71.6523 73.069 71.6523 72.3203L71.9453 70.6113L71.8965 70.3672H71.9453L71.8965 70.2207C71.8639 68.9512 71.8477 68.1374 71.8477 67.7793L71.8965 67.5352C71.6686 66.8841 71.457 66.5098 71.2617 66.4121H71.1641C70.3503 68.4954 69.8945 70.2207 69.7969 71.5879C69.6016 72.4993 69.0156 73.5736 68.0391 74.8105C67.8438 75.4616 67.7461 75.8848 67.7461 76.0801C67.8438 76.7637 67.8926 77.2194 67.8926 77.4473C67.8926 77.6751 67.6484 78.4401 67.1602 79.7422L66.8184 84.5273V86.8223C66.8184 87.4082 66.737 88.0755 66.5742 88.8242C66.7695 90.3867 67.0137 91.168 67.3066 91.168C67.7624 91.7539 67.9902 92.2259 67.9902 92.584C67.9902 93.3001 67.5671 93.821 66.7207 94.1465H66.5742C65.8255 94.1465 65.321 93.4141 65.0605 91.9492V91.7539C65.0605 91.2005 65.321 90.0449 65.8418 88.2871C65.9069 88.1243 65.972 87.7012 66.0371 87.0176L65.9883 86.4316C66.0208 85.2598 66.1999 83.4206 66.5254 80.9141V80.8164H66.4277C65.2559 82.8346 64.1165 85.1784 63.0098 87.8477C62.8796 88.694 62.6354 89.5404 62.2773 90.3867C62.1797 90.9076 62.0007 91.5098 61.7402 92.1934H61.6426C61.6426 91.9655 61.6589 91.5911 61.6914 91.0703C61.3008 91.2656 60.8776 92.1608 60.4219 93.7559C59.8685 94.765 59.3802 96.2624 58.957 98.248C58.8268 98.834 58.7617 99.4525 58.7617 100.104V100.445C58.7617 101.324 59.071 101.975 59.6895 102.398C59.8522 102.561 59.9336 102.724 59.9336 102.887V102.984C59.9336 103.863 59.543 104.384 58.7617 104.547H58.7129C57.8014 104.286 57.3457 103.521 57.3457 102.252V101.617C57.3457 100.478 57.9154 98.1341 59.0547 94.5859C59.0547 94.3581 59.3477 93.0234 59.9336 90.582C60.2917 88.7591 60.6497 86.627 61.0078 84.1855L62.5215 80.3281C62.7493 79.7096 62.8633 79.3353 62.8633 79.2051V77.4961C62.8633 76.5521 63.2376 75.7383 63.9863 75.0547C64.5397 74.013 64.8164 73.0527 64.8164 72.1738C64.6536 72.1087 64.4095 72.0762 64.084 72.0762C63.6283 72.0762 62.8145 72.7598 61.6426 74.127C57.5736 78.0332 54.4974 80.3118 52.4141 80.9629C52.349 80.9629 52.0072 81.0443 51.3887 81.207V81.1094C53.1139 80.6536 56.125 78.4238 60.4219 74.4199C63.5143 71.1973 65.3535 68.9023 65.9395 67.5352C67.2741 64.9635 67.9414 63.3197 67.9414 62.6035C67.8438 62.6035 67.7949 62.5547 67.7949 62.457V62.2617L67.9902 62.0176C67.9902 59.7064 68.332 57.7858 69.0156 56.2559C69.4062 55.3118 69.6016 54.7422 69.6016 54.5469H69.5527C68.7389 56.0768 68.0553 57.1022 67.502 57.623C66.5254 59.3483 66.0371 60.39 66.0371 60.748C65.8743 61.7897 65.5488 62.3105 65.0605 62.3105C64.7676 62.1803 64.6211 61.985 64.6211 61.7246V61.627C64.6211 61.3991 65.0768 60.4876 65.9883 58.8926C66.0859 58.502 66.3464 57.8835 66.7695 57.0371C67.4531 55.6699 67.7949 54.8398 67.7949 54.5469C66.8835 54.5469 65.5814 54.9049 63.8887 55.6211C61.9355 56.5326 60.6823 56.9883 60.1289 56.9883C60.1289 57.0208 60.0964 57.0371 60.0312 57.0371C60.0312 58.4694 59.543 59.2995 58.5664 59.5273C57.8177 59.5273 57.2318 60.0645 56.8086 61.1387C56.0273 63.2871 55.4251 64.5241 55.002 64.8496C53.9603 65.7285 53.2116 66.7214 52.7559 67.8281C51.7793 69.5859 51.291 70.9368 51.291 71.8809C50.8678 72.9876 50.5098 74.2734 50.2168 75.7383C49.9889 77.431 49.4844 79.0423 48.7031 80.5723C48.7031 80.9303 47.9707 82.3626 46.5059 84.8691C45.9525 85.8132 45.3014 87.2943 44.5527 89.3125C43.9668 90.1589 43.5111 91.3307 43.1855 92.8281L42.5996 95.709H42.502L43.2344 89.7031C43.3646 88.8893 43.7878 87.4408 44.5039 85.3574C44.6992 84.6738 44.8457 83.9577 44.9434 83.209V83.1602H44.8945L43.5273 86.8711C43.0065 88.4336 42.5345 90.1914 42.1113 92.1445C41.2975 94.7161 40.6139 96.5228 40.0605 97.5645H39.9629V97.5156C40.2233 96.2786 40.5814 94.7161 41.0371 92.8281C41.5579 89.6055 41.8835 87.4896 42.0137 86.4805L43.5762 82.7207C43.8366 81.8418 43.9668 81.3372 43.9668 81.207C43.9668 80.9466 43.9505 80.4909 43.918 79.8398C43.918 78.8633 44.2598 78.0495 44.9434 77.3984C45.5944 76.2266 45.9199 75.25 45.9199 74.4688C45.7897 74.3711 45.5456 74.306 45.1875 74.2734C44.6992 74.5013 44.4062 74.6152 44.3086 74.6152L44.2109 74.4688C46.2292 72.5482 47.3359 71.2461 47.5312 70.5625C47.6289 70.5625 47.6777 70.4811 47.6777 70.3184C47.5475 70.0905 47.4824 69.8464 47.4824 69.5859C48.2311 68.2513 48.6055 67.3236 48.6055 66.8027C48.8333 66.8027 49.0449 64.9635 49.2402 61.2852C49.2402 61.1549 49.7285 59.5924 50.7051 56.5977V56.5488C49.9889 57.8835 49.4681 58.7624 49.1426 59.1855C48.6543 59.5436 47.9707 60.7643 47.0918 62.8477C47.0918 63.7917 46.7826 64.3451 46.1641 64.5078C45.8385 64.5078 45.6758 64.3125 45.6758 63.9219C45.6758 63.7266 46.1641 62.7174 47.1406 60.8945C47.1406 60.7643 47.6452 59.6576 48.6543 57.5742C48.8171 57.0859 49.0286 56.0931 49.2891 54.5957C50.1029 53.2936 50.5098 52.431 50.5098 52.0078V51.9102H50.4609C48.5729 55.4909 47.3685 57.7207 46.8477 58.5996H46.75C46.7174 58.5345 46.7012 58.4694 46.7012 58.4043L49.6309 52.4961C49.6634 51.9753 50.0703 50.9824 50.8516 49.5176C50.8516 49.2572 50.7865 48.834 50.6562 48.248H50.6074C49.4355 51.2103 48.7357 52.6914 48.5078 52.6914L48.459 52.5938C49.3053 50.2174 49.9889 48.2155 50.5098 46.5879C50.8027 45.8392 50.998 44.9115 51.0957 43.8047C51.1283 43.8047 51.2585 43.6094 51.4863 43.2188V43.1699C51.4863 42.7467 51.6491 41.8353 51.9746 40.4355C51.7793 37.7337 51.6491 36.1387 51.584 35.6504H51.6328L51.584 35.5039C51.584 33.1276 51.0957 30.6862 50.1191 28.1797C49.2728 26.2917 48.6543 25.2663 48.2637 25.1035L47.9219 24.9082C47.694 25.0059 47.5312 25.0547 47.4336 25.0547C46.6849 24.8919 46.0501 24.3223 45.5293 23.3457C45.5293 23.248 45.4642 23.0527 45.334 22.7598C45.5293 22.2389 45.8548 21.9785 46.3105 21.9785C47.873 21.9785 49.3867 23.7526 50.8516 27.3008C51.8932 29.6771 52.4141 32.4928 52.4141 35.748H52.4629C52.4629 35.6504 52.707 35.0319 53.1953 33.8926C53.1953 31.6465 53.5697 30.1328 54.3184 29.3516C54.7415 28.5703 55.1159 28.0169 55.4414 27.6914H55.5879V27.8379H55.7832C55.946 27.8379 56.1413 27.8216 56.3691 27.7891C56.4342 27.8216 56.5482 27.8379 56.7109 27.8379C56.7109 27.7402 56.7435 27.6914 56.8086 27.6914H57.0039C57.1341 27.7891 57.2318 27.8379 57.2969 27.8379C57.9805 27.8379 58.5339 27.9193 58.957 28.082C59.2826 27.8216 60.5846 27.1543 62.8633 26.0801C64.263 25.2988 65.9557 24.1107 67.9414 22.5156C70.2852 20.4648 71.457 19.2441 71.457 18.8535C71.6523 18.4629 71.7826 18.0397 71.8477 17.584C71.8477 17.0632 71.5384 16.8027 70.9199 16.8027C70.7572 16.6074 70.6758 16.4935 70.6758 16.4609V16.3633C70.6758 15.8424 71.0827 15.5169 71.8965 15.3867ZM44.1133 23.0527H44.4062C44.9922 23.1829 45.2852 23.4596 45.2852 23.8828V24.2734C45.0898 24.599 44.862 24.7617 44.6016 24.7617H44.5527C43.9993 24.5664 43.7227 24.2246 43.7227 23.7363V23.6387C43.7227 23.3783 43.8529 23.1829 44.1133 23.0527ZM62.3262 27.1055C62.3262 27.1706 61.4635 27.6914 59.7383 28.668V28.7656C59.7708 28.8307 59.8197 28.8633 59.8848 28.8633C61.5449 27.7565 62.4076 27.2031 62.4727 27.2031V27.1055H62.3262ZM74.6309 27.9844V28.082C74.6309 28.1797 74.6471 28.2773 74.6797 28.375C74.6471 28.4401 74.6309 28.5052 74.6309 28.5703C74.6309 28.6029 74.6471 28.6191 74.6797 28.6191C74.6146 29.6283 74.4518 30.1328 74.1914 30.1328C73.9961 30.6211 73.8659 30.9303 73.8008 31.0605V31.207C73.8008 31.2721 73.8659 31.3372 73.9961 31.4023C74.224 31.0117 74.4681 30.8164 74.7285 30.8164C74.6634 30.6536 74.6309 30.4909 74.6309 30.3281C74.9238 29.6771 75.2005 29.3027 75.4609 29.2051C76.4701 28.8145 76.9746 28.4076 76.9746 27.9844C77.0072 27.9844 77.0397 27.9193 77.0723 27.7891C77.0723 27.5286 76.7956 27.3984 76.2422 27.3984C75.5586 27.4635 75.0378 27.6589 74.6797 27.9844H74.6309ZM55.0996 29.5469C55.4577 29.1888 55.9297 29.0098 56.5156 29.0098C56.9388 29.14 57.3294 29.3841 57.6875 29.7422L57.7363 29.4004V29.1562C57.6061 28.5378 57.2969 28.2285 56.8086 28.2285H56.5645C55.5879 28.3913 55.0996 28.8307 55.0996 29.5469ZM73.0684 31.6465V32.1348C73.0684 32.2975 73.0521 32.5254 73.0195 32.8184V32.916H73.0684C73.0684 32.8509 73.2148 32.5254 73.5078 31.9395C73.4753 31.9395 73.3451 31.8418 73.1172 31.6465H73.0684ZM59.543 38.2383C60.0638 37.2943 60.5684 36.513 61.0566 35.8945C61.2194 35.4714 61.3008 35.1458 61.3008 34.918C61.2682 34.918 61.138 34.6576 60.9102 34.1367H60.8613C60.7962 34.1367 60.7148 34.3971 60.6172 34.918C60.4544 34.918 60.2917 35.39 60.1289 36.334C59.9336 36.5618 59.7383 37.1966 59.543 38.2383ZM72.2871 36.041C72.2871 36.1712 72.3359 36.5293 72.4336 37.1152H72.4824C72.9056 35.4551 73.1172 34.5273 73.1172 34.332H73.0684C72.6452 34.3646 72.3848 34.9342 72.2871 36.041ZM59.543 35.1133L59.2988 36.4805C59.3314 36.6432 59.3477 36.7897 59.3477 36.9199C59.4453 36.9199 59.5592 36.4642 59.6895 35.5527L59.6406 35.1133H59.543ZM52.2188 43.8535V44.0488C52.2188 44.6022 52.4303 44.9115 52.8535 44.9766C53.1465 44.9766 53.4069 44.6348 53.6348 43.9512C53.5371 43.528 53.3255 43.3164 53 43.3164H52.8047C52.4141 43.349 52.2188 43.528 52.2188 43.8535ZM52.6094 46.1484V46.3926L52.7559 46.5879C52.9186 46.5879 53 46.4251 53 46.0996C53 46.002 52.9512 45.9531 52.8535 45.9531H52.8047C52.7396 45.9531 52.6745 46.0182 52.6094 46.1484ZM59.3477 48.7363V49.127C59.3477 49.9082 59.8522 50.7057 60.8613 51.5195C61.1543 51.5846 61.3984 51.6172 61.5938 51.6172H61.6914C62.5052 51.6172 63.2214 51.5033 63.8398 51.2754V51.2266L63.0586 51.2754C61.3984 51.2754 60.194 50.429 59.4453 48.7363H59.3477ZM75.9004 53.2773C75.998 54.5794 76.1771 55.2305 76.4375 55.2305H76.584C77.1048 55.2305 77.3652 54.6934 77.3652 53.6191C77.528 53.6191 77.6582 53.3099 77.7559 52.6914V52.5938C77.7559 52.2357 77.5117 52.0078 77.0234 51.9102C76.3724 52.1706 76.0469 52.5449 76.0469 53.0332C75.9818 53.196 75.9329 53.2773 75.9004 53.2773ZM66.7695 54.1562C67.5508 54.0586 67.9414 53.9447 67.9414 53.8145C67.974 53.7493 67.9902 53.6354 67.9902 53.4727H67.9414C67.1602 53.8633 66.7695 54.0911 66.7695 54.1562ZM60.0312 55.1816V55.2305C60.0638 55.9141 60.0801 56.321 60.0801 56.4512C61.2845 55.8978 61.9355 55.6211 62.0332 55.6211V55.5723C61.8704 55.5723 61.3008 55.4421 60.3242 55.1816H60.0312ZM53.6348 62.8477V62.9453H53.7324L54.0254 61.6758V61.4805L53.9766 61.1387C53.8138 61.1387 53.6999 61.7083 53.6348 62.8477ZM54.2207 63.4824C54.7741 63.4824 55.3112 63.0104 55.832 62.0664L55.9297 61.6758C55.9297 61.5781 55.8646 61.3991 55.7344 61.1387C55.3763 61.1387 54.9368 61.7897 54.416 63.0918C54.2858 63.0918 54.2207 63.222 54.2207 63.4824ZM72.3359 61.5293C72.3359 61.8874 72.3197 62.0827 72.2871 62.1152H72.4336V61.5293H72.3359ZM72.2871 62.3105V63.2383C72.2871 63.7917 72.2383 64.7194 72.1406 66.0215C72.3359 66.2819 72.4336 66.4609 72.4336 66.5586C72.4987 66.5586 72.5638 66.2982 72.6289 65.7773C72.5312 65.5495 72.4824 65.1589 72.4824 64.6055C72.4824 64.2474 72.4987 63.6126 72.5312 62.7012L72.4824 62.3105H72.2871ZM71.8965 64.6543C71.7337 65.11 71.6523 65.4355 71.6523 65.6309L72.043 65.875H72.0918L72.043 65.7773V64.6543H71.8965ZM66.5254 68.0234C66.5254 68.1536 65.972 68.9837 64.8652 70.5137H64.9629C65.679 69.6673 66.2161 68.9023 66.5742 68.2188V68.0234H66.5254ZM125.02 11.9199C125.931 11.9199 126.387 12.571 126.387 13.873C126.126 16.1517 125.736 18.1536 125.215 19.8789C124.206 24.1758 123.701 26.8125 123.701 27.7891L123.848 29.0098C123.848 29.498 123.636 30.849 123.213 33.0625C123.245 33.4206 123.262 33.7461 123.262 34.0391V34.332L123.311 34.6738H123.262L123.311 34.8203V35.3086C123.311 35.3737 123.294 35.4062 123.262 35.4062L123.311 35.5039V35.6992C123.311 35.7643 123.294 35.7969 123.262 35.7969L123.311 35.8945V35.9922C123.311 36.0247 123.294 36.041 123.262 36.041C123.294 36.1061 123.311 36.1712 123.311 36.2363C123.408 38.6126 123.571 39.931 123.799 40.1914C124.124 40.8424 124.385 42.0306 124.58 43.7559C124.808 44.5046 124.954 44.8789 125.02 44.8789C125.312 44.4232 125.654 44.1953 126.045 44.1953H126.338C126.794 44.1953 127.249 44.6185 127.705 45.4648C128.486 45.8229 128.877 46.1484 128.877 46.4414H128.779L128.877 46.5391C128.779 47.418 128.714 47.8574 128.682 47.8574L128.73 48.0039V48.6387C128.73 48.834 129.007 49.1595 129.561 49.6152C129.691 49.9733 129.756 50.2337 129.756 50.3965C129.3 51.2103 129.072 51.959 129.072 52.6426C129.105 54.0423 129.121 54.9538 129.121 55.377C129.121 55.5072 129.056 55.7513 128.926 56.1094H128.975C129.886 55.3932 130.553 54.6771 130.977 53.9609C132.344 52.9844 133.19 51.9264 133.516 50.7871V50.5918C133.516 50.5267 133.451 50.4616 133.32 50.3965H133.125C132.832 50.3965 132.344 50.8522 131.66 51.7637V51.666C131.855 51.1452 132.311 50.3477 133.027 49.2734C132.279 49.1758 131.904 48.8828 131.904 48.3945V48.2969C131.904 47.0599 132.832 45.2858 134.688 42.9746C135.469 42.0306 135.859 41.4447 135.859 41.2168C135.664 40.0124 135.534 39.0846 135.469 38.4336C135.469 38.1081 135.778 36.4642 136.396 33.502C136.462 32.3301 137.52 30.2956 139.57 27.3984C140.742 25.1198 141.328 23.541 141.328 22.6621C141.23 22.0111 141.1 21.5553 140.938 21.2949C141.035 20.0905 141.344 19.4883 141.865 19.4883H142.061C142.419 19.5534 142.598 19.7487 142.598 20.0742C142.305 21.2461 142.077 22.5482 141.914 23.9805C141.523 25.2174 141.117 26.4056 140.693 27.5449C140.693 27.8379 140.205 28.8307 139.229 30.5234C138.285 32.3138 137.812 33.5182 137.812 34.1367H137.861C138.415 33.681 139.131 32.7533 140.01 31.3535C140.889 29.14 141.328 27.4961 141.328 26.4219C141.458 26.194 141.637 26.0801 141.865 26.0801L141.914 26.2266V26.373C141.686 29.5957 141.426 31.4512 141.133 31.9395C141.523 31.4186 141.735 31.1582 141.768 31.1582V31.207C141.768 31.4349 141.426 32.4115 140.742 34.1367C140.742 34.625 140.352 35.6016 139.57 37.0664C139.212 37.3594 139.033 37.7337 139.033 38.1895C139.098 38.5475 139.147 38.7591 139.18 38.8242C138.887 39.5729 138.74 40.0449 138.74 40.2402C138.74 40.7285 139.131 41.2168 139.912 41.7051C139.912 41.7376 139.928 41.8678 139.961 42.0957C139.961 42.4538 139.587 42.9421 138.838 43.5605C138.675 43.8535 138.447 44.3743 138.154 45.123C138.285 45.2858 138.822 45.4811 139.766 45.709C140.026 45.9043 140.156 46.0833 140.156 46.2461C140.156 46.7995 139.521 47.3529 138.252 47.9062C137.568 47.9062 137.145 48.2155 136.982 48.834C136.982 49.485 136.738 50.6081 136.25 52.2031V52.252H136.299C137.08 50.7871 137.829 50.0547 138.545 50.0547C138.936 50.1849 139.131 50.3639 139.131 50.5918C139.066 51.1126 138.822 51.373 138.398 51.373C138.301 51.2754 138.219 51.2266 138.154 51.2266C137.699 51.2266 137.145 51.9427 136.494 53.375C135.941 56.4349 135.664 58.4206 135.664 59.332C135.664 59.7227 135.648 60.6667 135.615 62.1641C135.615 62.5872 135.811 62.8639 136.201 62.9941C136.266 63.1569 136.299 63.2871 136.299 63.3848C136.299 63.8079 136.087 64.8822 135.664 66.6074C135.371 67.877 135.143 69.1139 134.98 70.3184C134.72 71.2624 134.427 72.4993 134.102 74.0293C133.776 74.8757 133.548 75.6243 133.418 76.2754V76.373H133.467C134.671 73.2155 135.452 71.3438 135.811 70.7578H135.859V70.8555C135.859 71.6693 135.062 74.4199 133.467 79.1074C133.467 79.4329 132.995 80.7513 132.051 83.0625C132.051 83.6159 131.79 84.7227 131.27 86.3828C131.204 86.4154 131.139 86.8223 131.074 87.6035V87.75H131.123C131.188 86.9362 131.497 85.9271 132.051 84.7227C132.246 83.9089 132.474 83.1764 132.734 82.5254H132.881C131.937 86.7572 131.465 90.224 131.465 92.9258C131.465 93.2513 131.693 93.8372 132.148 94.6836C132.148 95.3997 132.409 96.0833 132.93 96.7344V97.125C132.799 97.4831 132.539 97.6621 132.148 97.6621H131.953C131.432 97.6621 131.139 97.3529 131.074 96.7344V96.6367L131.123 95.5625C131.025 94.8464 130.7 94.1465 130.146 93.4629L128.975 92.6816L128.682 92.7305H128.584C128.063 92.5677 127.477 92.4375 126.826 92.3398C126.501 92.1771 126.045 91.64 125.459 90.7285C125.459 90.5007 124.873 90.2565 123.701 89.9961C122.627 90.7122 121.667 91.0866 120.82 91.1191V90.9727C121.862 90.4844 122.383 90.1426 122.383 89.9473L122.236 89.8496C121.781 89.8496 121.13 89.9635 120.283 90.1914C120.283 90.1589 120.267 90.1426 120.234 90.1426C120.332 89.8822 120.869 89.3939 121.846 88.6777C122.041 88.4499 122.301 87.3919 122.627 85.5039C122.627 85.5039 122.611 85.2272 122.578 84.6738L123.213 82.4766C123.408 81.1745 123.506 80.263 123.506 79.7422L123.408 79.6934C123.18 80.4421 122.578 81.3372 121.602 82.3789V82.2812C121.797 81.8906 121.992 81.0605 122.188 79.791C122.708 78.6842 122.969 77.7077 122.969 76.8613V76.4219C122.969 76.3242 122.92 76.2754 122.822 76.2754H122.676C122.676 76.4056 122.578 76.9753 122.383 77.9844H122.236V77.7891L122.188 77.3496H122.236C122.204 77.252 122.188 77.1868 122.188 77.1543C122.188 76.6335 122.253 75.9824 122.383 75.2012C122.285 74.4525 122.236 73.8503 122.236 73.3945V73.0039C122.367 71.8971 122.48 71.181 122.578 70.8555C122.578 70.7904 122.546 70.7578 122.48 70.7578L122.578 70.4648V70.123C122.578 68.5931 121.943 66.64 120.674 64.2637C120.641 64.1986 120.625 64.1335 120.625 64.0684H120.527C119.941 64.6543 119.323 66.2493 118.672 68.8535C117.37 71.1647 116.719 73.362 116.719 75.4453C116.719 76.5846 116.019 77.6426 114.619 78.6191C114.196 79.14 113.984 79.9538 113.984 81.0605C113.171 82.265 112.764 83.2741 112.764 84.0879C112.308 85.7155 111.787 87.0339 111.201 88.043C110.648 89.6055 110.371 90.5983 110.371 91.0215L110.42 91.168C110.42 91.2656 110.404 91.347 110.371 91.4121C110.371 91.4772 110.387 91.5098 110.42 91.5098C110.029 94.472 109.753 96.4089 109.59 97.3203C109.395 98.0039 109.215 100.169 109.053 103.814C109.215 105.182 109.346 106.956 109.443 109.137C109.476 109.137 109.492 109.365 109.492 109.82V109.918C109.492 110.536 109.102 110.846 108.32 110.846H108.223C107.311 110.683 106.855 110.227 106.855 109.479C106.79 109.479 106.758 109.332 106.758 109.039V108.941C106.758 108.811 106.953 108.046 107.344 106.646C107.409 106.288 107.441 105.914 107.441 105.523V105.279C107.344 102.577 107.295 101.161 107.295 101.031C107.295 100.641 107.669 98.5736 108.418 94.8301C108.971 91.9329 109.248 89.6706 109.248 88.043C109.281 88.043 109.329 87.8151 109.395 87.3594C109.395 86.5456 108.971 85.7806 108.125 85.0645C107.083 85.0645 106.335 84.7878 105.879 84.2344H105.488C104.87 84.2344 104.333 84.4622 103.877 84.918C102.314 86.1549 101.012 87.2617 99.9707 88.2383H99.7754V88.1895C100.199 87.4408 100.817 86.5456 101.631 85.5039C102.021 84.5273 102.217 84.0065 102.217 83.9414C102.152 83.9414 101.745 84.3809 100.996 85.2598C100.898 85.1621 100.85 85.0807 100.85 85.0156C100.85 84.4948 101.468 83.3717 102.705 81.6465C103.258 80.8001 103.714 79.3678 104.072 77.3496C104.43 76.4707 104.658 75.7708 104.756 75.25C104.756 73.2969 104.935 72.3203 105.293 72.3203C105.879 71.5391 106.172 70.9531 106.172 70.5625C106.139 70.3672 105.993 70.2695 105.732 70.2695C104.788 70.6276 104.007 71.5065 103.389 72.9062C103.389 73.0365 103.177 73.2806 102.754 73.6387C102.754 73.6061 102.738 73.5898 102.705 73.5898C103.324 71.9297 104.154 70.3184 105.195 68.7559C106.367 66.7702 106.953 64.5241 106.953 62.0176C106.953 60.6829 107.181 58.8275 107.637 56.4512C107.669 56.321 107.686 55.9954 107.686 55.4746V55.3281C107.686 55.2305 107.669 55.1491 107.637 55.084L107.686 54.9375C107.686 54.9049 107.669 54.8887 107.637 54.8887L107.686 54.5469V53.375C107.686 52.2357 107.865 51.0312 108.223 49.7617H108.32L108.857 57.4766H108.906C109.427 57.4766 109.753 55.9629 109.883 52.9355C109.883 52.3171 110.192 50.9499 110.811 48.834C111.104 47.4668 111.38 45.9694 111.641 44.3418L113.252 39.459C113.48 38.7428 113.805 38.2057 114.229 37.8477H114.326V37.8965C114.131 38.4499 113.968 39.2637 113.838 40.3379C113.838 41.2168 113.968 41.7702 114.229 41.998V42.0957C113.968 42.3561 113.708 42.877 113.447 43.6582C113.512 43.8861 113.577 44 113.643 44C114.424 43.6419 114.814 42.877 114.814 41.7051C114.814 41.2168 115.71 40.2077 117.5 38.6777C117.988 38.0592 118.444 36.806 118.867 34.918C118.965 34.918 119.046 34.625 119.111 34.0391V33.9414C119.079 33.4206 118.867 33.1602 118.477 33.1602C118.216 33.681 118.086 34.1693 118.086 34.625C118.086 34.7552 118.118 35.097 118.184 35.6504C117.988 37.0176 117.728 37.7012 117.402 37.7012C117.077 37.8965 116.865 37.9941 116.768 37.9941C116.54 37.9941 116.41 37.929 116.377 37.7988V37.7012C116.8 37.3105 117.012 36.5781 117.012 35.5039V35.0156C117.272 33.7461 117.402 32.9648 117.402 32.6719C117.37 32.5742 117.354 32.4766 117.354 32.3789C117.354 32.1836 117.614 31.2233 118.135 29.498C118.428 27.4473 118.77 25.9499 119.16 25.0059C119.844 23.2806 120.755 21.7181 121.895 20.3184C121.992 20.3184 122.041 20.3672 122.041 20.4648C122.041 21.0182 121.602 22.1901 120.723 23.9805L120.625 24.5664C120.723 26.4544 120.853 27.3984 121.016 27.3984C121.113 27.3984 121.276 27.4147 121.504 27.4473C121.829 27.4473 122.22 27.0566 122.676 26.2754L123.506 23.0039C124.124 21.7669 124.434 20.7578 124.434 19.9766C124.727 19.0977 124.987 17.584 125.215 15.4355L124.385 13.2383V12.7988C124.515 12.2129 124.727 11.9199 125.02 11.9199ZM118.672 50.4453C118.672 50.8685 119.014 51.4382 119.697 52.1543V52.4473C119.697 52.61 119.355 53.1146 118.672 53.9609C118.509 54.2214 118.281 54.8561 117.988 55.8652C118.053 56.2233 118.086 56.5163 118.086 56.7441C118.053 57.1999 117.826 57.916 117.402 58.8926V58.9414H117.5C118.704 57.151 119.307 56.207 119.307 56.1094C119.307 55.556 119.779 54.8561 120.723 54.0098C121.309 53.3262 122.122 51.9264 123.164 49.8105V49.7617C122.676 50.2174 121.927 51.1452 120.918 52.5449L120.82 52.5938H120.723C121.374 51.1615 122.139 49.6966 123.018 48.1992C123.408 47.2878 123.896 46.3926 124.482 45.5137V45.0742C123.148 41.526 122.253 39.752 121.797 39.752H121.016C120.951 39.752 120.918 39.7194 120.918 39.6543C120.104 40.0124 119.697 41.4935 119.697 44.0977C119.697 45.1719 119.502 46.2949 119.111 47.4668C119.014 49.2897 118.867 50.2012 118.672 50.2012V50.4453ZM132.93 48.6387L133.076 48.6875H133.125C133.32 48.6875 133.874 47.6784 134.785 45.6602C134.818 45.5625 134.834 45.4648 134.834 45.3672C133.564 46.9297 132.93 48.0202 132.93 48.6387ZM124.043 48.9805C125.117 47.1576 125.785 46.1973 126.045 46.0996H126.338C126.598 46.0996 126.826 46.3763 127.021 46.9297H127.119V46.8809C126.761 45.9694 126.468 45.5137 126.24 45.5137H125.947C125.622 45.6764 124.987 46.832 124.043 48.9805ZM137.617 46.9297C137.617 47.2552 137.861 47.418 138.35 47.418C138.708 47.418 139.001 47.1576 139.229 46.6367L138.984 46.4414H138.74L138.35 46.4902L138.203 46.4414C137.812 46.474 137.617 46.6367 137.617 46.9297ZM111.396 51.1777C110.811 55.8327 110.518 58.5182 110.518 59.2344L110.908 61.4805C111.104 62.3268 111.283 62.75 111.445 62.75V62.6523C111.185 61.1875 111.055 59.6576 111.055 58.0625V57.3301C111.055 57.2975 111.071 57.2812 111.104 57.2812C111.104 57.2161 111.087 57.1836 111.055 57.1836C111.185 56.2396 111.25 55.2467 111.25 54.2051V54.1074C111.25 54.0423 111.266 54.0098 111.299 54.0098C111.299 53.9772 111.283 53.9609 111.25 53.9609L111.299 53.6191C111.299 53.1634 111.348 52.3822 111.445 51.2754V51.1777H111.396ZM130.732 55.6699C130.179 56.1582 129.447 56.6302 128.535 57.0859C128.405 57.3464 128.34 57.5579 128.34 57.7207V58.1113C129.642 57.8184 130.293 57.4766 130.293 57.0859C130.651 56.6302 130.846 56.1908 130.879 55.7676C130.879 55.7025 130.83 55.6699 130.732 55.6699ZM125.361 57.8672V58.1602H125.41V57.8672H125.361ZM123.213 58.4531C123.05 59.2018 122.969 59.804 122.969 60.2598L123.018 60.6504C122.985 61.0736 122.969 61.4642 122.969 61.8223V63.043H122.871C122.676 62.8151 122.48 62.1966 122.285 61.1875V60.8457C121.764 61.1712 121.504 62.2129 121.504 63.9707C122.773 66.3796 123.408 68.0072 123.408 68.8535H123.457C123.587 68.4303 123.717 67.1283 123.848 64.9473L123.799 64.5566H123.848L123.799 64.4102V63.8242L123.311 60.0156C123.311 59.9505 123.343 59.918 123.408 59.918L123.311 59.625V59.2344L123.262 58.4531H123.213ZM125.41 58.4531V59.625C125.182 63.987 125.036 68.3978 124.971 72.8574C124.906 72.8574 124.857 73.3783 124.824 74.4199V74.5664H124.873C125.361 73.1667 125.605 72.3203 125.605 72.0273C125.703 71.2461 125.752 70.5951 125.752 70.0742C125.752 69.9766 125.719 69.8789 125.654 69.7812C125.654 69.6836 125.687 69.6022 125.752 69.5371C125.687 68.1048 125.654 66.998 125.654 66.2168V64.0684C125.654 63.7428 125.687 63.4499 125.752 63.1895C125.687 61.6921 125.589 60.1133 125.459 58.4531H125.41ZM110.42 59.8691C109.606 62.7663 109.199 64.459 109.199 64.9473C108.483 65.6634 108.125 66.4772 108.125 67.3887C107.865 68.0072 107.734 68.3815 107.734 68.5117C107.734 68.707 108.158 69.1628 109.004 69.8789C108.646 70.4323 108.076 71.6693 107.295 73.5898C108.857 71.4414 109.639 70.3346 109.639 70.2695V69.9766C109.639 69.7812 109.329 69.4232 108.711 68.9023C109.167 67.7956 109.492 66.9004 109.688 66.2168C109.85 66.2168 110.013 65.5983 110.176 64.3613C110.176 64.2962 110.143 64.2637 110.078 64.2637L110.176 63.9707C110.176 62.9941 110.273 61.6432 110.469 59.918V59.8691H110.42ZM133.027 74.5664V74.6152H133.076C133.369 73.5736 134.134 70.4323 135.371 65.1914C135.632 64.638 135.762 64.0358 135.762 63.3848L135.664 63.0918H135.615C135.518 63.0918 135.371 63.5312 135.176 64.4102C134.427 65.4193 134.053 67.1771 134.053 69.6836C133.89 70.7904 133.564 72.2552 133.076 74.0781L133.027 74.5664ZM124.678 78.8145V79.3027H124.775C125.003 77.3171 125.557 75.6406 126.436 74.2734C126.663 73.9154 126.777 73.6875 126.777 73.5898L126.582 73.4434H126.533C125.915 73.4434 125.329 74.8919 124.775 77.7891C124.71 78.1146 124.678 78.4564 124.678 78.8145ZM123.701 85.9922V86.1875C123.701 87.7174 124.255 88.7103 125.361 89.166C126.077 89.5241 126.794 90.0124 127.51 90.6309V90.582C127.51 90.2891 126.403 89.1009 124.189 87.0176C123.929 86.4316 123.799 86.0898 123.799 85.9922H123.701ZM168.598 14.0684C169.346 14.0684 169.721 14.6217 169.721 15.7285V15.9238C169.525 17.2585 168.76 18.5443 167.426 19.7812C166.807 20.1393 166.368 20.8555 166.107 21.9297C165.717 23.1667 164.919 24.4036 163.715 25.6406V25.4941C164.333 24.4199 164.643 23.6875 164.643 23.2969C164.187 23.8503 163.438 25.0059 162.396 26.7637C161.257 30.3444 160.362 32.5905 159.711 33.502C160.069 34.0879 160.248 34.5273 160.248 34.8203L159.857 36.7246C159.89 37.0501 159.906 37.2454 159.906 37.3105L161.078 37.0664L161.127 37.2129C160.346 38.0267 159.955 38.8405 159.955 39.6543C159.955 40.1751 160.085 40.582 160.346 40.875C160.346 41.3633 159.841 41.8678 158.832 42.3887C157.758 43.2025 156.993 43.9837 156.537 44.7324L156.488 44.5859V43.8535C156.488 43.6582 156.57 43.3327 156.732 42.877C156.732 42.6491 156.618 42.4375 156.391 42.2422C155.479 42.763 154.47 43.0234 153.363 43.0234C152.452 43.4141 151.622 44.4883 150.873 46.2461C150.222 48.5247 149.717 50.1849 149.359 51.2266V52.2031L149.457 52.6426H149.506C153.021 48.7038 154.828 46.7344 154.926 46.7344C155.089 46.6367 155.235 46.5879 155.365 46.5879H155.561C155.854 46.5879 156.358 46.9297 157.074 47.6133L157.221 47.7109H157.27C157.53 47.7109 157.855 47.6784 158.246 47.6133C158.767 47.7435 159.027 48.0039 159.027 48.3945C159.027 49.2734 159.255 49.7129 159.711 49.7129C159.711 49.6152 159.76 49.5664 159.857 49.5664C160.02 50.0221 160.102 50.2988 160.102 50.3965V50.8848C159.874 52.0892 159.76 52.7728 159.76 52.9355V53.2285C160.281 53.0332 160.98 52.3659 161.859 51.2266H161.908C162.071 51.3568 162.331 51.4382 162.689 51.4707V51.5684C162.527 52.5124 162.266 52.9844 161.908 52.9844C161.876 52.9518 161.859 52.8053 161.859 52.5449C159.743 55.084 158.686 56.5651 158.686 56.9883L159.711 56.7441L159.76 56.8906C159.011 57.5417 157.937 58.9577 156.537 61.1387C155.854 62.0501 155.512 62.6686 155.512 62.9941C155.609 63.2871 155.658 63.4987 155.658 63.6289V63.873C155.561 64.1986 155.17 65.0775 154.486 66.5098C153.998 68.2676 153.493 69.9766 152.973 71.6367C152.712 73.1016 152.566 74.1758 152.533 74.8594H152.729C153.738 74.7617 154.291 74.5827 154.389 74.3223V73.248C154.389 72.6296 155.089 72.3203 156.488 72.3203C156.814 72.3203 157.107 71.8809 157.367 71.002L158.832 68.3164C159.939 67.2747 160.671 66.3958 161.029 65.6797C160.736 64.4753 160.362 63.873 159.906 63.873C158.474 63.873 157.644 63.6452 157.416 63.1895C157.286 62.929 157.221 62.75 157.221 62.6523V62.0176C157.514 61.0085 157.839 60.5039 158.197 60.5039C158.197 60.4062 158.474 60.3411 159.027 60.3086C160.102 60.4062 161.176 60.8945 162.25 61.7734C162.38 62.099 162.608 63.043 162.934 64.6055C162.836 65.3216 162.787 65.7936 162.787 66.0215C162.787 66.4121 163.113 66.8027 163.764 67.1934C164.057 67.5189 164.382 68.4466 164.74 69.9766H164.643C164.643 70.0091 164.675 70.0254 164.74 70.0254C164.74 70.3835 164.48 71.4251 163.959 73.1504L164.057 73.9805C164.057 74.8268 163.568 75.6732 162.592 76.5195C162.331 77.0404 162.201 77.9355 162.201 79.2051C161.322 82.1022 160.883 83.86 160.883 84.4785C160.915 84.5762 160.932 84.6576 160.932 84.7227H160.883C160.915 84.8854 160.98 85.3249 161.078 86.041C160.46 86.4967 159.63 88.1243 158.588 90.9238C158.588 91.3145 158.572 91.5098 158.539 91.5098L158.588 91.6562C158.588 91.7214 158.572 91.7539 158.539 91.7539C158.539 92.6003 159.141 93.3001 160.346 93.8535C160.606 94.179 160.736 94.4883 160.736 94.7812C160.736 95.3672 160.118 95.8229 158.881 96.1484C157.709 96.1484 157.025 95.7741 156.83 95.0254C156.602 94.6348 156.488 93.9349 156.488 92.9258C156.488 92.0794 156.879 90.9727 157.66 89.6055C157.823 88.8893 157.904 88.1732 157.904 87.457H158.002C158.262 87.6849 158.393 88.0755 158.393 88.6289C158.555 88.4661 158.93 87.5059 159.516 85.748V85.6016C159.451 84.5924 159.418 83.6973 159.418 82.916V82.623H159.369C159.141 84.0553 158.865 84.7715 158.539 84.7715C158.116 85.3574 157.693 85.6504 157.27 85.6504C157.042 85.6504 156.814 85.4551 156.586 85.0645C156.586 84.6738 156.977 84.4134 157.758 84.2832C157.986 84.2507 158.181 83.9251 158.344 83.3066C158.344 83.2741 158.311 83.2578 158.246 83.2578C158.93 81.207 159.271 80.1328 159.271 80.0352V77.8379C159.271 77.6426 159.353 77.3822 159.516 77.0566V77.0078H159.418C159.158 77.431 158.702 77.9844 158.051 78.668H158.002V78.5703C159.239 76.3568 159.857 75.2174 159.857 75.1523L159.906 74.4199C159.906 73.9642 159.776 73.7363 159.516 73.7363C159.158 73.834 158.718 74.3223 158.197 75.2012C157.709 75.7871 156.928 76.4056 155.854 77.0566C155.658 77.252 155.561 77.431 155.561 77.5938C155.561 77.7565 155.609 77.9518 155.707 78.1797C155.707 78.5703 155.268 78.9772 154.389 79.4004C154.291 79.9863 154.242 80.3607 154.242 80.5234C155.251 81.3372 155.756 82.1999 155.756 83.1113V83.209L155.658 83.4043V84.2344C155.463 85.4388 155.072 86.041 154.486 86.041C154.063 85.9108 153.852 85.7155 153.852 85.4551L154.389 83.7949V83.5996C154.389 83.502 154.275 83.4368 154.047 83.4043C153.07 83.4043 152.191 83.9251 151.41 84.9668C151.378 84.9668 150.678 85.7155 149.311 87.2129V87.0664C149.864 85.862 150.434 84.8691 151.02 84.0879H150.971C150.678 84.153 150.32 84.4297 149.896 84.918C149.831 84.8854 149.766 84.8691 149.701 84.8691C147.781 88.1243 146.365 90.6634 145.453 92.4863H145.307C145.73 90.5983 146.511 88.4661 147.65 86.0898L147.699 85.748C146.625 87.0827 145.665 88.4336 144.818 89.8008C142.54 91.7865 141.352 93.1699 141.254 93.9512C140.928 94.6022 140.489 95.2207 139.936 95.8066L139.838 96.1973V96.6855L140.277 98.1016C140.049 98.8177 139.822 99.1758 139.594 99.1758C138.194 99.1758 137.494 98.8177 137.494 98.1016C137.429 98.1016 137.396 97.8574 137.396 97.3691C137.396 96.5228 138.243 94.9928 139.936 92.7793C140.098 92.0306 140.18 91.5749 140.18 91.4121C140.18 90.7611 139.822 90.2565 139.105 89.8984L137.934 88.3848C137.51 88.3848 136.827 89.1823 135.883 90.7773C135.557 91.4609 135.199 92.0306 134.809 92.4863C134.743 92.4863 134.711 92.4212 134.711 92.291C134.711 91.998 134.906 90.8424 135.297 88.8242C135.297 88.2057 135.574 87.0339 136.127 85.3086V85.2598C136.127 85.1621 135.85 84.7064 135.297 83.8926V83.5508C135.297 83.1276 136.029 82.1999 137.494 80.7676C137.917 80.2467 138.129 79.7747 138.129 79.3516C138.096 79.0911 138.08 78.8796 138.08 78.7168V78.1797C138.34 77.0404 138.471 76.4219 138.471 76.3242C138.471 76.0312 138.308 74.485 137.982 71.6855V70.5625C138.373 68.4141 138.65 67.3398 138.812 67.3398H138.91L138.959 67.6816V68.2188L138.91 68.707C139.008 68.707 139.122 69.0814 139.252 69.8301C139.675 71.1647 140.245 71.832 140.961 71.832H141.01C141.531 71.832 142.019 71.2624 142.475 70.123C142.475 70.0579 142.458 70.0254 142.426 70.0254L142.475 69.6836V69.5371C142.475 69.3743 142.458 69.2604 142.426 69.1953C142.589 68.2839 142.67 67.4538 142.67 66.7051V66.168C142.67 65.5169 142.556 64.6706 142.328 63.6289H142.426C143.24 64.7031 143.646 65.7611 143.646 66.8027H143.695C143.858 64.1986 144.135 62.75 144.525 62.457C145.144 61.7409 145.697 60.8132 146.186 59.6738V59.625C145.535 60.0807 144.916 60.3086 144.33 60.3086H143.988C142.849 59.9505 142.279 59.5436 142.279 59.0879C141.986 58.209 141.775 57.7695 141.645 57.7695C141.384 58.0625 141.254 58.4531 141.254 58.9414V59.0879C141.254 59.5436 141.645 59.9017 142.426 60.1621C143.012 60.4876 143.305 60.6829 143.305 60.748L142.816 60.8457C141.026 60.4225 140.131 59.918 140.131 59.332C140.033 59.2669 139.968 58.974 139.936 58.4531V57.623C139.708 55.7025 139.594 54.5794 139.594 54.2539C139.919 51.3893 140.082 49.5664 140.082 48.7852C140.635 46.6367 141.221 45.0417 141.84 44C142.165 43.5117 142.507 42.5677 142.865 41.168C143.679 40.0938 144.493 39.0521 145.307 38.043C146.739 35.0807 147.846 33.1764 148.627 32.3301C149.441 31.7116 150.189 30.5397 150.873 28.8145C151.068 28.6191 151.329 28.2448 151.654 27.6914C151.589 27.4635 151.557 27.3333 151.557 27.3008C151.557 27.138 151.654 26.7311 151.85 26.0801C151.817 25.7546 151.801 25.4941 151.801 25.2988C151.931 24.1595 152.387 23.5898 153.168 23.5898H153.852C154.079 23.7201 154.193 23.8828 154.193 24.0781C154.193 24.3385 153.624 25.5755 152.484 27.7891C152.224 27.9844 151.915 28.7331 151.557 30.0352C151.524 30.0677 151.361 30.4258 151.068 31.1094C151.166 31.1094 151.215 31.1419 151.215 31.207V32.1348C151.215 32.1999 151.28 32.265 151.41 32.3301H151.801C152.289 32.0046 152.533 31.6302 152.533 31.207C152.533 31.1419 152.289 30.8978 151.801 30.4746V30.4258C151.801 30.0026 152.712 29.612 154.535 29.2539C155.089 29.2539 155.609 29.791 156.098 30.8652H156.244C156.96 30.4746 157.465 29.9701 157.758 29.3516C161.404 25.6081 163.292 23.3457 163.422 22.5645C165.342 19.3743 166.677 16.9167 167.426 15.1914C167.784 14.4427 168.174 14.0684 168.598 14.0684ZM159.369 31.3535V31.9883H159.418C159.483 31.9883 159.695 31.3372 160.053 30.0352C160.183 29.7422 160.395 29.1074 160.688 28.1309C160.036 28.9447 159.711 29.7259 159.711 30.4746C159.483 30.8978 159.369 31.1908 159.369 31.3535ZM153.705 30.0352C154.486 30.0352 154.877 30.3444 154.877 30.9629C154.877 31.1908 154.893 31.3047 154.926 31.3047L154.877 31.6465V32.2812C154.877 32.3464 154.926 32.3789 155.023 32.3789C155.056 32.3789 155.235 32.3626 155.561 32.3301C156.212 32.3301 156.944 32.8997 157.758 34.0391C157.823 34.1367 157.855 34.2181 157.855 34.2832H157.904V33.9902C157.904 32.8184 157.27 32.0371 156 31.6465C155.707 31.6465 155.561 31.5326 155.561 31.3047C155.235 30.3281 154.844 29.8398 154.389 29.8398H154.242C153.884 29.8724 153.705 29.9375 153.705 30.0352ZM151.801 42.3887C152.419 41.9004 153.266 41.6562 154.34 41.6562V41.5586C154.275 40.875 154.161 40.5332 153.998 40.5332C153.314 40.5332 152.598 41.0866 151.85 42.1934C151.817 42.291 151.801 42.3561 151.801 42.3887ZM149.066 45.2207V45.5137C149.066 45.5788 149.148 45.6439 149.311 45.709H149.457C149.522 45.6764 149.604 45.5625 149.701 45.3672C149.636 45.1719 149.571 45.0742 149.506 45.0742H149.213C149.115 45.1068 149.066 45.1556 149.066 45.2207ZM148.334 46.6855V46.7344C148.334 46.9948 148.464 47.2064 148.725 47.3691H148.822C149.18 47.3691 149.359 47.1413 149.359 46.6855C149.359 46.3926 149.18 46.2298 148.822 46.1973C148.497 46.1973 148.334 46.36 148.334 46.6855ZM153.852 49.8594C154.47 49.3711 154.926 49.127 155.219 49.127C155.316 49.127 155.414 49.1595 155.512 49.2246C155.837 49.1595 156.114 49.127 156.342 49.127C156.83 49.127 157.27 49.3874 157.66 49.9082V49.7617C157.66 48.8828 156.781 48.4434 155.023 48.4434C154.633 48.4434 154.242 48.9154 153.852 49.8594ZM144.428 53.8145C144.428 53.9772 144.672 54.3516 145.16 54.9375V55.1328C145.062 55.4909 145.014 55.7188 145.014 55.8164C145.242 56.0117 145.453 56.1094 145.648 56.1094C145.876 56.1094 146.544 55.4421 147.65 54.1074C147.911 53.8145 148.122 52.4635 148.285 50.0547C148.155 49.0781 147.911 48.5898 147.553 48.5898C146.999 48.9479 146.348 49.6641 145.6 50.7383C144.818 51.9753 144.428 53.0007 144.428 53.8145ZM149.652 67.5352H149.701C150.32 66.9492 150.971 66.6074 151.654 66.5098C151.654 66.0215 152.061 65.7448 152.875 65.6797L153.021 65.1914V64.5078L153.07 64.0195C152.094 64.5729 151.02 65.6634 149.848 67.291C149.815 67.291 149.75 67.3724 149.652 67.5352ZM151.508 68.9512C150.368 70.3184 149.799 71.3438 149.799 72.0273V72.7109C149.799 73.069 149.441 73.5085 148.725 74.0293L146.674 77.5449V77.5938C147.26 77.2682 148.155 76.8776 149.359 76.4219C150.271 76.0638 150.727 75.6081 150.727 75.0547C151.215 73.9154 151.687 72.2878 152.143 70.1719C151.882 69.3906 151.671 68.9837 151.508 68.9512ZM158.539 71.5391H158.588C159.044 71.2135 159.483 70.5299 159.906 69.4883V69.3906C159.874 69.3906 159.418 70.1068 158.539 71.5391ZM145.697 84.5762C145.697 84.6413 145.779 84.7064 145.941 84.7715C147.895 83.3717 149.49 82.1348 150.727 81.0605V81.0117C148.448 82.3789 146.771 83.5671 145.697 84.5762ZM141.01 86.7246C140.359 86.7246 139.724 86.3503 139.105 85.6016C138.943 85.5039 138.829 85.4551 138.764 85.4551V86.041C138.764 86.7246 139.382 87.2292 140.619 87.5547H140.766C141.579 87.5547 142.67 86.806 144.037 85.3086C142.702 86.2526 141.693 86.7246 141.01 86.7246ZM141.938 90.8262C142.491 90.1426 143.191 89.3613 144.037 88.4824L144.135 88.3848H144.037C143.777 88.3848 143.126 89.0358 142.084 90.3379C141.986 90.5983 141.938 90.7611 141.938 90.8262ZM140.277 98.8828H140.521C140.814 98.9154 140.961 98.9967 140.961 99.127V99.3223C140.928 99.4525 140.782 99.5176 140.521 99.5176H140.473C140.212 99.5176 140.049 99.4362 139.984 99.2734V99.1758C139.984 99.1107 140.082 99.013 140.277 98.8828ZM191.473 22.9551C191.863 23.0853 192.059 23.3132 192.059 23.6387C191.766 24.2246 191.294 24.5176 190.643 24.5176C190.122 24.4199 189.812 24.3711 189.715 24.3711C188.348 24.9896 187.355 25.7057 186.736 26.5195C186.736 26.5846 186.46 26.7799 185.906 27.1055L185.76 27.3008V27.4961C185.792 28.1471 185.939 28.4727 186.199 28.4727H186.492C186.688 28.4727 186.948 28.2611 187.273 27.8379C187.404 27.8379 187.745 27.5938 188.299 27.1055C188.299 27.1706 188.315 27.2031 188.348 27.2031C187.859 28.5378 187.176 29.8236 186.297 31.0605C186.102 31.2559 186.004 31.5 186.004 31.793V32.1836C186.232 33.4531 186.346 34.2507 186.346 34.5762C186.346 35.5527 185.971 36.7246 185.223 38.0918C185.06 38.6126 184.979 39.3125 184.979 40.1914V41.168C184.979 41.6562 184.604 42.877 183.855 44.8301C183.823 45.0905 183.807 45.2858 183.807 45.416C183.807 45.8717 183.79 47.0273 183.758 48.8828C184.148 50.543 184.344 51.487 184.344 51.7148V52.0078C184.246 52.5938 184.197 52.9518 184.197 53.082C184.36 54.4818 184.441 55.2956 184.441 55.5234C184.441 57.8346 183.807 58.9902 182.537 58.9902C182.179 58.9902 181.805 59.2995 181.414 59.918C181.219 59.918 180.942 60.6504 180.584 62.1152V62.75C180.584 64.3451 179.282 67.2585 176.678 71.4902C175.896 73.0527 175.506 73.9967 175.506 74.3223V74.4199C175.506 74.8431 175.49 75.4779 175.457 76.3242H175.359C175.359 76.3893 175.392 76.4219 175.457 76.4219L175.359 76.7148V79.3516C175.359 79.3841 175.343 79.4004 175.311 79.4004C175.311 79.4329 175.327 79.4492 175.359 79.4492L175.311 79.791V80.377C175.311 80.4095 175.294 80.4258 175.262 80.4258L175.311 80.5723V81.3535C175.473 82.0371 175.945 82.8509 176.727 83.7949C178.257 84.9342 179.054 85.5039 179.119 85.5039C179.217 85.5365 179.282 85.5527 179.314 85.5527C180.942 85.1621 181.756 84.5111 181.756 83.5996C181.951 83.209 182.342 82.6719 182.928 81.9883V81.8418C182.928 81.8092 182.798 81.6953 182.537 81.5L182.049 81.5488H181.951L181.463 81.5C181.202 81.9232 180.991 82.1348 180.828 82.1348C180.47 82.1348 180.291 81.9232 180.291 81.5C180.291 81.0768 180.665 80.7188 181.414 80.4258C181.414 80.3281 181.821 80.1165 182.635 79.791C182.993 79.6283 183.302 79.3678 183.562 79.0098C184.637 78.6191 185.239 78.4238 185.369 78.4238L186.15 78.7656C186.769 77.9518 187.078 77.3984 187.078 77.1055C187.273 76.6497 187.827 76.2917 188.738 76.0312C189.552 75.7383 190.268 75.071 190.887 74.0293C191.212 73.4759 191.993 73.0527 193.23 72.7598C193.589 72.7598 194.565 72.3366 196.16 71.4902C196.583 71.2949 197.072 71.1973 197.625 71.1973H199.139C199.627 71.1973 200.424 70.6764 201.531 69.6348C201.824 69.4395 202.329 69 203.045 68.3164C203.24 68.1862 203.517 68.1211 203.875 68.1211C204.396 68.1211 204.738 68.5443 204.9 69.3906C204.9 69.4883 204.933 69.5697 204.998 69.6348C204.998 70.7741 203.696 72.3691 201.092 74.4199C200.604 75.1361 199.969 75.6406 199.188 75.9336C198.504 76.7799 197.837 77.4147 197.186 77.8379C197.186 77.9355 196.437 78.7005 194.939 80.1328C194.646 80.1979 194.386 80.3607 194.158 80.6211V80.9141C194.223 80.9141 194.321 80.9466 194.451 81.0117C198.195 80.9141 200.066 80.7188 200.066 80.4258C201.108 80.2305 201.857 80.0352 202.312 79.8398V79.7422H202.264C201.808 79.7422 201.027 79.8398 199.92 80.0352C201.157 79.2214 202.947 78.8145 205.291 78.8145C207.049 77.7728 208.367 77.252 209.246 77.252C209.376 77.252 209.555 77.2357 209.783 77.2031C211.085 77.3984 211.736 77.7891 211.736 78.375V78.6191C211.736 79.2702 210.874 79.6445 209.148 79.7422C203.615 80.7839 200.424 81.5488 199.578 82.0371C196.388 83.6322 194.484 84.5111 193.865 84.6738C192.986 85.3249 192.449 85.9759 192.254 86.627C192.352 87.0827 192.4 87.4245 192.4 87.6523C192.238 88.2383 192.075 88.5638 191.912 88.6289C191.782 88.5312 191.619 88.4824 191.424 88.4824C190.805 88.6452 190.496 88.9056 190.496 89.2637C190.496 89.3939 190.822 89.5404 191.473 89.7031C191.505 89.8008 191.554 89.8496 191.619 89.8496C192.107 89.8171 192.384 89.7682 192.449 89.7031C192.514 89.7682 192.628 89.8008 192.791 89.8008C193.117 89.8008 193.279 89.752 193.279 89.6543L193.621 89.7031H194.207C195.184 89.4753 196.551 89.2148 198.309 88.9219C198.829 88.9544 199.09 89.1497 199.09 89.5078C198.927 90.4193 198.423 90.875 197.576 90.875H197.332C196.583 90.6797 195.786 90.5332 194.939 90.4355C194.939 90.3379 194.874 90.2891 194.744 90.2891C193.702 90.6146 192.368 90.9076 190.74 91.168C189.894 91.8516 188.445 92.3398 186.395 92.6328C184.767 92.8607 183.302 93.235 182 93.7559C179.591 94.8626 176.759 95.9206 173.504 96.9297C173.048 97.0924 172.365 97.418 171.453 97.9062C170.249 98.4596 169.174 98.7363 168.23 98.7363C167.807 98.6712 167.596 98.5085 167.596 98.248C167.596 97.6621 168.328 97.3691 169.793 97.3691C170.086 97.3691 170.395 97.4342 170.721 97.5645C171.632 97.4017 173.162 96.5228 175.311 94.9277H174.09C172.918 94.9277 171.632 94.7324 170.232 94.3418C168.117 94.0488 166.538 93.5931 165.496 92.9746C165.236 92.8118 164.503 92.5352 163.299 92.1445C162.745 91.7539 162.469 91.1842 162.469 90.4355V90.2891H162.518C163.299 90.8099 163.803 91.0703 164.031 91.0703H164.471C164.666 91.0703 164.812 91.0052 164.91 90.875C164.91 90.7773 164.503 90.4518 163.689 89.8984C163.494 89.638 163.315 89.166 163.152 88.4824C162.859 88.0918 162.436 87.8965 161.883 87.8965C161.655 87.8965 161.541 87.8314 161.541 87.7012V87.2617C161.541 87.0339 162.111 86.8874 163.25 86.8223L164.959 86.041C166.652 85.097 167.498 84.332 167.498 83.7461C167.596 83.4531 167.661 83.3066 167.693 83.3066L167.645 83.1602C167.612 82.4115 167.596 81.9557 167.596 81.793C167.889 79.8073 168.117 78.4401 168.279 77.6914C168.41 77.3659 168.523 76.7148 168.621 75.7383C168.914 74.8268 169.191 74.2083 169.451 73.8828H169.207C168.979 73.8828 168.654 74.0944 168.23 74.5176H168.084V74.3223C169.288 73.248 169.923 72.6296 169.988 72.4668V71.9785C169.988 71.5879 169.972 71.2298 169.939 70.9043C169.939 69.5697 170.639 68.2025 172.039 66.8027C172.69 66.0866 173.016 65.5169 173.016 65.0938C172.983 65.0286 172.967 64.9635 172.967 64.8984L173.016 64.6543C173.016 64.6217 172.999 64.6055 172.967 64.6055L173.016 64.2637C173.016 63.3197 173.064 62.6686 173.162 62.3105C173.162 62.278 173.146 62.2617 173.113 62.2617C173.113 61.0573 173.65 59.0553 174.725 56.2559L174.773 55.9141V55.8164H174.725C174.171 57.1836 173.341 58.4694 172.234 59.6738L171.014 62.3105C171.014 63.3522 170.688 63.9544 170.037 64.1172C169.809 64.1172 169.646 63.9056 169.549 63.4824C169.549 63.2546 169.988 62.3431 170.867 60.748C170.867 60.6504 171.193 59.918 171.844 58.5508C172.69 56.9557 173.113 55.6862 173.113 54.7422C173.146 54.2539 173.569 53.2936 174.383 51.8613L174.578 51.1289H174.48C172.462 54.9701 171.225 57.2487 170.77 57.9648H170.623V57.916C170.916 57.0046 171.648 55.4909 172.82 53.375C173.178 52.8542 173.602 51.8288 174.09 50.2988C174.35 50.2988 174.562 49.8431 174.725 48.9316C175.213 47.89 175.652 46.5716 176.043 44.9766C174.643 47.0924 173.943 48.4596 173.943 49.0781C173.325 50.5755 172.853 51.5033 172.527 51.8613C172.462 51.7637 172.43 51.6986 172.43 51.666C173.276 49.5176 174.106 47.1087 174.92 44.4395C175.018 43.4629 175.164 42.763 175.359 42.3398C175.49 42.3398 175.652 41.6562 175.848 40.2891C175.978 40.2891 176.108 38.7591 176.238 35.6992C176.238 35.3411 176.596 34.2344 177.312 32.3789V31.9395C177.312 31.8743 177.329 31.8418 177.361 31.8418C177.361 31.8092 177.345 31.793 177.312 31.793C177.312 31.2721 177.557 30.7839 178.045 30.3281C178.208 30.0026 178.289 29.8073 178.289 29.7422C178.257 29.3516 178.24 29.1074 178.24 29.0098C178.24 28.8796 178.501 28.3424 179.021 27.3984C179.021 26.7474 179.445 26.3079 180.291 26.0801C180.389 26.0801 181.007 25.8359 182.146 25.3477L183.123 25.25C183.514 25.3151 183.921 25.4128 184.344 25.543H185.174C187.029 25.1523 187.957 24.7943 187.957 24.4688C188.055 24.4688 188.624 24.0781 189.666 23.2969C190.154 23.069 190.757 22.9551 191.473 22.9551ZM181.756 26.0312V26.0801C182.798 26.0801 183.611 26.4219 184.197 27.1055H184.393C184.751 26.9102 184.93 26.7799 184.93 26.7148V26.666C183.432 26.1777 182.57 25.9336 182.342 25.9336L181.756 26.0312ZM179.217 28.8145V28.9609C179.217 29.1562 179.249 29.4167 179.314 29.7422C179.249 29.8724 179.217 30.0026 179.217 30.1328V30.3281L179.266 30.7188C178.973 31.2721 178.794 31.7604 178.729 32.1836C177.947 32.8021 177.557 33.3392 177.557 33.7949C177.622 34.1855 177.654 34.4297 177.654 34.5273H177.703C177.703 33.8112 178.273 33.0137 179.412 32.1348C179.738 31.972 179.9 31.6628 179.9 31.207C179.868 30.8164 179.852 30.5885 179.852 30.5234C180.079 29.6445 180.535 29.2051 181.219 29.2051H181.756L181.805 28.7656V28.668C181.707 27.9844 181.365 27.6426 180.779 27.6426H180.682C179.705 27.903 179.217 28.2936 179.217 28.8145ZM182.391 29.9375V30.0352C182.391 30.1003 182.456 30.1654 182.586 30.2305H182.732C182.765 30.2305 182.83 30.1654 182.928 30.0352V29.9863C182.928 29.9212 182.863 29.8561 182.732 29.791H182.537C182.439 29.791 182.391 29.8398 182.391 29.9375ZM177.459 35.1133C177.459 35.1458 177.426 35.2109 177.361 35.3086V35.4551H177.459C177.459 35.3574 177.475 35.2598 177.508 35.1621V35.1133H177.459ZM181.658 52.0566V52.3984C181.658 52.7891 181.902 52.9844 182.391 52.9844C182.716 52.9844 182.911 52.724 182.977 52.2031C182.814 51.8125 182.57 51.6172 182.244 51.6172C181.951 51.6823 181.756 51.8288 181.658 52.0566ZM180.877 55.9629C180.877 56.0931 180.991 56.3047 181.219 56.5977V56.8418C181.089 57.4277 181.023 57.7533 181.023 57.8184L181.219 58.4043C181.219 58.4694 181.137 58.5996 180.975 58.7949V58.9902C180.975 59.0553 181.04 59.1204 181.17 59.1855H181.219C181.382 59.153 181.593 58.9577 181.854 58.5996C181.854 58.3717 181.788 58.0788 181.658 57.7207C181.658 57.0046 181.984 56.5651 182.635 56.4023C182.96 56.207 183.123 55.9303 183.123 55.5723C183.123 55.0189 182.814 54.6771 182.195 54.5469H182.049C181.43 54.5469 181.04 55.0189 180.877 55.9629ZM180.193 59.8691V59.9668L180.242 60.3086H180.291C180.291 60.2109 180.535 59.9017 181.023 59.3809V59.2832C180.828 59.1855 180.714 59.1367 180.682 59.1367C180.356 59.2995 180.193 59.5436 180.193 59.8691ZM171.6 68.9512C171.697 68.9512 171.876 68.6257 172.137 67.9746C171.844 68.235 171.665 68.5605 171.6 68.9512ZM199.09 75.0059H199.139C200.831 73.9967 202.101 72.597 202.947 70.8066C203.598 70.0254 203.924 69.5371 203.924 69.3418C203.891 69.1139 203.826 69 203.729 69H203.68C203.322 69 202.964 69.3092 202.605 69.9277C201.336 71.0671 200.701 71.7507 200.701 71.9785C200.701 72.3366 200.392 72.8411 199.773 73.4922C199.773 73.6549 199.546 74.1595 199.09 75.0059ZM171.453 69.0488V69.1953H171.551V69.0488H171.453ZM171.062 70.7578V71.002C171.128 71.002 171.307 70.7415 171.6 70.2207C171.502 69.8301 171.453 69.5371 171.453 69.3418C171.193 69.6999 171.062 70.1719 171.062 70.7578ZM184.637 80.8164H184.734C185.092 80.6862 185.743 80.5885 186.688 80.5234C186.753 80.556 186.834 80.5723 186.932 80.5723H187.371C187.697 80.377 188.071 79.7096 188.494 78.5703C188.82 77.9193 189.357 77.4798 190.105 77.252C190.431 77.252 191.261 76.6497 192.596 75.4453C193.8 75.0547 194.402 74.6803 194.402 74.3223C194.76 73.9316 194.939 73.7201 194.939 73.6875H194.842C194.419 73.9154 193.882 74.2572 193.23 74.7129C191.896 75.0059 191.229 75.2663 191.229 75.4941C190.122 76.2428 189.536 76.6823 189.471 76.8125C188.722 77.1055 188.055 77.8542 187.469 79.0586C187.273 79.7096 186.948 80.0352 186.492 80.0352C185.613 80.0352 184.995 80.2956 184.637 80.8164ZM169.988 74.2734C169.272 74.6966 168.882 76.0964 168.816 78.4727C168.849 79.1888 168.865 79.7422 168.865 80.1328L168.621 81.8418V82.4277H168.67L169.451 78.4238V78.082C169.451 77.9193 169.354 77.5124 169.158 76.8613C169.581 75.5918 169.907 74.8594 170.135 74.6641V74.4199C170.135 74.3223 170.086 74.2734 169.988 74.2734ZM172.771 78.4238C172.902 79.2702 172.967 79.7422 172.967 79.8398L172.723 80.7188C172.788 81.5651 172.82 82.0046 172.82 82.0371L172.771 82.4277V83.9414C172.771 84.2669 172.837 84.446 172.967 84.4785C172.967 84.2507 173.097 83.681 173.357 82.7695L173.309 81.9883C173.309 81.4349 173.602 79.3353 174.188 75.6895H174.139C173.227 76.7962 172.771 77.7077 172.771 78.4238ZM193.084 81.9883L193.035 82.1348V82.1836C193.328 82.2812 193.589 82.3301 193.816 82.3301H194.158C194.288 82.3301 194.484 82.2975 194.744 82.2324C194.874 82.3301 195.005 82.3789 195.135 82.3789C195.493 82.3789 196.062 82.2975 196.844 82.1348V82.0371H193.426L193.084 81.9883ZM175.164 83.502V83.5508C175.49 85.0156 175.783 85.7806 176.043 85.8457H177.361L178.143 85.748C178.11 85.6829 177.443 85.3249 176.141 84.6738C175.555 84.153 175.262 83.7624 175.262 83.502H175.164ZM182.928 84.0879C182.57 85.1296 182.179 85.7318 181.756 85.8945V85.9434C181.951 85.9434 182.049 85.9759 182.049 86.041C182.537 86.041 183.123 85.5853 183.807 84.6738V84.5273C183.546 84.2344 183.253 84.0879 182.928 84.0879ZM170.33 86.627C170.2 87.6361 170.135 88.401 170.135 88.9219V89.2148L170.184 89.6543H170.232C171.762 89.6543 173.276 89.1823 174.773 88.2383V88.0918C174.773 87.3757 173.292 86.8548 170.33 86.5293V86.627ZM169.402 87.1152C169.402 87.1803 169.158 87.75 168.67 88.8242C168.67 89.0846 168.833 89.3125 169.158 89.5078H169.207V89.459C169.207 88.8079 169.288 88.0592 169.451 87.2129V87.1152H169.402ZM167.449 88.1406L167.596 88.2383C167.596 88.2057 167.612 88.0267 167.645 87.7012C167.579 87.7012 167.514 87.8477 167.449 88.1406ZM174.676 95.9043H174.773C177.215 95.0905 178.566 94.5859 178.826 94.3906H178.729C177.166 94.3906 175.815 94.8952 174.676 95.9043ZM222.746 22.9551C223.137 23.0853 223.332 23.3132 223.332 23.6387C223.039 24.2246 222.567 24.5176 221.916 24.5176C221.395 24.4199 221.086 24.3711 220.988 24.3711C219.621 24.9896 218.628 25.7057 218.01 26.5195C218.01 26.5846 217.733 26.7799 217.18 27.1055L217.033 27.3008V27.4961C217.066 28.1471 217.212 28.4727 217.473 28.4727H217.766C217.961 28.4727 218.221 28.2611 218.547 27.8379C218.677 27.8379 219.019 27.5938 219.572 27.1055C219.572 27.1706 219.589 27.2031 219.621 27.2031C219.133 28.5378 218.449 29.8236 217.57 31.0605C217.375 31.2559 217.277 31.5 217.277 31.793V32.1836C217.505 33.4531 217.619 34.2507 217.619 34.5762C217.619 35.5527 217.245 36.7246 216.496 38.0918C216.333 38.6126 216.252 39.3125 216.252 40.1914V41.168C216.252 41.6562 215.878 42.877 215.129 44.8301C215.096 45.0905 215.08 45.2858 215.08 45.416C215.08 45.8717 215.064 47.0273 215.031 48.8828C215.422 50.543 215.617 51.487 215.617 51.7148V52.0078C215.52 52.5938 215.471 52.9518 215.471 53.082C215.633 54.4818 215.715 55.2956 215.715 55.5234C215.715 57.8346 215.08 58.9902 213.811 58.9902C213.452 58.9902 213.078 59.2995 212.688 59.918C212.492 59.918 212.215 60.6504 211.857 62.1152V62.75C211.857 64.3451 210.555 67.2585 207.951 71.4902C207.17 73.0527 206.779 73.9967 206.779 74.3223V74.4199C206.779 74.8431 206.763 75.4779 206.73 76.3242H206.633C206.633 76.3893 206.665 76.4219 206.73 76.4219L206.633 76.7148V79.3516C206.633 79.3841 206.617 79.4004 206.584 79.4004C206.584 79.4329 206.6 79.4492 206.633 79.4492L206.584 79.791V80.377C206.584 80.4095 206.568 80.4258 206.535 80.4258L206.584 80.5723V81.3535C206.747 82.0371 207.219 82.8509 208 83.7949C209.53 84.9342 210.327 85.5039 210.393 85.5039C210.49 85.5365 210.555 85.5527 210.588 85.5527C212.215 85.1621 213.029 84.5111 213.029 83.5996C213.225 83.209 213.615 82.6719 214.201 81.9883V81.8418C214.201 81.8092 214.071 81.6953 213.811 81.5L213.322 81.5488H213.225L212.736 81.5C212.476 81.9232 212.264 82.1348 212.102 82.1348C211.743 82.1348 211.564 81.9232 211.564 81.5C211.564 81.0768 211.939 80.7188 212.688 80.4258C212.688 80.3281 213.094 80.1165 213.908 79.791C214.266 79.6283 214.576 79.3678 214.836 79.0098C215.91 78.6191 216.512 78.4238 216.643 78.4238L217.424 78.7656C218.042 77.9518 218.352 77.3984 218.352 77.1055C218.547 76.6497 219.1 76.2917 220.012 76.0312C220.826 75.7383 221.542 75.071 222.16 74.0293C222.486 73.4759 223.267 73.0527 224.504 72.7598C224.862 72.7598 225.839 72.3366 227.434 71.4902C227.857 71.2949 228.345 71.1973 228.898 71.1973H230.412C230.9 71.1973 231.698 70.6764 232.805 69.6348C233.098 69.4395 233.602 69 234.318 68.3164C234.514 68.1862 234.79 68.1211 235.148 68.1211C235.669 68.1211 236.011 68.5443 236.174 69.3906C236.174 69.4883 236.206 69.5697 236.271 69.6348C236.271 70.7741 234.969 72.3691 232.365 74.4199C231.877 75.1361 231.242 75.6406 230.461 75.9336C229.777 76.7799 229.11 77.4147 228.459 77.8379C228.459 77.9355 227.71 78.7005 226.213 80.1328C225.92 80.1979 225.66 80.3607 225.432 80.6211V80.9141C225.497 80.9141 225.594 80.9466 225.725 81.0117C229.468 80.9141 231.34 80.7188 231.34 80.4258C232.382 80.2305 233.13 80.0352 233.586 79.8398V79.7422H233.537C233.081 79.7422 232.3 79.8398 231.193 80.0352C232.43 79.2214 234.221 78.8145 236.564 78.8145C238.322 77.7728 239.641 77.252 240.52 77.252C240.65 77.252 240.829 77.2357 241.057 77.2031C242.359 77.3984 243.01 77.7891 243.01 78.375V78.6191C243.01 79.2702 242.147 79.6445 240.422 79.7422C234.888 80.7839 231.698 81.5488 230.852 82.0371C227.661 83.6322 225.757 84.5111 225.139 84.6738C224.26 85.3249 223.723 85.9759 223.527 86.627C223.625 87.0827 223.674 87.4245 223.674 87.6523C223.511 88.2383 223.348 88.5638 223.186 88.6289C223.055 88.5312 222.893 88.4824 222.697 88.4824C222.079 88.6452 221.77 88.9056 221.77 89.2637C221.77 89.3939 222.095 89.5404 222.746 89.7031C222.779 89.8008 222.827 89.8496 222.893 89.8496C223.381 89.8171 223.658 89.7682 223.723 89.7031C223.788 89.7682 223.902 89.8008 224.064 89.8008C224.39 89.8008 224.553 89.752 224.553 89.6543L224.895 89.7031H225.48C226.457 89.4753 227.824 89.2148 229.582 88.9219C230.103 88.9544 230.363 89.1497 230.363 89.5078C230.201 90.4193 229.696 90.875 228.85 90.875H228.605C227.857 90.6797 227.059 90.5332 226.213 90.4355C226.213 90.3379 226.148 90.2891 226.018 90.2891C224.976 90.6146 223.641 90.9076 222.014 91.168C221.167 91.8516 219.719 92.3398 217.668 92.6328C216.04 92.8607 214.576 93.235 213.273 93.7559C210.865 94.8626 208.033 95.9206 204.777 96.9297C204.322 97.0924 203.638 97.418 202.727 97.9062C201.522 98.4596 200.448 98.7363 199.504 98.7363C199.081 98.6712 198.869 98.5085 198.869 98.248C198.869 97.6621 199.602 97.3691 201.066 97.3691C201.359 97.3691 201.669 97.4342 201.994 97.5645C202.906 97.4017 204.436 96.5228 206.584 94.9277H205.363C204.191 94.9277 202.906 94.7324 201.506 94.3418C199.39 94.0488 197.811 93.5931 196.77 92.9746C196.509 92.8118 195.777 92.5352 194.572 92.1445C194.019 91.7539 193.742 91.1842 193.742 90.4355V90.2891H193.791C194.572 90.8099 195.077 91.0703 195.305 91.0703H195.744C195.939 91.0703 196.086 91.0052 196.184 90.875C196.184 90.7773 195.777 90.4518 194.963 89.8984C194.768 89.638 194.589 89.166 194.426 88.4824C194.133 88.0918 193.71 87.8965 193.156 87.8965C192.928 87.8965 192.814 87.8314 192.814 87.7012V87.2617C192.814 87.0339 193.384 86.8874 194.523 86.8223L196.232 86.041C197.925 85.097 198.771 84.332 198.771 83.7461C198.869 83.4531 198.934 83.3066 198.967 83.3066L198.918 83.1602C198.885 82.4115 198.869 81.9557 198.869 81.793C199.162 79.8073 199.39 78.4401 199.553 77.6914C199.683 77.3659 199.797 76.7148 199.895 75.7383C200.188 74.8268 200.464 74.2083 200.725 73.8828H200.48C200.253 73.8828 199.927 74.0944 199.504 74.5176H199.357V74.3223C200.562 73.248 201.197 72.6296 201.262 72.4668V71.9785C201.262 71.5879 201.245 71.2298 201.213 70.9043C201.213 69.5697 201.913 68.2025 203.312 66.8027C203.964 66.0866 204.289 65.5169 204.289 65.0938C204.257 65.0286 204.24 64.9635 204.24 64.8984L204.289 64.6543C204.289 64.6217 204.273 64.6055 204.24 64.6055L204.289 64.2637C204.289 63.3197 204.338 62.6686 204.436 62.3105C204.436 62.278 204.419 62.2617 204.387 62.2617C204.387 61.0573 204.924 59.0553 205.998 56.2559L206.047 55.9141V55.8164H205.998C205.445 57.1836 204.615 58.4694 203.508 59.6738L202.287 62.3105C202.287 63.3522 201.962 63.9544 201.311 64.1172C201.083 64.1172 200.92 63.9056 200.822 63.4824C200.822 63.2546 201.262 62.3431 202.141 60.748C202.141 60.6504 202.466 59.918 203.117 58.5508C203.964 56.9557 204.387 55.6862 204.387 54.7422C204.419 54.2539 204.842 53.2936 205.656 51.8613L205.852 51.1289H205.754C203.736 54.9701 202.499 57.2487 202.043 57.9648H201.896V57.916C202.189 57.0046 202.922 55.4909 204.094 53.375C204.452 52.8542 204.875 51.8288 205.363 50.2988C205.624 50.2988 205.835 49.8431 205.998 48.9316C206.486 47.89 206.926 46.5716 207.316 44.9766C205.917 47.0924 205.217 48.4596 205.217 49.0781C204.598 50.5755 204.126 51.5033 203.801 51.8613C203.736 51.7637 203.703 51.6986 203.703 51.666C204.549 49.5176 205.38 47.1087 206.193 44.4395C206.291 43.4629 206.438 42.763 206.633 42.3398C206.763 42.3398 206.926 41.6562 207.121 40.2891C207.251 40.2891 207.382 38.7591 207.512 35.6992C207.512 35.3411 207.87 34.2344 208.586 32.3789V31.9395C208.586 31.8743 208.602 31.8418 208.635 31.8418C208.635 31.8092 208.618 31.793 208.586 31.793C208.586 31.2721 208.83 30.7839 209.318 30.3281C209.481 30.0026 209.562 29.8073 209.562 29.7422C209.53 29.3516 209.514 29.1074 209.514 29.0098C209.514 28.8796 209.774 28.3424 210.295 27.3984C210.295 26.7474 210.718 26.3079 211.564 26.0801C211.662 26.0801 212.281 25.8359 213.42 25.3477L214.396 25.25C214.787 25.3151 215.194 25.4128 215.617 25.543H216.447C218.303 25.1523 219.23 24.7943 219.23 24.4688C219.328 24.4688 219.898 24.0781 220.939 23.2969C221.428 23.069 222.03 22.9551 222.746 22.9551ZM213.029 26.0312V26.0801C214.071 26.0801 214.885 26.4219 215.471 27.1055H215.666C216.024 26.9102 216.203 26.7799 216.203 26.7148V26.666C214.706 26.1777 213.843 25.9336 213.615 25.9336L213.029 26.0312ZM210.49 28.8145V28.9609C210.49 29.1562 210.523 29.4167 210.588 29.7422C210.523 29.8724 210.49 30.0026 210.49 30.1328V30.3281L210.539 30.7188C210.246 31.2721 210.067 31.7604 210.002 32.1836C209.221 32.8021 208.83 33.3392 208.83 33.7949C208.895 34.1855 208.928 34.4297 208.928 34.5273H208.977C208.977 33.8112 209.546 33.0137 210.686 32.1348C211.011 31.972 211.174 31.6628 211.174 31.207C211.141 30.8164 211.125 30.5885 211.125 30.5234C211.353 29.6445 211.809 29.2051 212.492 29.2051H213.029L213.078 28.7656V28.668C212.98 27.9844 212.639 27.6426 212.053 27.6426H211.955C210.979 27.903 210.49 28.2936 210.49 28.8145ZM213.664 29.9375V30.0352C213.664 30.1003 213.729 30.1654 213.859 30.2305H214.006C214.038 30.2305 214.104 30.1654 214.201 30.0352V29.9863C214.201 29.9212 214.136 29.8561 214.006 29.791H213.811C213.713 29.791 213.664 29.8398 213.664 29.9375ZM208.732 35.1133C208.732 35.1458 208.7 35.2109 208.635 35.3086V35.4551H208.732C208.732 35.3574 208.749 35.2598 208.781 35.1621V35.1133H208.732ZM212.932 52.0566V52.3984C212.932 52.7891 213.176 52.9844 213.664 52.9844C213.99 52.9844 214.185 52.724 214.25 52.2031C214.087 51.8125 213.843 51.6172 213.518 51.6172C213.225 51.6823 213.029 51.8288 212.932 52.0566ZM212.15 55.9629C212.15 56.0931 212.264 56.3047 212.492 56.5977V56.8418C212.362 57.4277 212.297 57.7533 212.297 57.8184L212.492 58.4043C212.492 58.4694 212.411 58.5996 212.248 58.7949V58.9902C212.248 59.0553 212.313 59.1204 212.443 59.1855H212.492C212.655 59.153 212.867 58.9577 213.127 58.5996C213.127 58.3717 213.062 58.0788 212.932 57.7207C212.932 57.0046 213.257 56.5651 213.908 56.4023C214.234 56.207 214.396 55.9303 214.396 55.5723C214.396 55.0189 214.087 54.6771 213.469 54.5469H213.322C212.704 54.5469 212.313 55.0189 212.15 55.9629ZM211.467 59.8691V59.9668L211.516 60.3086H211.564C211.564 60.2109 211.809 59.9017 212.297 59.3809V59.2832C212.102 59.1855 211.988 59.1367 211.955 59.1367C211.63 59.2995 211.467 59.5436 211.467 59.8691ZM202.873 68.9512C202.971 68.9512 203.15 68.6257 203.41 67.9746C203.117 68.235 202.938 68.5605 202.873 68.9512ZM230.363 75.0059H230.412C232.105 73.9967 233.374 72.597 234.221 70.8066C234.872 70.0254 235.197 69.5371 235.197 69.3418C235.165 69.1139 235.1 69 235.002 69H234.953C234.595 69 234.237 69.3092 233.879 69.9277C232.609 71.0671 231.975 71.7507 231.975 71.9785C231.975 72.3366 231.665 72.8411 231.047 73.4922C231.047 73.6549 230.819 74.1595 230.363 75.0059ZM202.727 69.0488V69.1953H202.824V69.0488H202.727ZM202.336 70.7578V71.002C202.401 71.002 202.58 70.7415 202.873 70.2207C202.775 69.8301 202.727 69.5371 202.727 69.3418C202.466 69.6999 202.336 70.1719 202.336 70.7578ZM215.91 80.8164H216.008C216.366 80.6862 217.017 80.5885 217.961 80.5234C218.026 80.556 218.107 80.5723 218.205 80.5723H218.645C218.97 80.377 219.344 79.7096 219.768 78.5703C220.093 77.9193 220.63 77.4798 221.379 77.252C221.704 77.252 222.535 76.6497 223.869 75.4453C225.074 75.0547 225.676 74.6803 225.676 74.3223C226.034 73.9316 226.213 73.7201 226.213 73.6875H226.115C225.692 73.9154 225.155 74.2572 224.504 74.7129C223.169 75.0059 222.502 75.2663 222.502 75.4941C221.395 76.2428 220.809 76.6823 220.744 76.8125C219.995 77.1055 219.328 77.8542 218.742 79.0586C218.547 79.7096 218.221 80.0352 217.766 80.0352C216.887 80.0352 216.268 80.2956 215.91 80.8164ZM201.262 74.2734C200.546 74.6966 200.155 76.0964 200.09 78.4727C200.122 79.1888 200.139 79.7422 200.139 80.1328L199.895 81.8418V82.4277H199.943L200.725 78.4238V78.082C200.725 77.9193 200.627 77.5124 200.432 76.8613C200.855 75.5918 201.18 74.8594 201.408 74.6641V74.4199C201.408 74.3223 201.359 74.2734 201.262 74.2734ZM204.045 78.4238C204.175 79.2702 204.24 79.7422 204.24 79.8398L203.996 80.7188C204.061 81.5651 204.094 82.0046 204.094 82.0371L204.045 82.4277V83.9414C204.045 84.2669 204.11 84.446 204.24 84.4785C204.24 84.2507 204.37 83.681 204.631 82.7695L204.582 81.9883C204.582 81.4349 204.875 79.3353 205.461 75.6895H205.412C204.501 76.7962 204.045 77.7077 204.045 78.4238ZM224.357 81.9883L224.309 82.1348V82.1836C224.602 82.2812 224.862 82.3301 225.09 82.3301H225.432C225.562 82.3301 225.757 82.2975 226.018 82.2324C226.148 82.3301 226.278 82.3789 226.408 82.3789C226.766 82.3789 227.336 82.2975 228.117 82.1348V82.0371H224.699L224.357 81.9883ZM206.438 83.502V83.5508C206.763 85.0156 207.056 85.7806 207.316 85.8457H208.635L209.416 85.748C209.383 85.6829 208.716 85.3249 207.414 84.6738C206.828 84.153 206.535 83.7624 206.535 83.502H206.438ZM214.201 84.0879C213.843 85.1296 213.452 85.7318 213.029 85.8945V85.9434C213.225 85.9434 213.322 85.9759 213.322 86.041C213.811 86.041 214.396 85.5853 215.08 84.6738V84.5273C214.82 84.2344 214.527 84.0879 214.201 84.0879ZM201.604 86.627C201.473 87.6361 201.408 88.401 201.408 88.9219V89.2148L201.457 89.6543H201.506C203.036 89.6543 204.549 89.1823 206.047 88.2383V88.0918C206.047 87.3757 204.566 86.8548 201.604 86.5293V86.627ZM200.676 87.1152C200.676 87.1803 200.432 87.75 199.943 88.8242C199.943 89.0846 200.106 89.3125 200.432 89.5078H200.48V89.459C200.48 88.8079 200.562 88.0592 200.725 87.2129V87.1152H200.676ZM198.723 88.1406L198.869 88.2383C198.869 88.2057 198.885 88.0267 198.918 87.7012C198.853 87.7012 198.788 87.8477 198.723 88.1406ZM205.949 95.9043H206.047C208.488 95.0905 209.839 94.5859 210.1 94.3906H210.002C208.439 94.3906 207.089 94.8952 205.949 95.9043Z" fill="white"/>
</svg>
