<svg width="146" height="93" viewBox="0 0 146 93" fill="none" xmlns="http://www.w3.org/2000/svg">
<path d="M34.8125 3.06836C35.5612 3.06836 35.9355 3.62174 35.9355 4.72852V4.92383C35.7402 6.25846 34.9753 7.54427 33.6406 8.78125C33.0221 9.13932 32.5827 9.85547 32.3223 10.9297C31.9316 12.1667 31.1341 13.4036 29.9297 14.6406V14.4941C30.5482 13.4199 30.8574 12.6875 30.8574 12.2969C30.4017 12.8503 29.653 14.0059 28.6113 15.7637C27.472 19.3444 26.5768 21.5905 25.9258 22.502C26.2839 23.0879 26.4629 23.5273 26.4629 23.8203L26.0723 25.7246C26.1048 26.0501 26.1211 26.2454 26.1211 26.3105L27.293 26.0664L27.3418 26.2129C26.5605 27.0267 26.1699 27.8405 26.1699 28.6543C26.1699 29.1751 26.3001 29.582 26.5605 29.875C26.5605 30.3633 26.056 30.8678 25.0469 31.3887C23.9727 32.2025 23.2077 32.9837 22.752 33.7324L22.7031 33.5859V32.8535C22.7031 32.6582 22.7845 32.3327 22.9473 31.877C22.9473 31.6491 22.8333 31.4375 22.6055 31.2422C21.694 31.763 20.6849 32.0234 19.5781 32.0234C18.6667 32.4141 17.8366 33.4883 17.0879 35.2461C16.4368 37.5247 15.9323 39.1849 15.5742 40.2266V41.2031L15.6719 41.6426H15.7207C19.2363 37.7038 21.043 35.7344 21.1406 35.7344C21.3034 35.6367 21.4499 35.5879 21.5801 35.5879H21.7754C22.0684 35.5879 22.5729 35.9297 23.2891 36.6133L23.4355 36.7109H23.4844C23.7448 36.7109 24.0703 36.6784 24.4609 36.6133C24.9818 36.7435 25.2422 37.0039 25.2422 37.3945C25.2422 38.2734 25.4701 38.7129 25.9258 38.7129C25.9258 38.6152 25.9746 38.5664 26.0723 38.5664C26.235 39.0221 26.3164 39.2988 26.3164 39.3965V39.8848C26.0885 41.0892 25.9746 41.7728 25.9746 41.9355V42.2285C26.4954 42.0332 27.1953 41.3659 28.0742 40.2266H28.123C28.2858 40.3568 28.5462 40.4382 28.9043 40.4707V40.5684C28.7415 41.5124 28.4811 41.9844 28.123 41.9844C28.0905 41.9518 28.0742 41.8053 28.0742 41.5449C25.9583 44.084 24.9004 45.5651 24.9004 45.9883L25.9258 45.7441L25.9746 45.8906C25.2259 46.5417 24.1517 47.9577 22.752 50.1387C22.0684 51.0501 21.7266 51.6686 21.7266 51.9941C21.8242 52.2871 21.873 52.4987 21.873 52.6289V52.873C21.7754 53.1986 21.3848 54.0775 20.7012 55.5098C20.2129 57.2676 19.7083 58.9766 19.1875 60.6367C18.9271 62.1016 18.7806 63.1758 18.748 63.8594H18.9434C19.9525 63.7617 20.5059 63.5827 20.6035 63.3223V62.248C20.6035 61.6296 21.3034 61.3203 22.7031 61.3203C23.0286 61.3203 23.3216 60.8809 23.582 60.002L25.0469 57.3164C26.1536 56.2747 26.8861 55.3958 27.2441 54.6797C26.9512 53.4753 26.5768 52.873 26.1211 52.873C24.6888 52.873 23.8587 52.6452 23.6309 52.1895C23.5007 51.929 23.4355 51.75 23.4355 51.6523V51.0176C23.7285 50.0085 24.054 49.5039 24.4121 49.5039C24.4121 49.4062 24.6888 49.3411 25.2422 49.3086C26.3164 49.4062 27.3906 49.8945 28.4648 50.7734C28.5951 51.099 28.8229 52.043 29.1484 53.6055C29.0508 54.3216 29.002 54.7936 29.002 55.0215C29.002 55.4121 29.3275 55.8027 29.9785 56.1934C30.2715 56.5189 30.597 57.4466 30.9551 58.9766H30.8574C30.8574 59.0091 30.89 59.0254 30.9551 59.0254C30.9551 59.3835 30.6947 60.4251 30.1738 62.1504L30.2715 62.9805C30.2715 63.8268 29.7832 64.6732 28.8066 65.5195C28.5462 66.0404 28.416 66.9355 28.416 68.2051C27.5371 71.1022 27.0977 72.86 27.0977 73.4785C27.1302 73.5762 27.1465 73.6576 27.1465 73.7227H27.0977C27.1302 73.8854 27.1953 74.3249 27.293 75.041C26.6745 75.4967 25.8444 77.1243 24.8027 79.9238C24.8027 80.3145 24.7865 80.5098 24.7539 80.5098L24.8027 80.6562C24.8027 80.7214 24.7865 80.7539 24.7539 80.7539C24.7539 81.6003 25.3561 82.3001 26.5605 82.8535C26.821 83.179 26.9512 83.4883 26.9512 83.7812C26.9512 84.3672 26.3327 84.8229 25.0957 85.1484C23.9238 85.1484 23.2402 84.7741 23.0449 84.0254C22.8171 83.6348 22.7031 82.9349 22.7031 81.9258C22.7031 81.0794 23.0938 79.9727 23.875 78.6055C24.0378 77.8893 24.1191 77.1732 24.1191 76.457H24.2168C24.4772 76.6849 24.6074 77.0755 24.6074 77.6289C24.7702 77.4661 25.1445 76.5059 25.7305 74.748V74.6016C25.6654 73.5924 25.6328 72.6973 25.6328 71.916V71.623H25.584C25.3561 73.0553 25.0794 73.7715 24.7539 73.7715C24.3307 74.3574 23.9076 74.6504 23.4844 74.6504C23.2565 74.6504 23.0286 74.4551 22.8008 74.0645C22.8008 73.6738 23.1914 73.4134 23.9727 73.2832C24.2005 73.2507 24.3958 72.9251 24.5586 72.3066C24.5586 72.2741 24.526 72.2578 24.4609 72.2578C25.1445 70.207 25.4863 69.1328 25.4863 69.0352V66.8379C25.4863 66.6426 25.5677 66.3822 25.7305 66.0566V66.0078H25.6328C25.3724 66.431 24.9167 66.9844 24.2656 67.668H24.2168V67.5703C25.4538 65.3568 26.0723 64.2174 26.0723 64.1523L26.1211 63.4199C26.1211 62.9642 25.9909 62.7363 25.7305 62.7363C25.3724 62.834 24.9329 63.3223 24.4121 64.2012C23.9238 64.7871 23.1426 65.4056 22.0684 66.0566C21.873 66.252 21.7754 66.431 21.7754 66.5938C21.7754 66.7565 21.8242 66.9518 21.9219 67.1797C21.9219 67.5703 21.4824 67.9772 20.6035 68.4004C20.5059 68.9863 20.457 69.3607 20.457 69.5234C21.4661 70.3372 21.9707 71.1999 21.9707 72.1113V72.209L21.873 72.4043V73.2344C21.6777 74.4388 21.2871 75.041 20.7012 75.041C20.278 74.9108 20.0664 74.7155 20.0664 74.4551L20.6035 72.7949V72.5996C20.6035 72.502 20.4896 72.4368 20.2617 72.4043C19.2852 72.4043 18.4062 72.9251 17.625 73.9668C17.5924 73.9668 16.8926 74.7155 15.5254 76.2129V76.0664C16.0788 74.862 16.6484 73.8691 17.2344 73.0879H17.1855C16.8926 73.153 16.5345 73.4297 16.1113 73.918C16.0462 73.8854 15.9811 73.8691 15.916 73.8691C13.9954 77.1243 12.5794 79.6634 11.668 81.4863H11.5215C11.9447 79.5983 12.7259 77.4661 13.8652 75.0898L13.9141 74.748C12.8398 76.0827 11.8796 77.4336 11.0332 78.8008C8.75456 80.7865 7.56641 82.1699 7.46875 82.9512C7.14323 83.6022 6.70378 84.2207 6.15039 84.8066L6.05273 85.1973V85.6855L6.49219 87.1016C6.26432 87.8177 6.03646 88.1758 5.80859 88.1758C4.40885 88.1758 3.70898 87.8177 3.70898 87.1016C3.64388 87.1016 3.61133 86.8574 3.61133 86.3691C3.61133 85.5228 4.45768 83.9928 6.15039 81.7793C6.31315 81.0306 6.39453 80.5749 6.39453 80.4121C6.39453 79.7611 6.03646 79.2565 5.32031 78.8984L4.14844 77.3848C3.72526 77.3848 3.04167 78.1823 2.09766 79.7773C1.77214 80.4609 1.41406 81.0306 1.02344 81.4863C0.958333 81.4863 0.925781 81.4212 0.925781 81.291C0.925781 80.998 1.12109 79.8424 1.51172 77.8242C1.51172 77.2057 1.78841 76.0339 2.3418 74.3086V74.2598C2.3418 74.1621 2.0651 73.7064 1.51172 72.8926V72.5508C1.51172 72.1276 2.24414 71.1999 3.70898 69.7676C4.13216 69.2467 4.34375 68.7747 4.34375 68.3516C4.3112 68.0911 4.29492 67.8796 4.29492 67.7168V67.1797C4.55534 66.0404 4.68555 65.4219 4.68555 65.3242C4.68555 65.0312 4.52279 63.485 4.19727 60.6855V59.5625C4.58789 57.4141 4.86458 56.3398 5.02734 56.3398H5.125L5.17383 56.6816V57.2188L5.125 57.707C5.22266 57.707 5.33659 58.0814 5.4668 58.8301C5.88997 60.1647 6.45964 60.832 7.17578 60.832H7.22461C7.74544 60.832 8.23372 60.2624 8.68945 59.123C8.68945 59.0579 8.67318 59.0254 8.64062 59.0254L8.68945 58.6836V58.5371C8.68945 58.3743 8.67318 58.2604 8.64062 58.1953C8.80339 57.2839 8.88477 56.4538 8.88477 55.7051V55.168C8.88477 54.5169 8.77083 53.6706 8.54297 52.6289H8.64062C9.45443 53.7031 9.86133 54.7611 9.86133 55.8027H9.91016C10.0729 53.1986 10.3496 51.75 10.7402 51.457C11.3587 50.7409 11.9121 49.8132 12.4004 48.6738V48.625C11.7493 49.0807 11.1309 49.3086 10.5449 49.3086H10.2031C9.0638 48.9505 8.49414 48.5436 8.49414 48.0879C8.20117 47.209 7.98958 46.7695 7.85938 46.7695C7.59896 47.0625 7.46875 47.4531 7.46875 47.9414V48.0879C7.46875 48.5436 7.85938 48.9017 8.64062 49.1621C9.22656 49.4876 9.51953 49.6829 9.51953 49.748L9.03125 49.8457C7.24089 49.4225 6.3457 48.918 6.3457 48.332C6.24805 48.2669 6.18294 47.974 6.15039 47.4531V46.623C5.92253 44.7025 5.80859 43.5794 5.80859 43.2539C6.13411 40.3893 6.29688 38.5664 6.29688 37.7852C6.85026 35.6367 7.4362 34.0417 8.05469 33C8.38021 32.5117 8.72201 31.5677 9.08008 30.168C9.89388 29.0938 10.7077 28.0521 11.5215 27.043C12.9538 24.0807 14.0605 22.1764 14.8418 21.3301C15.6556 20.7116 16.4043 19.5397 17.0879 17.8145C17.2832 17.6191 17.5436 17.2448 17.8691 16.6914C17.804 16.4635 17.7715 16.3333 17.7715 16.3008C17.7715 16.138 17.8691 15.7311 18.0645 15.0801C18.0319 14.7546 18.0156 14.4941 18.0156 14.2988C18.1458 13.1595 18.6016 12.5898 19.3828 12.5898H20.0664C20.2943 12.7201 20.4082 12.8828 20.4082 13.0781C20.4082 13.3385 19.8385 14.5755 18.6992 16.7891C18.4388 16.9844 18.1296 17.7331 17.7715 19.0352C17.7389 19.0677 17.5762 19.4258 17.2832 20.1094C17.3809 20.1094 17.4297 20.1419 17.4297 20.207V21.1348C17.4297 21.1999 17.4948 21.265 17.625 21.3301H18.0156C18.5039 21.0046 18.748 20.6302 18.748 20.207C18.748 20.1419 18.5039 19.8978 18.0156 19.4746V19.4258C18.0156 19.0026 18.9271 18.612 20.75 18.2539C21.3034 18.2539 21.8242 18.791 22.3125 19.8652H22.459C23.1751 19.4746 23.6797 18.9701 23.9727 18.3516C27.6185 14.6081 29.5065 12.3457 29.6367 11.5645C31.5573 8.37435 32.8919 5.91667 33.6406 4.19141C33.9987 3.44271 34.3893 3.06836 34.8125 3.06836ZM25.584 20.3535V20.9883H25.6328C25.6979 20.9883 25.9095 20.3372 26.2676 19.0352C26.3978 18.7422 26.6094 18.1074 26.9023 17.1309C26.2513 17.9447 25.9258 18.7259 25.9258 19.4746C25.6979 19.8978 25.584 20.1908 25.584 20.3535ZM19.9199 19.0352C20.7012 19.0352 21.0918 19.3444 21.0918 19.9629C21.0918 20.1908 21.1081 20.3047 21.1406 20.3047L21.0918 20.6465V21.2812C21.0918 21.3464 21.1406 21.3789 21.2383 21.3789C21.2708 21.3789 21.4499 21.3626 21.7754 21.3301C22.4264 21.3301 23.1589 21.8997 23.9727 23.0391C24.0378 23.1367 24.0703 23.2181 24.0703 23.2832H24.1191V22.9902C24.1191 21.8184 23.4844 21.0371 22.2148 20.6465C21.9219 20.6465 21.7754 20.5326 21.7754 20.3047C21.4499 19.3281 21.0592 18.8398 20.6035 18.8398H20.457C20.099 18.8724 19.9199 18.9375 19.9199 19.0352ZM18.0156 31.3887C18.6341 30.9004 19.4805 30.6562 20.5547 30.6562V30.5586C20.4896 29.875 20.3757 29.5332 20.2129 29.5332C19.5293 29.5332 18.8132 30.0866 18.0645 31.1934C18.0319 31.291 18.0156 31.3561 18.0156 31.3887ZM15.2812 34.2207V34.5137C15.2812 34.5788 15.3626 34.6439 15.5254 34.709H15.6719C15.737 34.6764 15.8184 34.5625 15.916 34.3672C15.8509 34.1719 15.7858 34.0742 15.7207 34.0742H15.4277C15.3301 34.1068 15.2812 34.1556 15.2812 34.2207ZM14.5488 35.6855V35.7344C14.5488 35.9948 14.679 36.2064 14.9395 36.3691H15.0371C15.3952 36.3691 15.5742 36.1413 15.5742 35.6855C15.5742 35.3926 15.3952 35.2298 15.0371 35.1973C14.7116 35.1973 14.5488 35.36 14.5488 35.6855ZM20.0664 38.8594C20.6849 38.3711 21.1406 38.127 21.4336 38.127C21.5312 38.127 21.6289 38.1595 21.7266 38.2246C22.0521 38.1595 22.3288 38.127 22.5566 38.127C23.0449 38.127 23.4844 38.3874 23.875 38.9082V38.7617C23.875 37.8828 22.9961 37.4434 21.2383 37.4434C20.8477 37.4434 20.457 37.9154 20.0664 38.8594ZM10.6426 42.8145C10.6426 42.9772 10.8867 43.3516 11.375 43.9375V44.1328C11.2773 44.4909 11.2285 44.7188 11.2285 44.8164C11.4564 45.0117 11.668 45.1094 11.8633 45.1094C12.0911 45.1094 12.7585 44.4421 13.8652 43.1074C14.1257 42.8145 14.3372 41.4635 14.5 39.0547C14.3698 38.0781 14.1257 37.5898 13.7676 37.5898C13.2142 37.9479 12.5632 38.6641 11.8145 39.7383C11.0332 40.9753 10.6426 42.0007 10.6426 42.8145ZM15.8672 56.5352H15.916C16.5345 55.9492 17.1855 55.6074 17.8691 55.5098C17.8691 55.0215 18.276 54.7448 19.0898 54.6797L19.2363 54.1914V53.5078L19.2852 53.0195C18.3086 53.5729 17.2344 54.6634 16.0625 56.291C16.0299 56.291 15.9648 56.3724 15.8672 56.5352ZM17.7227 57.9512C16.5833 59.3184 16.0137 60.3438 16.0137 61.0273V61.7109C16.0137 62.069 15.6556 62.5085 14.9395 63.0293L12.8887 66.5449V66.5938C13.4746 66.2682 14.3698 65.8776 15.5742 65.4219C16.4857 65.0638 16.9414 64.6081 16.9414 64.0547C17.4297 62.9154 17.9017 61.2878 18.3574 59.1719C18.097 58.3906 17.8854 57.9837 17.7227 57.9512ZM24.7539 60.5391H24.8027C25.2585 60.2135 25.6979 59.5299 26.1211 58.4883V58.3906C26.0885 58.3906 25.6328 59.1068 24.7539 60.5391ZM11.9121 73.5762C11.9121 73.6413 11.9935 73.7064 12.1562 73.7715C14.1094 72.3717 15.7044 71.1348 16.9414 70.0605V70.0117C14.6628 71.3789 12.9863 72.5671 11.9121 73.5762ZM7.22461 75.7246C6.57357 75.7246 5.9388 75.3503 5.32031 74.6016C5.15755 74.5039 5.04362 74.4551 4.97852 74.4551V75.041C4.97852 75.7246 5.59701 76.2292 6.83398 76.5547H6.98047C7.79427 76.5547 8.88477 75.806 10.252 74.3086C8.91732 75.2526 7.9082 75.7246 7.22461 75.7246ZM8.15234 79.8262C8.70573 79.1426 9.4056 78.3613 10.252 77.4824L10.3496 77.3848H10.252C9.99154 77.3848 9.34049 78.0358 8.29883 79.3379C8.20117 79.5983 8.15234 79.7611 8.15234 79.8262ZM6.49219 87.8828H6.73633C7.0293 87.9154 7.17578 87.9967 7.17578 88.127V88.3223C7.14323 88.4525 6.99674 88.5176 6.73633 88.5176H6.6875C6.42708 88.5176 6.26432 88.4362 6.19922 88.2734V88.1758C6.19922 88.1107 6.29688 88.013 6.49219 87.8828ZM64.9316 0.578125C65.7129 0.708333 66.1035 1.08268 66.1035 1.70117V1.94531C66.1035 3.44271 63.0599 6.56771 56.9727 11.3203H56.875V11.3691H56.9727C57.3307 11.2064 58.1771 10.653 59.5117 9.70898L59.5605 9.80664C59.4629 9.83919 59.2839 10.0345 59.0234 10.3926C59.0885 10.3926 59.1211 10.4251 59.1211 10.4902C57.9167 11.4017 56.5658 12.6061 55.0684 14.1035C54.9056 14.4941 54.8242 14.7708 54.8242 14.9336V15.0801C54.8242 15.1777 54.9382 15.2428 55.166 15.2754C55.6217 15.0801 56.0449 14.8034 56.4355 14.4453H56.4844V14.4941C56.4844 14.9499 55.8659 16.1217 54.6289 18.0098C54.987 18.0098 55.3125 18.5469 55.6055 19.6211C55.6055 19.7513 55.2962 20.4186 54.6777 21.623C54.6777 22.3717 54.3197 23.4785 53.6035 24.9434L53.3105 28.6055C52.7897 29.8424 52.4479 30.7865 52.2852 31.4375C52.4805 32.4792 52.985 33.6348 53.7988 34.9043C54.6452 35.4902 55.3939 35.7832 56.0449 35.7832L56.6797 35.7344C56.9401 35.8971 57.1842 35.9785 57.4121 35.9785H57.7539C57.8841 35.9785 58.2096 35.832 58.7305 35.5391C59.056 35.5391 59.4466 35.3275 59.9023 34.9043C61.2044 34.0905 61.8555 33.4069 61.8555 32.8535C61.8555 32.5605 62.0833 32.2188 62.5391 31.8281V31.7793L62.4902 31.291C62.3926 31.291 62.2786 31.5189 62.1484 31.9746H62.002C62.002 31.7793 61.9694 31.4212 61.9043 30.9004C62.5553 29.0775 62.8809 27.7591 62.8809 26.9453C63.1738 26.6198 63.3691 25.9688 63.4668 24.9922C63.7598 23.918 63.9062 22.209 63.9062 19.8652C64.1992 18.9538 64.541 17.9935 64.9316 16.9844C64.9642 16.2357 65.0293 15.8613 65.127 15.8613C65.6478 15.959 65.957 16.0078 66.0547 16.0078C66.2174 16.0078 66.3477 15.8125 66.4453 15.4219V14.9336C66.4453 14.901 66.4616 14.8848 66.4941 14.8848L66.4453 14.7383V14.6895C66.4453 14.6569 66.4616 14.6406 66.4941 14.6406C66.4941 14.1849 66.3314 13.8105 66.0059 13.5176C66.0059 13.778 65.7617 13.9082 65.2734 13.9082C64.7852 13.9082 64.3945 13.6641 64.1016 13.1758C64.1016 12.2643 64.5736 11.8086 65.5176 11.8086C65.6152 11.8737 65.8594 11.9225 66.25 11.9551L67.666 11.5156C68.8379 11.6133 69.6029 11.6621 69.9609 11.6621C70.7422 11.5645 71.1654 11.5156 71.2305 11.5156C71.2305 11.5807 71.3281 11.6621 71.5234 11.7598C71.6536 11.6296 72.1094 11.3691 72.8906 10.9785C73.6068 10.4902 74.1602 10.0182 74.5508 9.5625V9.51367C74.388 9.51367 74.3066 9.38346 74.3066 9.12305V9.02539C74.5996 8.50456 74.9577 8.24414 75.3809 8.24414H75.4785C76.0645 8.24414 76.3574 8.50456 76.3574 9.02539C76.3574 9.38346 75.8691 9.70898 74.8926 10.002C73.7533 10.946 72.9232 11.5482 72.4023 11.8086C72.4023 12.0039 72.3372 12.1016 72.207 12.1016C72.207 12.0039 72.1745 11.9551 72.1094 11.9551H71.8164C71.556 11.9876 71.4258 12.0527 71.4258 12.1504C71.5885 12.248 71.7676 12.2969 71.9629 12.2969L72.3047 12.1992C72.3698 12.9479 72.7116 13.3223 73.3301 13.3223C74.0462 13.3223 74.5996 12.9154 74.9902 12.1016C75.0879 12.1016 75.2507 12.0527 75.4785 11.9551C75.5111 12.0527 75.5273 12.1178 75.5273 12.1504C75.1042 13.3223 74.4206 14.5755 73.4766 15.9102C73.4115 15.9753 73.3626 16.2357 73.3301 16.6914C73.5579 17.6354 73.6719 18.3353 73.6719 18.791V19.0352C73.6719 20.1094 73.2975 21.2812 72.5488 22.5508L72.3535 23.8691C72.3535 23.9017 72.3698 23.918 72.4023 23.918L72.3535 24.2598V24.3574C72.3535 24.5202 72.3698 24.6341 72.4023 24.6992C72.4023 25.7083 72.0443 27.0918 71.3281 28.8496L71.2305 29.4355C71.1979 31.3887 71.1816 32.528 71.1816 32.8535C71.4421 33.9928 71.6374 34.9531 71.7676 35.7344C71.735 35.8971 71.6699 36.3529 71.5723 37.1016L71.9141 39.1035C71.8164 40.3079 71.7025 41.0892 71.5723 41.4473C71.6699 41.7728 71.7188 42.082 71.7188 42.375C71.7188 42.7331 71.3281 43.2214 70.5469 43.8398C70.3516 44.2305 70.1074 45.0605 69.8145 46.3301C69.7819 46.3301 69.7331 46.3952 69.668 46.5254C69.9609 46.5254 70.1888 46.6882 70.3516 47.0137C70.2865 47.4043 70.0911 47.5996 69.7656 47.5996C69.2773 47.4694 69.0332 47.3392 69.0332 47.209V46.5254C69.3262 45.6465 69.5378 44.6536 69.668 43.5469C70.2865 42.5703 70.5957 41.7402 70.5957 41.0566H70.5469C70.2865 41.0566 69.9772 41.2682 69.6191 41.6914C69.3587 41.6914 69.2122 42.082 69.1797 42.8633C69.1797 43.4818 68.6751 44.0677 67.666 44.6211L66.6406 47.7949V48.2832C66.6406 49.2923 66.5592 50.1224 66.3965 50.7734C66.3965 50.8385 66.4128 50.8711 66.4453 50.8711L66.25 52.2383L66.2988 53.0195C65.9733 54.2565 65.8105 54.9889 65.8105 55.2168V55.6074C65.8105 56.0306 66.1361 56.5026 66.7871 57.0234L67.0312 57.6582C66.8034 58.5697 66.4779 59.0254 66.0547 59.0254H65.8594C65.2083 59.0254 64.7526 58.6022 64.4922 57.7559V57.6094L64.834 55.9492C64.7689 55.7865 64.7363 55.6888 64.7363 55.6562H64.834L64.7363 55.5586C64.7363 55.3307 64.7201 54.5169 64.6875 53.1172C64.6875 53.0846 64.7038 52.9544 64.7363 52.7266C64.7038 52.6615 64.6875 52.5964 64.6875 52.5312H64.6387C64.1829 54.1263 63.8737 56.0306 63.7109 58.2441C63.7109 58.7324 63.1901 59.8392 62.1484 61.5645C60.5859 64.8848 59.8047 67.0332 59.8047 68.0098C59.7396 68.7585 59.707 69.3607 59.707 69.8164V72.1113C59.707 72.6647 59.6094 73.332 59.4141 74.1133C59.6419 75.7409 59.9349 76.5547 60.293 76.5547C60.6185 77.043 60.8138 77.4661 60.8789 77.8242C60.8789 78.5729 60.4395 79.0938 59.5605 79.3867H59.3164C58.6654 79.3867 58.2096 78.638 57.9492 77.1406V76.9453C57.9492 76.457 58.2422 75.1875 58.8281 73.1367C58.8281 73.0716 58.8607 72.7298 58.9258 72.1113L58.8281 71.4277C58.8932 71.1673 58.9258 70.8906 58.9258 70.5977V70.4512H58.8281C58.1445 71.9486 57.5423 73.6087 57.0215 75.4316C56.2728 77.1569 55.752 78.2474 55.459 78.7031C55.459 78.9635 54.4499 80.0866 52.4316 82.0723C50.9017 82.7884 50.0716 83.1465 49.9414 83.1465V83.2441H49.9902C50.2832 83.2441 50.5762 83.2767 50.8691 83.3418C52.4967 83.3418 53.6198 82.9023 54.2383 82.0234C54.3685 81.0794 54.7591 80.6074 55.4102 80.6074H55.6543C56.0124 80.6074 56.2728 80.7214 56.4355 80.9492V81.1445C56.3379 81.6003 56.1263 81.8281 55.8008 81.8281L55.6543 81.7793C54.6452 83.1139 53.571 83.7812 52.4316 83.7812C51.1621 83.944 50.2669 84.0742 49.7461 84.1719C48.737 84.4648 47.9557 84.6113 47.4023 84.6113C44.9935 84.6113 43.431 84.2207 42.7148 83.4395C42.4544 83.3743 42.2103 83.2116 41.9824 82.9512V82.8535C42.666 83.0814 43.2357 83.3092 43.6914 83.5371C42.9102 82.6908 42.2428 82.0397 41.6895 81.584C41.1361 80.8678 40.6478 80.2982 40.2246 79.875C39.7363 79.224 39.362 78.2962 39.1016 77.0918C39.0039 77.0592 38.9225 76.7988 38.8574 76.3105H38.9062C38.9062 76.278 38.89 76.2617 38.8574 76.2617C38.8574 76.1966 38.8737 76.1315 38.9062 76.0664C38.8737 75.8385 38.8574 75.627 38.8574 75.4316H38.7598V77.6289C38.7598 78.6055 39.0039 79.7122 39.4922 80.9492H39.4434C39.0202 80.4609 38.6296 79.4193 38.2715 77.8242C38.1087 77.8242 37.9297 76.8965 37.7344 75.041C37.6693 75.041 37.6204 74.9271 37.5879 74.6992V74.5527C37.8158 72.86 38.0436 72.0137 38.2715 72.0137C38.89 70.5814 39.3132 69.849 39.541 69.8164C40.0618 69.556 40.6478 69.4258 41.2988 69.4258H41.3965C43.4147 69.4258 44.6029 69.8164 44.9609 70.5977C45.2214 71.1836 45.3516 71.7533 45.3516 72.3066V72.502C45.3516 73.2181 44.7331 73.6738 43.4961 73.8691C43.2031 74.1296 43.0078 74.39 42.9102 74.6504C42.9102 75.3991 43.4961 75.8711 44.668 76.0664C44.8307 76.099 45.0749 76.1152 45.4004 76.1152H46.1328C47.0768 76.1152 48.2812 75.4316 49.7461 74.0645C50.8529 73.2507 51.5853 72.3717 51.9434 71.4277V71.2324C51.7806 71.3301 51.6178 71.3789 51.4551 71.3789H51.3574C51.2923 71.3789 51.2272 71.3138 51.1621 71.1836V70.9395C51.1621 70.8092 51.3249 70.7116 51.6504 70.6465C51.7155 70.7116 51.7969 70.7441 51.8945 70.7441L53.7988 67.8633C53.9941 67.6029 54.4824 65.7962 55.2637 62.4434C55.4915 60.5553 55.8984 58.8952 56.4844 57.4629C56.6471 56.8444 56.9727 56.0306 57.4609 55.0215C58.1445 52.9056 58.9095 51.1478 59.7559 49.748C60.2441 49.1621 60.4883 48.3809 60.4883 47.4043C60.2604 45.9069 60.0326 45.1582 59.8047 45.1582C59.6419 45.0931 59.4954 45.0605 59.3652 45.0605C59.0723 45.0605 58.877 45.6302 58.7793 46.7695C58.5514 47.2904 58.291 47.5508 57.998 47.5508H57.8027C57.5749 47.4531 57.4609 47.2415 57.4609 46.916C57.4609 46.6882 57.9492 45.7279 58.9258 44.0352C58.9258 43.9049 59.1536 43.319 59.6094 42.2773V42.082C59.6094 41.5938 58.9258 41.3171 57.5586 41.252H56.9727C56.4844 41.252 55.7682 41.4473 54.8242 41.8379C54.6615 41.8379 54.0755 42.0495 53.0664 42.4727C52.1549 42.7005 51.5202 42.8796 51.1621 43.0098C51.1621 43.0423 51.1458 43.0586 51.1133 43.0586C50.4948 42.9935 49.86 42.668 49.209 42.082C49.0788 42.0169 48.916 41.9844 48.7207 41.9844H48.5254C47.9395 41.9844 47.1582 42.4401 46.1816 43.3516L45.5957 43.4004C45.3678 43.3678 45.2376 43.3516 45.2051 43.3516C44.4564 43.5469 44.082 43.7585 44.082 43.9863V44.0352C44.082 44.2956 44.375 44.4909 44.9609 44.6211V44.7676C44.9609 45.028 44.7819 45.2884 44.4238 45.5488H44.1797C43.5612 45.5488 43.2031 45.0931 43.1055 44.1816C43.1055 43.6608 43.2682 42.8958 43.5938 41.8867V41.8379C42.8776 43.1725 42.2917 44.1165 41.8359 44.6699C41.4779 44.9303 41.0221 45.7116 40.4688 47.0137C40.1758 47.3392 39.9642 48.0228 39.834 49.0645C39.6061 49.5853 39.3132 49.8457 38.9551 49.8457C38.7272 49.8457 38.5807 49.6016 38.5156 49.1133C38.5156 48.9831 38.9714 48.0879 39.8828 46.4277C39.8828 46.2975 40.4199 45.1094 41.4941 42.8633C41.722 42.2122 41.9499 41.2194 42.1777 39.8848C42.9915 38.5501 43.3984 37.6875 43.3984 37.2969V37.1992H43.3008C41.543 40.6172 40.3223 42.847 39.6387 43.8887C39.5736 43.8236 39.541 43.7585 39.541 43.6934C39.541 43.5632 40.4525 41.7565 42.2754 38.2734C42.6335 37.0039 43.1055 35.8483 43.6914 34.8066V34.7578C43.6914 34.4974 43.6263 34.0905 43.4961 33.5371H43.4473C42.4382 36.1413 41.7708 37.6061 41.4453 37.9316H41.2988C41.2988 37.834 41.8685 36.2389 43.0078 33.1465C43.5286 31.6165 43.8542 30.2982 43.9844 29.1914C43.9844 29.0612 44.1146 28.8333 44.375 28.5078V28.459C44.375 28.0684 44.5215 27.1406 44.8145 25.6758V25.5781C44.4564 20.1419 44.082 16.7565 43.6914 15.4219C43.2682 13.9245 42.5684 12.362 41.5918 10.7344C41.429 10.6042 41.1849 10.4251 40.8594 10.1973C40.5664 10.2624 40.3223 10.2949 40.127 10.2949C39.3783 10.002 38.9062 9.61133 38.7109 9.12305C38.418 8.63477 38.2715 8.24414 38.2715 7.95117C38.2715 7.56055 38.6296 7.33268 39.3457 7.26758C40.8757 7.26758 42.4544 9.35091 44.082 13.5176C44.8633 15.8288 45.2539 18.3353 45.2539 21.0371H45.3516C45.8073 19.7676 46.0352 19.1003 46.0352 19.0352V18.6934C46.0352 16.8379 46.4258 15.4382 47.207 14.4941C47.5977 13.8105 47.9883 13.2897 48.3789 12.9316C48.444 13.0293 48.4766 13.0944 48.4766 13.127C48.8997 13.0944 49.209 13.0781 49.4043 13.0781H49.502C49.5996 12.9805 49.681 12.9316 49.7461 12.9316C49.974 12.9967 50.6087 13.1107 51.6504 13.2734C51.6504 13.306 51.7318 13.3223 51.8945 13.3223C52.1549 13.127 53.4082 12.4759 55.6543 11.3691C57.8027 10.2624 60.4232 8.22786 63.5156 5.26562C64.1667 4.64714 64.5573 3.86589 64.6875 2.92188V2.87305C64.6875 2.35221 64.4108 2.0918 63.8574 2.0918C63.6296 1.92904 63.5156 1.8151 63.5156 1.75V1.70117C63.5156 1.08268 63.9876 0.708333 64.9316 0.578125ZM37.0996 8.24414C37.7832 8.37435 38.125 8.68359 38.125 9.17188V9.36719C38.0273 9.85547 37.8158 10.0996 37.4902 10.0996C36.8717 9.83919 36.5625 9.51367 36.5625 9.12305V8.92773C36.5625 8.60221 36.7415 8.37435 37.0996 8.24414ZM52.627 14.0547V14.1035H52.8711L55.4102 12.3457H55.3613C53.9616 13.1595 53.0501 13.7292 52.627 14.0547ZM67.4707 13.2734V13.3711C67.4707 13.4688 67.5033 13.5664 67.5684 13.6641L67.4707 13.7617C67.4707 13.8268 67.5033 13.8594 67.5684 13.8594C67.5684 14.7057 67.373 15.2591 66.9824 15.5195L66.6406 16.4961C66.6406 16.5612 66.7057 16.6263 66.8359 16.6914C67.0638 16.3008 67.3242 16.1055 67.6172 16.1055C67.5195 15.9427 67.4707 15.7799 67.4707 15.6172L68.0078 14.6895C69.3099 14.1035 69.9609 13.5339 69.9609 12.9805C69.8958 12.7852 69.7331 12.6875 69.4727 12.6875H69.2773C68.5612 12.6875 67.9915 12.8828 67.5684 13.2734H67.4707ZM47.9395 14.8359C48.265 14.4779 48.737 14.2988 49.3555 14.2988C49.7786 14.3639 50.1693 14.6081 50.5273 15.0312L50.5762 14.6895V14.4941C50.5762 13.8105 50.1855 13.4688 49.4043 13.4688C48.4277 13.6966 47.9395 14.1523 47.9395 14.8359ZM65.9082 16.9844V17.4238C65.9082 17.5866 65.8919 17.8145 65.8594 18.1074V18.2051H65.9082L66.3965 17.1797C66.2663 17.1797 66.1361 17.1146 66.0059 16.9844H65.9082ZM52.4316 23.5273C52.9199 22.5833 53.278 21.9811 53.5059 21.7207C53.9616 21.1999 54.1895 20.6953 54.1895 20.207C54.1243 20.207 54.0104 19.9629 53.8477 19.4746L53.7012 19.4258C53.6361 19.4258 53.5547 19.6862 53.457 20.207C53.3268 20.207 53.1803 20.679 53.0176 21.623C52.8548 21.623 52.6595 22.2578 52.4316 23.5273ZM65.127 21.3301C65.127 21.4603 65.1758 21.8184 65.2734 22.4043H65.3223C65.5827 21.4277 65.8105 20.5163 66.0059 19.6699V19.6211H65.8105C65.485 19.6211 65.2572 20.1908 65.127 21.3301ZM52.4316 20.4023L52.1387 21.7207C52.2038 21.8835 52.2363 22.0462 52.2363 22.209H52.2852C52.4479 21.3952 52.5293 20.9395 52.5293 20.8418V20.7441L52.4805 20.4023H52.4316ZM45.0586 29.1914V29.2891C45.1562 29.9401 45.3841 30.2656 45.7422 30.2656C46.263 29.9401 46.5234 29.5983 46.5234 29.2402C46.5234 28.8822 46.263 28.638 45.7422 28.5078C45.2865 28.638 45.0586 28.8659 45.0586 29.1914ZM45.5469 31.2422C45.5469 31.3398 45.5143 31.3887 45.4492 31.3887L45.5469 31.4863L45.4492 31.6328C45.5143 31.7305 45.5469 31.7956 45.5469 31.8281H45.6445C45.7747 31.7956 45.8398 31.6654 45.8398 31.4375V31.2422H45.5469ZM52.2363 34.0254V34.1719C52.2363 34.2695 52.2526 34.3509 52.2852 34.416C52.2526 34.5137 52.2363 34.5788 52.2363 34.6113C52.2363 35.2298 52.7572 35.9785 53.7988 36.8574C54.0918 36.89 54.3522 36.9062 54.5801 36.9062C56.0449 36.8086 56.7773 36.6621 56.7773 36.4668C56.3542 36.5319 56.0286 36.5645 55.8008 36.5645C54.3359 36.5645 53.1478 35.7181 52.2363 34.0254ZM68.8379 39.1523C68.8379 39.8685 69.0169 40.3242 69.375 40.5195H69.5703C69.7982 40.5195 69.9935 40.1777 70.1562 39.4941V39.0547C70.4492 38.6966 70.5957 38.3385 70.5957 37.9805V37.6875C70.5957 37.4922 70.3841 37.3294 69.9609 37.1992H69.8633C69.3424 37.1992 69.0007 37.6387 68.8379 38.5176V39.1523ZM57.168 40.666V40.7148C58.5026 40.7148 59.4466 40.8451 60 41.1055H60.1465C60.4395 40.7148 60.5859 40.373 60.5859 40.0801C60.4232 39.9824 60.1953 39.9336 59.9023 39.9336C59.4792 39.9336 58.5677 40.1777 57.168 40.666ZM51.2598 41.3984C51.2598 41.7891 51.4876 42.0495 51.9434 42.1797H52.041C52.1712 42.1797 53.1152 41.7402 54.873 40.8613H54.9707V40.8125C54.5475 40.8125 54.3197 40.7799 54.2871 40.7148C53.8639 40.9753 53.3757 41.1055 52.8223 41.1055C52.5944 40.8125 52.3014 40.666 51.9434 40.666H51.8945C51.569 40.666 51.3574 40.9102 51.2598 41.3984ZM59.5605 44.6211C59.9512 44.6211 60.2604 44.8327 60.4883 45.2559H60.5859L60.5371 44.9629H60.5859C60.5534 44.8652 60.5371 44.8001 60.5371 44.7676L60.5859 44.6211C60.5534 44.556 60.5371 44.4909 60.5371 44.4258L60.5859 44.2793C60.5859 44.2467 60.5697 44.2305 60.5371 44.2305L60.7812 42.4727C60.3581 42.7331 59.9349 43.4492 59.5117 44.6211H59.5605ZM65.3223 48.5762C65.1921 48.804 65.0944 49.7318 65.0293 51.3594C65.0944 51.3594 65.1758 51.5221 65.2734 51.8477C65.3711 51.8477 65.4199 51.7988 65.4199 51.7012V51.2617C65.4199 51.1641 65.4362 51.0664 65.4688 50.9688C65.3711 50.806 65.3223 50.4642 65.3223 49.9434V49.0645L65.4199 48.6738V48.5762H65.3223ZM63.9551 51.8477L63.4668 53.2637V53.3125H63.5156C63.8737 52.4661 64.0527 51.9941 64.0527 51.8965V51.8477H63.9551ZM57.2168 57.8047C56.5658 58.7487 56.1751 59.8392 56.0449 61.0762V61.1738H56.0938C56.2891 60.3926 56.6797 59.2858 57.2656 57.8535V57.8047H57.2168ZM60.5859 61.2715V61.3203C60.5859 61.418 60.6348 61.8249 60.7324 62.541V62.6875L60.6836 63.0781V63.127H60.7324C61.3509 61.7923 61.7741 60.3438 62.002 58.7812C62.0671 58.7812 62.1159 58.651 62.1484 58.3906C61.1068 59.6276 60.5859 60.5879 60.5859 61.2715ZM58.1934 68.0098C56.5983 71.3952 55.8008 73.1855 55.8008 73.3809C55.8008 73.7715 55.5566 74.6016 55.0684 75.8711V76.0664H55.166C55.7194 74.7643 56.1263 73.5762 56.3867 72.502C57.4935 70.1257 58.112 68.6934 58.2422 68.2051V68.0098H58.1934ZM43.252 70.3535C43.5449 70.3535 43.8704 70.6465 44.2285 71.2324C44.3262 71.2324 44.375 71.1673 44.375 71.0371C44.2122 70.4512 43.9518 70.1582 43.5938 70.1582H43.4473C43.3822 70.1582 43.3171 70.2233 43.252 70.3535ZM46.1328 76.3594C45.8073 76.3594 44.9935 76.2943 43.6914 76.1641C43.6589 76.1641 43.5938 76.1966 43.4961 76.2617C43.2357 76.1641 43.0404 76.0664 42.9102 75.9688H42.8613C43.5124 77.3685 44.2936 78.2637 45.2051 78.6543C45.2376 78.7845 45.6283 78.9798 46.377 79.2402C46.9954 79.2402 47.9232 79.0449 49.1602 78.6543V78.7031C48.444 79.4193 47.4349 79.7773 46.1328 79.7773C45.9375 79.6797 45.6445 79.6146 45.2539 79.582C45.0911 79.6471 45.0098 79.7122 45.0098 79.7773C45.2702 80.1029 45.9375 80.2656 47.0117 80.2656L49.3555 79.7773C50.2018 79.2891 50.7064 78.8008 50.8691 78.3125C51.7155 77.5964 52.3177 76.3105 52.6758 74.4551C52.806 73.5762 53.0664 72.4857 53.457 71.1836C51.7969 72.9089 50.7389 73.8691 50.2832 74.0645C48.3626 75.5618 47.207 76.3105 46.8164 76.3105C46.4583 76.3431 46.2305 76.3594 46.1328 76.3594ZM42.2754 74.4551H42.4219C42.4219 74.3249 42.5846 73.9668 42.9102 73.3809L42.8125 73.332C42.4544 73.332 42.2754 73.6576 42.2754 74.3086V74.4551ZM40.0293 74.2598C39.8014 74.8132 39.6875 75.513 39.6875 76.3594C40.0456 78.1823 40.3711 79.0938 40.6641 79.0938C41.543 79.9727 42.0638 80.4284 42.2266 80.4609V80.4121C41.4453 79.5332 40.9896 78.8171 40.8594 78.2637C40.5013 77.9382 40.2246 76.7988 40.0293 74.8457V74.5527C40.0293 74.4551 40.0456 74.3737 40.0781 74.3086V74.2598H40.0293ZM54.4336 77.6777V77.873H54.4824L54.5801 77.5312C54.4824 77.5638 54.4336 77.6126 54.4336 77.6777ZM106.281 3.06836C107.03 3.06836 107.404 3.62174 107.404 4.72852V4.92383C107.209 6.25846 106.444 7.54427 105.109 8.78125C104.491 9.13932 104.051 9.85547 103.791 10.9297C103.4 12.1667 102.603 13.4036 101.398 14.6406V14.4941C102.017 13.4199 102.326 12.6875 102.326 12.2969C101.87 12.8503 101.122 14.0059 100.08 15.7637C98.9408 19.3444 98.0456 21.5905 97.3945 22.502C97.7526 23.0879 97.9316 23.5273 97.9316 23.8203L97.541 25.7246C97.5736 26.0501 97.5898 26.2454 97.5898 26.3105L98.7617 26.0664L98.8105 26.2129C98.0293 27.0267 97.6387 27.8405 97.6387 28.6543C97.6387 29.1751 97.7689 29.582 98.0293 29.875C98.0293 30.3633 97.5247 30.8678 96.5156 31.3887C95.4414 32.2025 94.6764 32.9837 94.2207 33.7324L94.1719 33.5859V32.8535C94.1719 32.6582 94.2533 32.3327 94.416 31.877C94.416 31.6491 94.3021 31.4375 94.0742 31.2422C93.1628 31.763 92.1536 32.0234 91.0469 32.0234C90.1354 32.4141 89.3053 33.4883 88.5566 35.2461C87.9056 37.5247 87.401 39.1849 87.043 40.2266V41.2031L87.1406 41.6426H87.1895C90.7051 37.7038 92.5117 35.7344 92.6094 35.7344C92.7721 35.6367 92.9186 35.5879 93.0488 35.5879H93.2441C93.5371 35.5879 94.0417 35.9297 94.7578 36.6133L94.9043 36.7109H94.9531C95.2135 36.7109 95.5391 36.6784 95.9297 36.6133C96.4505 36.7435 96.7109 37.0039 96.7109 37.3945C96.7109 38.2734 96.9388 38.7129 97.3945 38.7129C97.3945 38.6152 97.4434 38.5664 97.541 38.5664C97.7038 39.0221 97.7852 39.2988 97.7852 39.3965V39.8848C97.5573 41.0892 97.4434 41.7728 97.4434 41.9355V42.2285C97.9642 42.0332 98.6641 41.3659 99.543 40.2266H99.5918C99.7546 40.3568 100.015 40.4382 100.373 40.4707V40.5684C100.21 41.5124 99.9499 41.9844 99.5918 41.9844C99.5592 41.9518 99.543 41.8053 99.543 41.5449C97.4271 44.084 96.3691 45.5651 96.3691 45.9883L97.3945 45.7441L97.4434 45.8906C96.6947 46.5417 95.6204 47.9577 94.2207 50.1387C93.5371 51.0501 93.1953 51.6686 93.1953 51.9941C93.293 52.2871 93.3418 52.4987 93.3418 52.6289V52.873C93.2441 53.1986 92.8535 54.0775 92.1699 55.5098C91.6816 57.2676 91.1771 58.9766 90.6562 60.6367C90.3958 62.1016 90.2493 63.1758 90.2168 63.8594H90.4121C91.4212 63.7617 91.9746 63.5827 92.0723 63.3223V62.248C92.0723 61.6296 92.7721 61.3203 94.1719 61.3203C94.4974 61.3203 94.7904 60.8809 95.0508 60.002L96.5156 57.3164C97.6224 56.2747 98.3548 55.3958 98.7129 54.6797C98.4199 53.4753 98.0456 52.873 97.5898 52.873C96.1576 52.873 95.3275 52.6452 95.0996 52.1895C94.9694 51.929 94.9043 51.75 94.9043 51.6523V51.0176C95.1973 50.0085 95.5228 49.5039 95.8809 49.5039C95.8809 49.4062 96.1576 49.3411 96.7109 49.3086C97.7852 49.4062 98.8594 49.8945 99.9336 50.7734C100.064 51.099 100.292 52.043 100.617 53.6055C100.52 54.3216 100.471 54.7936 100.471 55.0215C100.471 55.4121 100.796 55.8027 101.447 56.1934C101.74 56.5189 102.066 57.4466 102.424 58.9766H102.326C102.326 59.0091 102.359 59.0254 102.424 59.0254C102.424 59.3835 102.163 60.4251 101.643 62.1504L101.74 62.9805C101.74 63.8268 101.252 64.6732 100.275 65.5195C100.015 66.0404 99.8848 66.9355 99.8848 68.2051C99.0059 71.1022 98.5664 72.86 98.5664 73.4785C98.599 73.5762 98.6152 73.6576 98.6152 73.7227H98.5664C98.599 73.8854 98.6641 74.3249 98.7617 75.041C98.1432 75.4967 97.3132 77.1243 96.2715 79.9238C96.2715 80.3145 96.2552 80.5098 96.2227 80.5098L96.2715 80.6562C96.2715 80.7214 96.2552 80.7539 96.2227 80.7539C96.2227 81.6003 96.8249 82.3001 98.0293 82.8535C98.2897 83.179 98.4199 83.4883 98.4199 83.7812C98.4199 84.3672 97.8014 84.8229 96.5645 85.1484C95.3926 85.1484 94.709 84.7741 94.5137 84.0254C94.2858 83.6348 94.1719 82.9349 94.1719 81.9258C94.1719 81.0794 94.5625 79.9727 95.3438 78.6055C95.5065 77.8893 95.5879 77.1732 95.5879 76.457H95.6855C95.946 76.6849 96.0762 77.0755 96.0762 77.6289C96.2389 77.4661 96.6133 76.5059 97.1992 74.748V74.6016C97.1341 73.5924 97.1016 72.6973 97.1016 71.916V71.623H97.0527C96.8249 73.0553 96.5482 73.7715 96.2227 73.7715C95.7995 74.3574 95.3763 74.6504 94.9531 74.6504C94.7253 74.6504 94.4974 74.4551 94.2695 74.0645C94.2695 73.6738 94.6602 73.4134 95.4414 73.2832C95.6693 73.2507 95.8646 72.9251 96.0273 72.3066C96.0273 72.2741 95.9948 72.2578 95.9297 72.2578C96.6133 70.207 96.9551 69.1328 96.9551 69.0352V66.8379C96.9551 66.6426 97.0365 66.3822 97.1992 66.0566V66.0078H97.1016C96.8411 66.431 96.3854 66.9844 95.7344 67.668H95.6855V67.5703C96.9225 65.3568 97.541 64.2174 97.541 64.1523L97.5898 63.4199C97.5898 62.9642 97.4596 62.7363 97.1992 62.7363C96.8411 62.834 96.4017 63.3223 95.8809 64.2012C95.3926 64.7871 94.6113 65.4056 93.5371 66.0566C93.3418 66.252 93.2441 66.431 93.2441 66.5938C93.2441 66.7565 93.293 66.9518 93.3906 67.1797C93.3906 67.5703 92.9512 67.9772 92.0723 68.4004C91.9746 68.9863 91.9258 69.3607 91.9258 69.5234C92.9349 70.3372 93.4395 71.1999 93.4395 72.1113V72.209L93.3418 72.4043V73.2344C93.1465 74.4388 92.7559 75.041 92.1699 75.041C91.7467 74.9108 91.5352 74.7155 91.5352 74.4551L92.0723 72.7949V72.5996C92.0723 72.502 91.9583 72.4368 91.7305 72.4043C90.7539 72.4043 89.875 72.9251 89.0938 73.9668C89.0612 73.9668 88.3613 74.7155 86.9941 76.2129V76.0664C87.5475 74.862 88.1172 73.8691 88.7031 73.0879H88.6543C88.3613 73.153 88.0033 73.4297 87.5801 73.918C87.515 73.8854 87.4499 73.8691 87.3848 73.8691C85.4642 77.1243 84.0482 79.6634 83.1367 81.4863H82.9902C83.4134 79.5983 84.1947 77.4661 85.334 75.0898L85.3828 74.748C84.3086 76.0827 83.3483 77.4336 82.502 78.8008C80.2233 80.7865 79.0352 82.1699 78.9375 82.9512C78.612 83.6022 78.1725 84.2207 77.6191 84.8066L77.5215 85.1973V85.6855L77.9609 87.1016C77.7331 87.8177 77.5052 88.1758 77.2773 88.1758C75.8776 88.1758 75.1777 87.8177 75.1777 87.1016C75.1126 87.1016 75.0801 86.8574 75.0801 86.3691C75.0801 85.5228 75.9264 83.9928 77.6191 81.7793C77.7819 81.0306 77.8633 80.5749 77.8633 80.4121C77.8633 79.7611 77.5052 79.2565 76.7891 78.8984L75.6172 77.3848C75.194 77.3848 74.5104 78.1823 73.5664 79.7773C73.2409 80.4609 72.8828 81.0306 72.4922 81.4863C72.4271 81.4863 72.3945 81.4212 72.3945 81.291C72.3945 80.998 72.5898 79.8424 72.9805 77.8242C72.9805 77.2057 73.2572 76.0339 73.8105 74.3086V74.2598C73.8105 74.1621 73.5339 73.7064 72.9805 72.8926V72.5508C72.9805 72.1276 73.7129 71.1999 75.1777 69.7676C75.6009 69.2467 75.8125 68.7747 75.8125 68.3516C75.7799 68.0911 75.7637 67.8796 75.7637 67.7168V67.1797C76.0241 66.0404 76.1543 65.4219 76.1543 65.3242C76.1543 65.0312 75.9915 63.485 75.666 60.6855V59.5625C76.0566 57.4141 76.3333 56.3398 76.4961 56.3398H76.5938L76.6426 56.6816V57.2188L76.5938 57.707C76.6914 57.707 76.8053 58.0814 76.9355 58.8301C77.3587 60.1647 77.9284 60.832 78.6445 60.832H78.6934C79.2142 60.832 79.7025 60.2624 80.1582 59.123C80.1582 59.0579 80.1419 59.0254 80.1094 59.0254L80.1582 58.6836V58.5371C80.1582 58.3743 80.1419 58.2604 80.1094 58.1953C80.2721 57.2839 80.3535 56.4538 80.3535 55.7051V55.168C80.3535 54.5169 80.2396 53.6706 80.0117 52.6289H80.1094C80.9232 53.7031 81.3301 54.7611 81.3301 55.8027H81.3789C81.5417 53.1986 81.8184 51.75 82.209 51.457C82.8275 50.7409 83.3809 49.8132 83.8691 48.6738V48.625C83.2181 49.0807 82.5996 49.3086 82.0137 49.3086H81.6719C80.5326 48.9505 79.9629 48.5436 79.9629 48.0879C79.6699 47.209 79.4583 46.7695 79.3281 46.7695C79.0677 47.0625 78.9375 47.4531 78.9375 47.9414V48.0879C78.9375 48.5436 79.3281 48.9017 80.1094 49.1621C80.6953 49.4876 80.9883 49.6829 80.9883 49.748L80.5 49.8457C78.7096 49.4225 77.8145 48.918 77.8145 48.332C77.7168 48.2669 77.6517 47.974 77.6191 47.4531V46.623C77.3913 44.7025 77.2773 43.5794 77.2773 43.2539C77.6029 40.3893 77.7656 38.5664 77.7656 37.7852C78.319 35.6367 78.9049 34.0417 79.5234 33C79.849 32.5117 80.1908 31.5677 80.5488 30.168C81.3626 29.0938 82.1764 28.0521 82.9902 27.043C84.4225 24.0807 85.5293 22.1764 86.3105 21.3301C87.1243 20.7116 87.873 19.5397 88.5566 17.8145C88.752 17.6191 89.0124 17.2448 89.3379 16.6914C89.2728 16.4635 89.2402 16.3333 89.2402 16.3008C89.2402 16.138 89.3379 15.7311 89.5332 15.0801C89.5007 14.7546 89.4844 14.4941 89.4844 14.2988C89.6146 13.1595 90.0703 12.5898 90.8516 12.5898H91.5352C91.763 12.7201 91.877 12.8828 91.877 13.0781C91.877 13.3385 91.3073 14.5755 90.168 16.7891C89.9076 16.9844 89.5983 17.7331 89.2402 19.0352C89.2077 19.0677 89.0449 19.4258 88.752 20.1094C88.8496 20.1094 88.8984 20.1419 88.8984 20.207V21.1348C88.8984 21.1999 88.9635 21.265 89.0938 21.3301H89.4844C89.9727 21.0046 90.2168 20.6302 90.2168 20.207C90.2168 20.1419 89.9727 19.8978 89.4844 19.4746V19.4258C89.4844 19.0026 90.3958 18.612 92.2188 18.2539C92.7721 18.2539 93.293 18.791 93.7812 19.8652H93.9277C94.6439 19.4746 95.1484 18.9701 95.4414 18.3516C99.0872 14.6081 100.975 12.3457 101.105 11.5645C103.026 8.37435 104.361 5.91667 105.109 4.19141C105.467 3.44271 105.858 3.06836 106.281 3.06836ZM97.0527 20.3535V20.9883H97.1016C97.1667 20.9883 97.3783 20.3372 97.7363 19.0352C97.8665 18.7422 98.0781 18.1074 98.3711 17.1309C97.7201 17.9447 97.3945 18.7259 97.3945 19.4746C97.1667 19.8978 97.0527 20.1908 97.0527 20.3535ZM91.3887 19.0352C92.1699 19.0352 92.5605 19.3444 92.5605 19.9629C92.5605 20.1908 92.5768 20.3047 92.6094 20.3047L92.5605 20.6465V21.2812C92.5605 21.3464 92.6094 21.3789 92.707 21.3789C92.7396 21.3789 92.9186 21.3626 93.2441 21.3301C93.8952 21.3301 94.6276 21.8997 95.4414 23.0391C95.5065 23.1367 95.5391 23.2181 95.5391 23.2832H95.5879V22.9902C95.5879 21.8184 94.9531 21.0371 93.6836 20.6465C93.3906 20.6465 93.2441 20.5326 93.2441 20.3047C92.9186 19.3281 92.528 18.8398 92.0723 18.8398H91.9258C91.5677 18.8724 91.3887 18.9375 91.3887 19.0352ZM89.4844 31.3887C90.1029 30.9004 90.9492 30.6562 92.0234 30.6562V30.5586C91.9583 29.875 91.8444 29.5332 91.6816 29.5332C90.998 29.5332 90.2819 30.0866 89.5332 31.1934C89.5007 31.291 89.4844 31.3561 89.4844 31.3887ZM86.75 34.2207V34.5137C86.75 34.5788 86.8314 34.6439 86.9941 34.709H87.1406C87.2057 34.6764 87.2871 34.5625 87.3848 34.3672C87.3197 34.1719 87.2546 34.0742 87.1895 34.0742H86.8965C86.7988 34.1068 86.75 34.1556 86.75 34.2207ZM86.0176 35.6855V35.7344C86.0176 35.9948 86.1478 36.2064 86.4082 36.3691H86.5059C86.8639 36.3691 87.043 36.1413 87.043 35.6855C87.043 35.3926 86.8639 35.2298 86.5059 35.1973C86.1803 35.1973 86.0176 35.36 86.0176 35.6855ZM91.5352 38.8594C92.1536 38.3711 92.6094 38.127 92.9023 38.127C93 38.127 93.0977 38.1595 93.1953 38.2246C93.5208 38.1595 93.7975 38.127 94.0254 38.127C94.5137 38.127 94.9531 38.3874 95.3438 38.9082V38.7617C95.3438 37.8828 94.4648 37.4434 92.707 37.4434C92.3164 37.4434 91.9258 37.9154 91.5352 38.8594ZM82.1113 42.8145C82.1113 42.9772 82.3555 43.3516 82.8438 43.9375V44.1328C82.7461 44.4909 82.6973 44.7188 82.6973 44.8164C82.9251 45.0117 83.1367 45.1094 83.332 45.1094C83.5599 45.1094 84.2272 44.4421 85.334 43.1074C85.5944 42.8145 85.806 41.4635 85.9688 39.0547C85.8385 38.0781 85.5944 37.5898 85.2363 37.5898C84.6829 37.9479 84.0319 38.6641 83.2832 39.7383C82.502 40.9753 82.1113 42.0007 82.1113 42.8145ZM87.3359 56.5352H87.3848C88.0033 55.9492 88.6543 55.6074 89.3379 55.5098C89.3379 55.0215 89.7448 54.7448 90.5586 54.6797L90.7051 54.1914V53.5078L90.7539 53.0195C89.7773 53.5729 88.7031 54.6634 87.5312 56.291C87.4987 56.291 87.4336 56.3724 87.3359 56.5352ZM89.1914 57.9512C88.0521 59.3184 87.4824 60.3438 87.4824 61.0273V61.7109C87.4824 62.069 87.1243 62.5085 86.4082 63.0293L84.3574 66.5449V66.5938C84.9434 66.2682 85.8385 65.8776 87.043 65.4219C87.9544 65.0638 88.4102 64.6081 88.4102 64.0547C88.8984 62.9154 89.3704 61.2878 89.8262 59.1719C89.5658 58.3906 89.3542 57.9837 89.1914 57.9512ZM96.2227 60.5391H96.2715C96.7272 60.2135 97.1667 59.5299 97.5898 58.4883V58.3906C97.5573 58.3906 97.1016 59.1068 96.2227 60.5391ZM83.3809 73.5762C83.3809 73.6413 83.4622 73.7064 83.625 73.7715C85.5781 72.3717 87.1732 71.1348 88.4102 70.0605V70.0117C86.1315 71.3789 84.4551 72.5671 83.3809 73.5762ZM78.6934 75.7246C78.0423 75.7246 77.4076 75.3503 76.7891 74.6016C76.6263 74.5039 76.5124 74.4551 76.4473 74.4551V75.041C76.4473 75.7246 77.0658 76.2292 78.3027 76.5547H78.4492C79.263 76.5547 80.3535 75.806 81.7207 74.3086C80.3861 75.2526 79.377 75.7246 78.6934 75.7246ZM79.6211 79.8262C80.1745 79.1426 80.8743 78.3613 81.7207 77.4824L81.8184 77.3848H81.7207C81.4603 77.3848 80.8092 78.0358 79.7676 79.3379C79.6699 79.5983 79.6211 79.7611 79.6211 79.8262ZM77.9609 87.8828H78.2051C78.498 87.9154 78.6445 87.9967 78.6445 88.127V88.3223C78.612 88.4525 78.4655 88.5176 78.2051 88.5176H78.1562C77.8958 88.5176 77.7331 88.4362 77.668 88.2734V88.1758C77.668 88.1107 77.7656 88.013 77.9609 87.8828ZM128.197 4.38672H128.295C129.434 4.38672 130.004 4.66341 130.004 5.2168C130.167 5.50977 130.248 6.07943 130.248 6.92578C130.248 7.70703 129.939 8.63477 129.32 9.70898C129.223 10.002 129.125 10.5716 129.027 11.418H128.979C128.881 11.418 128.767 11.0924 128.637 10.4414H128.588C128.1 11.6133 127.823 12.3945 127.758 12.7852V15.1777H127.855C127.855 14.3965 128.181 13.778 128.832 13.3223C129.06 12.9967 129.288 12.834 129.516 12.834C129.809 12.8991 130.02 13.0618 130.15 13.3223V13.5176C130.118 13.6478 129.727 13.8431 128.979 14.1035L128.686 15.0312L128.832 15.1289C128.344 16.1706 128.1 16.7728 128.1 16.9355C129.304 16.4147 130.427 15.9753 131.469 15.6172C131.339 15.2591 131.273 14.9987 131.273 14.8359V14.7871C131.273 14.5918 131.29 14.3477 131.322 14.0547H131.469C131.924 14.5104 132.234 14.7383 132.396 14.7383C133.015 14.6406 133.487 14.4779 133.812 14.25L136.4 11.6133V11.7598C135.847 12.8014 135.359 13.5664 134.936 14.0547C134.936 14.0872 134.952 14.1035 134.984 14.1035C135.147 14.0384 135.261 14.0059 135.326 14.0059C135.326 14.071 135.342 14.1035 135.375 14.1035C136.124 13.8757 136.677 13.7617 137.035 13.7617H137.133C138.077 13.7617 138.679 14.0872 138.939 14.7383C139.167 15.2266 139.477 15.4707 139.867 15.4707C140.909 15.8288 141.43 16.1055 141.43 16.3008C141.755 16.4961 141.918 17.1146 141.918 18.1562C142.992 19.2956 143.757 20.2233 144.213 20.9395C144.311 20.9395 144.62 21.3138 145.141 22.0625V22.3555C145.141 22.4531 145.141 22.5345 145.141 22.5996C145.141 22.6322 145.124 22.8926 145.092 23.3809C145.352 24.7155 145.482 25.5781 145.482 25.9688V26.5059L145.434 27.1406H145.287C144.962 25.1549 144.473 24.1621 143.822 24.1621H143.334C142.943 24.2272 142.585 24.6504 142.26 25.4316V26.1152C142.032 27.3197 141.918 28.1335 141.918 28.5566V28.7031C141.918 29.0938 142.048 29.7936 142.309 30.8027H142.26C141.771 30.3796 141.397 29.5495 141.137 28.3125H141.088C140.958 30.4284 140.762 31.4863 140.502 31.4863C139.688 32.528 139.151 33.4232 138.891 34.1719H138.939C139.33 33.8464 139.77 33.6022 140.258 33.4395V33.5371C139.281 34.2533 138.223 35.1647 137.084 36.2715C136.531 36.4993 136.238 36.6133 136.205 36.6133C135.749 36.5807 135.359 36.5645 135.033 36.5645H134.545C134.219 36.4668 134.024 36.418 133.959 36.418C133.503 36.418 132.706 36.8086 131.566 37.5898C131.404 37.9805 131.078 38.3385 130.59 38.6641C130.232 38.7943 130.036 38.8594 130.004 38.8594H129.369C129.076 39.0547 128.572 39.3477 127.855 39.7383C127.204 40.3568 126.879 40.9427 126.879 41.4961C126.781 41.4961 126.716 41.8704 126.684 42.6191C126.684 42.8796 126.879 43.1074 127.27 43.3027C127.465 43.498 127.562 43.6608 127.562 43.791C127.562 43.8561 127.465 43.9375 127.27 44.0352H127.025C126.537 43.9375 126.293 43.5632 126.293 42.9121C126.293 42.196 126.423 41.1543 126.684 39.7871L126.586 39.9336H126.537C127.025 38.4036 127.449 37.541 127.807 37.3457C128.165 36.7923 128.344 36.4831 128.344 36.418C126.944 37.362 126.098 37.834 125.805 37.834C125.772 37.834 125.658 37.8503 125.463 37.8828C125.137 37.7852 124.975 37.6875 124.975 37.5898V37.1016C125.04 36.9062 125.202 36.8086 125.463 36.8086C125.528 36.8086 125.74 36.8574 126.098 36.9551C126.944 36.8574 127.872 36.3529 128.881 35.4414C129.695 34.3021 130.427 33.0163 131.078 31.584C131.078 30.4772 131.306 29.6797 131.762 29.1914C131.99 28.7357 132.315 28.2148 132.738 27.6289C132.836 27.3685 132.885 27.1732 132.885 27.043V26.8477C132.852 26.2617 132.624 25.9688 132.201 25.9688C131.225 26.0339 129.857 26.7826 128.1 28.2148C127.449 29.0286 126.993 29.8587 126.732 30.7051C125.886 31.9095 125.154 33.0651 124.535 34.1719C123.982 35.6042 123.705 36.5482 123.705 37.0039L123.461 38.7617C123.461 39.6732 123.9 41.0241 124.779 42.8145C124.975 43.3678 125.414 44.3118 126.098 45.6465C126.26 45.972 126.472 46.737 126.732 47.9414C127.123 48.6576 127.579 49.0156 128.1 49.0156C128.979 50.0573 129.923 50.8874 130.932 51.5059C131.387 52.1243 131.762 52.4336 132.055 52.4336C132.608 52.3359 132.917 52.2871 132.982 52.2871C134.024 52.5475 134.675 52.8405 134.936 53.166H134.984V53.0684C134.984 52.7754 134.626 52.2871 133.91 51.6035C133.585 51.4733 133.373 51.4082 133.275 51.4082H133.08C132.885 51.6361 132.689 51.75 132.494 51.75C132.169 51.75 131.924 51.6361 131.762 51.4082V51.2617C131.762 51.0664 132.022 50.9688 132.543 50.9688C132.836 50.9688 133.324 51.0664 134.008 51.2617C134.236 51.2617 134.691 51.5547 135.375 52.1406C135.603 52.3034 135.847 52.694 136.107 53.3125C136.368 53.5729 136.661 54.1751 136.986 55.1191C137.442 56.0632 137.833 56.7956 138.158 57.3164C138.516 58.0977 138.695 58.8789 138.695 59.6602C138.76 59.6927 138.793 59.7253 138.793 59.7578V60.0996C138.793 60.7507 138.467 62.1667 137.816 64.3477C137.491 64.8685 137.214 65.5684 136.986 66.4473C136.596 66.903 136.124 67.8796 135.57 69.377L135.473 69.4746C135.408 69.4746 135.375 69.4258 135.375 69.3281C135.375 68.8398 135.505 68.14 135.766 67.2285L135.521 66.4473C134.936 67.3913 134.643 68.4167 134.643 69.5234C134.285 70.5977 134.105 71.5905 134.105 72.502C133.78 73.804 133.617 75.334 133.617 77.0918C133.487 77.0918 133.373 77.6289 133.275 78.7031C133.275 79.3216 133.52 80.054 134.008 80.9004V80.998C133.78 81.4863 133.438 81.7305 132.982 81.7305C132.527 81.5677 132.299 81.3398 132.299 81.0469V80.6562C132.299 80.5586 132.51 78.8333 132.934 75.4805L133.52 71.623L133.959 68.8398C134.057 67.7331 134.187 66.724 134.35 65.8125H134.154C134.024 65.8125 133.894 66.0892 133.764 66.6426V67.7656C133.764 68.2865 133.373 69.084 132.592 70.1582C132.592 70.1908 132.234 71.0208 131.518 72.6484V72.8926C131.941 72.8926 132.152 72.4694 132.152 71.623C132.315 71.1348 132.527 70.8906 132.787 70.8906H132.982C133.113 70.9557 133.178 71.1348 133.178 71.4277C132.982 72.2741 132.722 73.0228 132.396 73.6738C132.136 74.6829 131.941 75.9036 131.811 77.3359C130.736 80.6237 130.036 82.2676 129.711 82.2676L129.662 82.2188C129.825 81.5026 129.906 81.0469 129.906 80.8516V79.8262C129.711 78.9798 129.581 78.5566 129.516 78.5566H129.467C129.304 78.5566 129.044 79.2565 128.686 80.6562C128.36 80.9818 127.693 82.821 126.684 86.1738V86.9062C127.009 88.013 127.172 88.6966 127.172 88.957C126.911 89.1523 126.716 89.25 126.586 89.25H126.293C125.935 89.25 125.691 88.9245 125.561 88.2734V87.3945C125.561 86.9388 126.13 85.002 127.27 81.584C127.335 81.291 127.367 80.9492 127.367 80.5586C127.367 80.1354 127.335 79.5169 127.27 78.7031C127.27 78.4427 127.611 77.4987 128.295 75.8711C128.002 76.5872 127.237 77.5801 126 78.8496C125.284 80.0866 124.714 81.0469 124.291 81.7305H124.242L124.291 81.877V82.0723C124.291 82.2025 124.21 82.5117 124.047 83V83.8301C123.949 84.709 123.542 85.1484 122.826 85.1484H122.484C122.191 85.1159 122.045 84.9857 122.045 84.7578C122.077 84.4974 122.582 83.472 123.559 81.6816C123.754 81.6816 123.982 81.1445 124.242 80.0703L124.682 79.0938C124.682 79.0286 124.633 78.8984 124.535 78.7031C124.568 78.6055 124.584 78.4915 124.584 78.3613C124.584 78.1009 124.486 77.9707 124.291 77.9707C123.77 78.166 123.51 78.4753 123.51 78.8984L124.047 79.5332V79.6309C123.819 80.054 123.412 80.2656 122.826 80.2656C122.403 80.4284 122.029 80.5098 121.703 80.5098C121.345 80.5098 120.922 80.0866 120.434 79.2402H120.336C119.978 79.3379 119.359 79.9401 118.48 81.0469C118.415 81.0469 117.667 81.8118 116.234 83.3418C115.062 84.5462 114.395 85.4414 114.232 86.0273C112.572 88.599 111.465 90.6009 110.912 92.0332C110.521 92.5866 110.163 92.8633 109.838 92.8633C109.252 92.8633 108.959 92.5052 108.959 91.7891C108.959 91.6914 108.943 91.5286 108.91 91.3008C109.333 89.8359 110.115 88.7292 111.254 87.9805C111.547 87.6549 111.856 86.9225 112.182 85.7832C112.768 84.8392 113.402 84.0417 114.086 83.3906V83.4883C113.923 83.6836 113.679 84.123 113.354 84.8066V84.9043H113.402L115.062 82.2676C115.16 81.9095 115.258 81.4863 115.355 80.998C115.225 79.9564 115.16 78.7194 115.16 77.2871C114.802 76.0176 114.33 74.8457 113.744 73.7715C112.507 71.8509 111.889 70.6139 111.889 70.0605C111.889 69.6048 111.921 69.1328 111.986 68.6445C111.986 67.5052 111.824 66.3822 111.498 65.2754H111.449C111.449 65.4707 111.286 66.1706 110.961 67.375C110.961 67.7005 110.912 68.1074 110.814 68.5957H110.619C110.554 68.1725 110.521 67.8958 110.521 67.7656C110.521 67.6029 110.538 66.8379 110.57 65.4707L110.521 64.9824C110.88 64.071 111.059 63.4036 111.059 62.9805C111.059 62.3294 110.652 60.832 109.838 58.4883C109.48 58.4883 109.187 58.2116 108.959 57.6582L109.008 57.4141C108.975 57.1536 108.959 56.8932 108.959 56.6328C109.057 56.3398 109.268 56.1934 109.594 56.1934C110.147 56.1934 110.456 56.6328 110.521 57.5117C110.814 58.0326 110.961 58.5534 110.961 59.0742C111.417 59.8555 111.726 60.3275 111.889 60.4902V60.4414C111.693 59.8555 111.547 59.0417 111.449 58C111.352 58 111.173 56.9583 110.912 54.875C110.847 54.875 110.814 54.7285 110.814 54.4355C110.814 53.1335 111.01 52.4824 111.4 52.4824H111.449C111.775 52.4824 112.019 52.6452 112.182 52.9707V53.2148C112.182 53.2799 112.019 53.5078 111.693 53.8984C111.563 54.224 111.498 54.5495 111.498 54.875L111.596 55.3145L111.498 55.4121C111.726 56.4538 111.986 57.3652 112.279 58.1465C112.279 58.9277 112.93 60.5228 114.232 62.9316C114.395 63.3874 114.509 63.9733 114.574 64.6895C114.867 65.5358 115.616 66.7891 116.82 68.4492C117.211 68.7747 117.618 68.9375 118.041 68.9375C119.018 68.8073 119.506 68.6445 119.506 68.4492C119.636 68.2214 119.799 67.7493 119.994 67.0332L120.287 66.8379C120.417 67.0332 120.482 67.2122 120.482 67.375C120.385 67.8633 120.222 68.4655 119.994 69.1816C120.189 69.2467 120.287 69.3118 120.287 69.377C120.157 69.5072 120.092 69.6374 120.092 69.7676C120.092 69.8652 120.108 69.9141 120.141 69.9141H120.287C121.036 69.5234 121.882 69.3281 122.826 69.3281C123.575 69.0352 124.438 67.7982 125.414 65.6172C125.837 64.9336 126.195 63.7943 126.488 62.1992V61.7598C126.488 60.8809 125.967 60.4414 124.926 60.4414C124.079 60.4414 123.428 60.7018 122.973 61.2227C122.777 60.9948 122.598 60.8809 122.436 60.8809H122.387C121.801 60.8809 121.231 61.1738 120.678 61.7598L120.336 61.8574H120.287C120.255 61.8574 119.913 61.7598 119.262 61.5645H119.213V61.6621C119.213 61.8249 119.522 61.9551 120.141 62.0527H120.434H120.775C120.873 62.0853 120.987 62.1016 121.117 62.1016C121.736 61.8737 122.11 61.7598 122.24 61.7598V61.9062V62.0039C122.012 62.5573 121.736 62.834 121.41 62.834H121.361L121.02 62.7852C120.792 62.8828 120.564 62.9316 120.336 62.9316C120.043 62.6712 119.571 62.4922 118.92 62.3945C118.269 61.9062 117.748 61.597 117.357 61.4668V61.2227V60.9785C116.609 61.3366 116.072 61.8249 115.746 62.4434C115.486 62.834 115.339 63.0293 115.307 63.0293H115.16C115.128 63.0293 115.111 62.9967 115.111 62.9316C115.274 62.0527 115.616 61.3854 116.137 60.9297L117.797 58.8789V58.7812C117.797 58.6836 117.634 58.6022 117.309 58.5371C117.276 58.5371 116.56 58.6185 115.16 58.7812C114.574 58.651 114.281 58.4557 114.281 58.1953H114.232L114.135 58.4883L114.477 59.3672C114.477 59.4323 114.428 59.4648 114.33 59.4648C113.679 59.237 113.354 58.8138 113.354 58.1953C113.354 57.5443 114.005 56.584 115.307 55.3145C115.502 54.696 115.925 54.11 116.576 53.5566C116.576 53.0033 116.332 52.4987 115.844 52.043C114.346 49.6992 113.484 47.1276 113.256 44.3281C113.451 42.4401 113.549 41.431 113.549 41.3008C113.516 40.9427 113.5 40.666 113.5 40.4707V40.0801C113.5 38.8105 113.939 37.2806 114.818 35.4902C114.818 35.1973 115.014 34.6113 115.404 33.7324C115.404 33.6348 115.453 33.5859 115.551 33.5859C115.551 33.4232 115.355 32.9186 114.965 32.0723C114.997 31.7467 115.111 31.584 115.307 31.584C116.023 31.6165 116.381 31.8932 116.381 32.4141C116.088 33.5859 115.762 34.4811 115.404 35.0996C115.404 35.2298 115.193 36.2878 114.77 38.2734C114.639 38.5013 114.574 38.9245 114.574 39.543H114.623C114.623 38.8594 115.388 36.8249 116.918 33.4395C116.918 33.1139 117.504 32.2676 118.676 30.9004C118.806 30.4121 118.936 29.9564 119.066 29.5332C119.066 28.9798 118.839 28.3939 118.383 27.7754V27.6289L118.041 27.6777C117.65 27.6126 117.455 27.401 117.455 27.043C117.455 26.7174 117.748 26.5221 118.334 26.457C119.018 26.5221 119.359 26.75 119.359 27.1406C119.424 27.2057 119.457 27.2708 119.457 27.3359L119.359 27.9219C119.49 28.1172 119.555 28.2799 119.555 28.4102H119.604C119.864 27.5638 121.003 25.9688 123.021 23.625L124.34 21.0371C125.056 20.3861 125.414 19.849 125.414 19.4258C124.307 19.7188 122.533 20.793 120.092 22.6484C119.213 23.1042 118.773 23.6087 118.773 24.1621C118.611 24.4225 118.318 24.7318 117.895 25.0898C117.895 25.3177 117.715 25.4479 117.357 25.4805C117.097 25.4479 116.951 25.3665 116.918 25.2363V25.0898C117.048 24.2109 117.553 23.2669 118.432 22.2578C119.376 20.8906 120.466 19.8327 121.703 19.084C121.833 19.0514 121.915 19.0352 121.947 19.0352C120.548 20.2396 119.685 21.2487 119.359 22.0625H119.457C121.638 20.0768 123.575 18.8398 125.268 18.3516C125.398 18.3516 125.593 17.8633 125.854 16.8867C125.919 16.8867 126 16.8053 126.098 16.6426L126 16.4961C126.228 15.5846 126.423 14.722 126.586 13.9082C126.586 13.9082 126.553 13.485 126.488 12.6387C127.139 11.7923 127.579 10.9297 127.807 10.0508C128.132 9.59505 128.36 9.07422 128.49 8.48828C128.49 8.45573 128.474 8.43945 128.441 8.43945L128.49 8.14648V7.85352C128.49 7.23503 128.002 6.69792 127.025 6.24219C126.798 5.94922 126.684 5.67253 126.684 5.41211C126.684 4.92383 127.188 4.58203 128.197 4.38672ZM127.855 17.4238V17.668C128.734 17.5052 130.118 17.4238 132.006 17.4238H132.934C132.934 17.2936 132.95 17.196 132.982 17.1309L132.055 16.1543C131.241 16.3171 130.232 16.4961 129.027 16.6914C128.279 17.0495 127.888 17.2936 127.855 17.4238ZM140.111 16.8379C140.111 17.196 140.762 18.0423 142.064 19.377C142.26 19.735 142.39 19.9141 142.455 19.9141V19.8164C142.325 19.3281 141.902 18.6445 141.186 17.7656C140.86 17.0169 140.583 16.6426 140.355 16.6426H140.258C140.16 16.6426 140.111 16.7077 140.111 16.8379ZM127.855 18.498V19.2793C127.855 19.3444 127.823 19.556 127.758 19.9141C128.572 19.0026 128.979 18.5469 128.979 18.5469L129.027 18.6445C128.637 19.1654 128.181 19.9629 127.66 21.0371C127.562 21.0371 127.481 21.265 127.416 21.7207V22.209C127.416 22.4694 127.53 22.5996 127.758 22.5996C128.083 22.4368 128.572 21.8835 129.223 20.9395C130.297 20.2559 130.867 19.8652 130.932 19.7676C130.997 19.6699 131.029 19.5885 131.029 19.5234L130.98 18.9863C130.98 18.5632 131.501 18.1562 132.543 17.7656L132.592 17.668H132.543C130.069 17.668 128.507 17.9447 127.855 18.498ZM130.785 25.5293H130.883L132.592 24.8457H133.178C133.406 24.8457 134.252 24.6667 135.717 24.3086C135.456 23.9831 135.115 23.8203 134.691 23.8203C133.682 23.918 132.82 24.1947 132.104 24.6504C131.941 24.6504 131.501 24.9434 130.785 25.5293ZM116.039 24.8945C116.137 24.8945 116.267 25.0247 116.43 25.2852C115.909 26.3594 115.616 26.8965 115.551 26.8965C115.421 26.8965 115.307 26.7012 115.209 26.3105C115.502 25.3665 115.779 24.8945 116.039 24.8945ZM119.799 29.1914H120.092C120.32 29.1914 120.629 29.224 121.02 29.2891C122.094 28.9635 122.631 28.5892 122.631 28.166V27.6289C122.631 26.9128 122.842 26.0176 123.266 24.9434H123.168C121.15 26.8639 120.027 28.2799 119.799 29.1914ZM134.252 25.041V25.0898C134.252 25.2201 134.48 25.4316 134.936 25.7246C135.294 26.1478 135.473 26.7663 135.473 27.5801H135.521C135.847 26.8639 136.01 26.3919 136.01 26.1641V25.5293C135.977 25.1387 135.798 24.9434 135.473 24.9434H134.789C134.757 24.9434 134.577 24.9759 134.252 25.041ZM133.959 29.582H134.008C134.561 29.0938 134.838 28.752 134.838 28.5566V28.459C134.838 28.2311 134.822 27.9219 134.789 27.5312C134.626 27.5638 134.35 28.2474 133.959 29.582ZM117.455 28.1172C117.748 28.1823 117.895 28.2799 117.895 28.4102V28.459C117.829 28.5566 117.65 28.6055 117.357 28.6055C117.195 28.5078 117.113 28.4427 117.113 28.4102C117.113 28.2474 117.227 28.1497 117.455 28.1172ZM121.068 29.6797H121.02C120.857 29.6797 120.613 29.6471 120.287 29.582C120.385 30.0703 120.564 30.3633 120.824 30.4609C121.052 30.4609 121.475 30.1354 122.094 29.4844H122.045C121.719 29.6146 121.394 29.6797 121.068 29.6797ZM135.717 35.2461V35.2949C135.977 35.3926 136.156 35.4414 136.254 35.4414H136.449C136.514 35.4414 136.612 35.4251 136.742 35.3926C136.807 35.4251 136.889 35.4414 136.986 35.4414C137.475 35.4414 137.833 35.0833 138.061 34.3672C138.061 34.2695 137.93 34.1719 137.67 34.0742C137.54 34.0742 137.117 34.416 136.4 35.0996C136.173 35.1973 135.945 35.2461 135.717 35.2461ZM117.992 38.3711C118.025 39.1849 118.041 39.5918 118.041 39.5918L117.992 39.7383C117.992 39.8685 118.041 40.2103 118.139 40.7637H118.188C118.188 39.2988 118.301 38.3711 118.529 37.9805L118.48 37.8828H118.334C118.106 38.0456 117.992 38.2083 117.992 38.3711ZM122.24 40.959C122.338 41.4798 122.403 41.7728 122.436 41.8379C122.403 42.2285 122.387 42.554 122.387 42.8145V42.8633C122.387 43.612 122.484 44.2956 122.68 44.9141H122.777L122.68 44.3281V42.082C122.68 41.5612 122.615 40.7637 122.484 39.6895C122.387 39.6895 122.305 40.1126 122.24 40.959ZM123.266 41.7891C123.201 42.7656 123.168 43.5143 123.168 44.0352C123.168 44.6211 123.51 45.5 124.193 46.6719C124.844 47.5833 125.561 48.2181 126.342 48.5762C126.472 48.6087 126.586 48.625 126.684 48.625C126.26 48.0716 125.87 47.2415 125.512 46.1348C125.219 45.5488 124.844 44.9141 124.389 44.2305L123.363 41.7891H123.266ZM114.574 44.9141C114.574 46.4766 114.932 47.6647 115.648 48.4785C115.811 48.9342 115.941 49.1621 116.039 49.1621V49.1133C115.616 47.6484 115.404 45.9883 115.404 44.1328C115.307 43.6771 115.225 43.4492 115.16 43.4492C114.77 43.8398 114.574 44.3281 114.574 44.9141ZM124.975 48.0879C124.975 48.3158 125.268 48.9505 125.854 49.9922C125.821 50.0898 125.805 50.1549 125.805 50.1875C125.935 50.3828 126.83 51.0339 128.49 52.1406C128.816 52.3359 129.044 52.4336 129.174 52.4336H129.662V52.6777L129.516 52.7266C129.776 52.8893 130.004 52.9707 130.199 52.9707C130.362 52.9707 130.508 52.8242 130.639 52.5312C129.337 51.6198 128.507 50.9525 128.148 50.5293C127.823 49.748 127.058 49.1133 125.854 48.625L124.975 48.0879ZM123.754 49.2109C123.949 50.2526 124.258 50.7734 124.682 50.7734C125.007 50.9688 125.268 51.2454 125.463 51.6035C125.528 51.6686 125.626 51.7012 125.756 51.7012C125.821 51.7012 125.854 51.6523 125.854 51.5547C125.854 51.0339 125.544 50.6432 124.926 50.3828L124.779 49.9922V49.5527L124.193 48.8203H123.949C123.884 48.8203 123.819 48.9505 123.754 49.2109ZM126.049 52.043C126.049 52.4336 126.342 52.6777 126.928 52.7754V52.7266L126.098 52.043H126.049ZM133.422 53.752V53.8008C133.422 53.8333 133.764 53.931 134.447 54.0938C134.74 54.5169 135.261 55.0052 136.01 55.5586C136.628 56.2747 136.938 56.6816 136.938 56.7793H136.986C136.661 56.2585 136.368 55.819 136.107 55.4609C136.107 54.9727 135.896 54.6471 135.473 54.4844C134.854 53.931 134.252 53.6543 133.666 53.6543C133.568 53.7194 133.487 53.752 133.422 53.752ZM119.262 54.3379C119.392 54.4355 119.848 54.5332 120.629 54.6309C120.954 55.0866 121.312 55.3145 121.703 55.3145C121.768 55.2493 121.833 55.2168 121.898 55.2168V55.1191C121.54 55.1191 120.792 54.7122 119.652 53.8984C119.392 53.8984 119.262 54.0449 119.262 54.3379ZM116.479 54.7773C116.674 54.6797 116.771 54.5658 116.771 54.4355H116.674C116.544 54.4681 116.479 54.582 116.479 54.7773ZM120.336 55.4121V55.4609C120.336 55.526 120.564 55.6888 121.02 55.9492C121.02 56.2747 121.361 56.6165 122.045 56.9746C122.338 57.235 122.696 57.3652 123.119 57.3652C123.314 57.3652 123.607 57.2839 123.998 57.1211L124.389 57.2188C124.519 57.2188 124.698 57.1862 124.926 57.1211C125.219 57.1862 125.495 57.2188 125.756 57.2188H126.244C126.439 57.2188 126.651 57.1862 126.879 57.1211C127.27 57.4792 127.497 57.6582 127.562 57.6582C128.051 57.6582 128.637 57.8372 129.32 58.1953H129.906C130.232 58.1953 130.476 58.5534 130.639 59.2695C130.867 59.2695 131.176 59.8066 131.566 60.8809C131.632 60.8809 131.664 60.8646 131.664 60.832C131.534 59.6927 131.339 59.123 131.078 59.123C130.85 58.0488 130.525 57.5117 130.102 57.5117C129.776 57.5117 129.483 57.3652 129.223 57.0723C128.897 56.877 128.588 56.7793 128.295 56.7793C128.262 56.7793 127.986 56.8118 127.465 56.877C127.465 56.8118 127.367 56.763 127.172 56.7305C126.065 56.763 125.495 56.7793 125.463 56.7793C123.575 56.6165 122.631 56.4212 122.631 56.1934C121.231 55.6725 120.466 55.4121 120.336 55.4121ZM115.355 57.3164V57.3652C115.355 57.6582 115.551 57.821 115.941 57.8535C116.625 57.821 116.967 57.6908 116.967 57.4629C116.967 57.2025 116.56 57.0723 115.746 57.0723H115.648C115.583 57.0723 115.486 57.1536 115.355 57.3164ZM117.943 57.7559V57.8047C117.943 57.9023 117.96 57.9512 117.992 57.9512H118.236V57.8047C118.236 57.7396 118.171 57.6745 118.041 57.6094H117.992C117.96 57.6094 117.943 57.6582 117.943 57.7559ZM126.732 59.0254C126.732 59.123 126.944 59.2533 127.367 59.416H127.416C127.481 59.416 127.546 59.3509 127.611 59.2207C127.579 59.1556 127.562 59.0905 127.562 59.0254V58.9277H127.611C128.067 59.0579 128.393 59.123 128.588 59.123V59.2207C127.807 59.9694 127.416 60.474 127.416 60.7344C127.221 61.8086 127.123 62.6712 127.123 63.3223C127.449 64.2012 127.66 64.6732 127.758 64.7383C128.832 63.7943 129.548 62.9154 129.906 62.1016L130.443 60.6855C130.443 60.3926 130.248 60.0996 129.857 59.8066L129.711 59.4648C129.809 59.3346 129.857 59.1393 129.857 58.8789C129.434 58.7161 129.19 58.5859 129.125 58.4883C128.995 58.3581 128.848 58.293 128.686 58.293C127.383 58.293 126.732 58.5371 126.732 59.0254ZM137.67 59.3184C137.702 59.6113 137.833 59.7578 138.061 59.7578C138.191 59.5951 138.256 59.4486 138.256 59.3184C138.256 59.0579 138.191 58.9115 138.061 58.8789H137.963C137.768 59.0091 137.67 59.1556 137.67 59.3184ZM127.758 59.416C127.79 59.6113 127.904 59.709 128.1 59.709V59.6602C128.1 59.5625 128.018 59.4811 127.855 59.416H127.758ZM122.826 59.8066C122.826 60.0996 123.005 60.2461 123.363 60.2461H123.559C123.819 60.2461 123.949 60.0996 123.949 59.8066C123.819 59.5788 123.624 59.4648 123.363 59.4648C123.135 59.4648 122.956 59.5788 122.826 59.8066ZM136.596 64.4941V64.5918H136.742C136.742 64.4941 136.921 64.0059 137.279 63.127C137.507 62.4759 137.621 61.9388 137.621 61.5156C137.621 61.5156 137.637 61.4831 137.67 61.418C137.67 61.3529 137.67 61.2552 137.67 61.125C136.954 61.9062 136.596 63.0293 136.596 64.4941ZM113.305 69.3281C113.305 69.4909 113.533 69.7839 113.988 70.207C114.151 70.5977 114.232 70.8092 114.232 70.8418H114.281V70.5488C114.281 69.735 114.053 69.1979 113.598 68.9375C113.402 68.9375 113.305 69.0677 113.305 69.3281ZM122.094 70.4023H121.947C121.947 70.9557 122.045 71.2324 122.24 71.2324C122.729 71.2324 123.282 70.8906 123.9 70.207C123.998 70.0768 124.047 69.9629 124.047 69.8652C123.493 70.2233 122.842 70.4023 122.094 70.4023ZM112.865 70.1582C112.865 70.5814 113.142 71.3626 113.695 72.502H113.744V72.4531C113.581 71.2812 113.337 70.5326 113.012 70.207L112.865 70.1582ZM110.912 70.1582C111.173 70.1582 111.482 70.9883 111.84 72.6484C111.84 72.7461 111.872 72.8275 111.938 72.8926V73.0391C111.938 73.1042 111.889 73.1693 111.791 73.2344H111.596C111.205 73.2344 111.01 72.8112 111.01 71.9648C110.977 71.9648 110.961 71.916 110.961 71.8184C111.091 71.5905 111.156 71.3952 111.156 71.2324C111.059 70.7116 110.945 70.3698 110.814 70.207L110.912 70.1582ZM115.16 73.0391V73.2832C115.16 73.7064 115.469 73.9831 116.088 74.1133C116.153 74.0807 116.251 74.0645 116.381 74.0645C115.697 73.5436 115.355 73.1367 115.355 72.8438C115.29 72.8438 115.225 72.9089 115.16 73.0391ZM113.939 73.0879V73.1855C114.037 73.5762 114.444 74.5202 115.16 76.0176C115.551 77.4824 115.746 78.6217 115.746 79.4355H115.844C115.909 78.7194 115.941 78.2637 115.941 78.0684V77.4824C115.941 76.7012 115.844 75.7246 115.648 74.5527C114.932 74.3249 114.363 73.8366 113.939 73.0879ZM116.234 74.8457V74.9434C116.462 76.0827 116.576 77.1243 116.576 78.0684L116.479 78.6055V78.7031H116.576C116.576 78.4753 116.837 77.9219 117.357 77.043C117.064 76.5872 116.918 76.3105 116.918 76.2129V75.8223L116.967 75.3828C116.641 75.0247 116.397 74.8457 116.234 74.8457ZM117.504 78.3125C117.504 78.4427 117.211 79.4518 116.625 81.3398V81.3887H116.674C117.13 80.5749 117.357 80.0866 117.357 79.9238V79.7773C117.585 79.224 117.699 78.752 117.699 78.3613L117.602 78.3125H117.504ZM107.25 92.8145H107.348V92.9121H107.25V92.8145Z" fill="white"/>
</svg>
